<svg viewBox="0 0 852 506" xmlns="http://www.w3.org/2000/svg"><ellipse cx="424.3" cy="252.9" rx="419.3" ry="244.9"/><ellipse cx="426.8" cy="254.6" fill="#c9b074" rx="366.1" ry="219.4"/><ellipse cx="427.4" cy="254.4" fill="#840026" rx="338.3" ry="211.7"/><path d="m557.8 217.5a60.2 60.2 0 0 0 -3.8-16.5c-4.7-12.2-13-22-23.1-29.7a103.1 103.1 0 0 0 -13-8.4l30.2-.2v-83.8h-71.6l-8.7 7.9a496.1 496.1 0 0 0 -86.4-8.3c-29.7.1-61.9 3.3-89.8 14.9-13.9 5.8-26.8 13.8-37.2 24.9a85.5 85.5 0 0 0 -21.5 41.2h-.1v.6a30.4 30.4 0 0 0 -.7 6.8 41.5 41.5 0 0 0 5.2 19.6 53.9 53.9 0 0 0 14.5 16.7c7.4 5.8 17 11 29.7 15.3h-46.2v112.8h43.9l2.9-1.4a53.4 53.4 0 0 0 12.9-9.8 55.3 55.3 0 0 0 9.1-12.5 11.7 11.7 0 0 1 .5-1.1c16.6 5.9 46.2 13.8 87.8 14.8v61.6a10.9 10.9 0 0 1 -1.4 3.3c-1.5 2.5-4.4 6.3-12.3 10s-20.9 7.2-41.4 7.7l-13.5.3v44.2h211.8v-46.2h-14c-.1 0-3.4 0-8-.4a106.9 106.9 0 0 1 -12-2 67 67 0 0 1 -9.3-2.8c-4.3-1.8-7.7-4-9.6-6.1a11.7 11.7 0 0 1 -2.1-3.2 13.4 13.4 0 0 1 -.8-4v-26.7h51.5a59.9 59.9 0 0 1 15.4 6.6 31.2 31.2 0 0 1 9.3 8.7 21.3 21.3 0 0 1 3.6 12.5v13.8h47.6v-129h20.6a23 23 0 0 1 11 4.4 19.8 19.8 0 0 1 5 5.7 37.2 37.2 0 0 1 4.4 12.1 57.3 57.3 0 0 1 1.1 11.5c0 1.4-.1 2.5-.1 3.2a1.7 1.7 0 0 1 -.1.8l-1.6 15.3h50v-105.1zm-211.6 41.4a160.6 160.6 0 0 1 -25.9-10.6 118.8 118.8 0 0 1 -33.1-25.2l-3.4-3.8c4 1.3 8.2 2.5 12.8 3.6 13.5 3.2 29.9 5.6 49.6 6.9zm66.3-117.7h-13.4a268.3 268.3 0 0 1 -32.2-1.6 86.4 86.4 0 0 1 -13.7-2.7 33.1 33.1 0 0 1 -5.1-2.1 7.9 7.9 0 0 1 -1.7-1.3 10.4 10.4 0 0 1 2.8-2.2 41.5 41.5 0 0 1 12.6-5 79.5 79.5 0 0 1 18.5-2.2l5.6.2c14.4 1 34.1 2.9 53.2 8.1a147.3 147.3 0 0 1 27.4 10.3c2.8 1.5 5.5 3.1 8.1 4.7-20.1-4.3-41.6-6.1-62.1-6.2zm147.1 144.8a23.6 23.6 0 0 1 -2.6 6.7 25.1 25.1 0 0 1 -10.4 10c-5.5 3-14 5.5-27.2 5.5h-2.1c-.5.1-3.5.2-7.8.2a206.7 206.7 0 0 1 -20.7-1l-4.1-.4a188.4 188.4 0 0 0 18.9-8.1c14.7-7.6 27.8-17.2 37.6-29.3h18.7l.4 11.6a19.4 19.4 0 0 1 -.7 4.8z"/><g fill="#fff"><path d="m531.6 86.9h-52.4l-9.9 8.9s-202.9-44.6-225.7 61.3c0 0-15.8 59.4 156.4 53.5 0 0 90.4-7.9 83.1 32.6-7.5 42.1-85.1 32.7-85.1 32.7s-78.2 1-123.7-49.5h-27.7v85.1h26.7s17.8-8.9 19.8-29.7c0 0 36.6 19.8 104.9 19.8s141.5-28.7 143.5-82.1-73.2-71.3-136.6-70.3-74.2-8.9-75.2-21.8 24.7-24.7 54.4-22.7 82.2 7.9 111.9 38.6l35.6-.3z" fill-rule="evenodd"/><path d="m451.4 225.4h-94v23.8h28.7s15.9 2.9 15.9 17.8c0 0 64.3 7.9 68.2-26.7 0 0 3-13.9-18.8-14.9z" fill-rule="evenodd"/><path d="m403.6 315.8v61.7s0 32.7-68.6 34.3v16.8h184.1v-18.4s-54.8.3-55.8-32v-40.9h67s40.6 7.9 40.6 41.5h19.8v-103.9h-19.2s1.7 41.9-56.1 41.2c0 0-34.3 1.7-54.4-5.6 0 0-24.7 8.6-57.4 5.3z"/><path d="m556.7 225.4h124.4v77.5h-20.8s5.2-48.1-34-53.1h-76.9s7-5.9 7.3-24.4z"/></g></svg>