<svg viewBox="0 0 554 378" xmlns="http://www.w3.org/2000/svg"><path d="m198.2 20.8a286.7 286.7 0 0 0 -31.4 11.4 189.1 189.1 0 0 0 -35.8 20.4c-30 22-50.3 49.8-67.4 82.7-13.4 25.6-31.7 46.8-59.3 57v8.5c17.6-1.2 34.1 14.9 43.9 27.9 12.3 16.4 22.2 34.4 34.9 50.6s26.3 28.6 41.8 40.1c48.6 36.1 108.2 52 168.3 52.1a404.6 404.6 0 0 0 50.4-3c37.7-4.7 73.6-14.3 107.1-32.6a282.3 282.3 0 0 0 26-16.3 216.1 216.1 0 0 0 21.2-17c10.9-9.8 21.6-20.7 30-32.7s14.2-26.1 18.3-40.2c.7-2.2 5.2-26.4 2.9-26.4h-105.1c-.2 0-3.6 12-4 13.1a58.6 58.6 0 0 1 -7.1 13c-18.8 25.4-49.4 42.3-79.4 50.3a221.2 221.2 0 0 1 -26.7 5.3c-34.5 4.6-68.2 2.1-100.6-11.4a205.5 205.5 0 0 1 -24.8-12.5c-18.5-11.1-39.2-25.1-47.1-46.2-17.5-46.3 14-86.3 53.9-105.9a183.8 183.8 0 0 1 32.9-12.4 234.5 234.5 0 0 1 34.4-6.5c37-4.5 80.9.9 113.8 19.8 6.1 3.6 12 7.6 17.9 11.6 2 1.3 8.3 7.1 10.7 7.1h126.4l-1.3-2c-29.1-44.2-71.4-77.9-120.7-97.5a294.1 294.1 0 0 0 -44.2-13.8 362.9 362.9 0 0 0 -141.6-3.5 317.6 317.6 0 0 0 -38.3 9zm-140.1 142.8c21.8-30.7 33.4-65.1 63-90.1a263.8 263.8 0 0 1 24.7-18.4c18.6-12.5 39.5-20.7 61.2-26.3 44.9-11.6 94.2-16.5 140.3-9.8 39.8 5.8 78.8 18.5 113.1 39.8a211.8 211.8 0 0 1 35.9 28.1c5.6 5.4 10.8 11 15.9 16.7l13.2 14.7h-103.7a213.3 213.3 0 0 0 -125.1-39.7c-46.7.2-106.9 16.5-137.2 54.7-7.6 9.4-14.5 22.1-17.4 34-5.1 20.9-3.4 41.6 7.8 60.2a98.9 98.9 0 0 0 20.3 23.7c33.7 29.4 80 45.7 124.5 45.8 40.6.1 82.1-9.1 115.7-32.5 17.9-12.5 35.5-29.1 41.4-50.8h87.2c0 .1-.1.2-.1.3s-.1.3-.1.5 0 .3-.1.3v.2c-1.2 14.7-9.5 32.6-16.9 45.2s-19.7 25.1-31.8 35.6c-25.4 22.2-56 39-87.7 49.5a309.3 309.3 0 0 1 -57.8 12.8c-56.9 7.4-118 2.3-170.6-21.5-37.1-16.7-67.7-42.2-91.5-75.1-17.9-24.8-33.9-53.7-62.8-67.5 1.9 1 11.5-6.1 13.1-7.2 9.1-6.9 19.2-14.4 25.5-23.2z"/><path d="m44.3 195c8.3-6.2 14.5-11.5 20.6-20a148.8 148.8 0 0 0 9.1-13.3c5.3-9.8 11.5-20.8 16.1-31a103.9 103.9 0 0 1 16.3-25.9c6.9-7.9 12.5-15.3 20.5-22.1 17.6-15.2 37.3-26.2 58.9-35 26-10.7 53.3-18 81.4-20.4a308.9 308.9 0 0 1 40.8-1c43.6 2.2 89.5 10.2 128.4 30.9a216.9 216.9 0 0 1 29.4 19c7.7 5.7 15.6 11.1 22.6 17.6 2.7 2.5 14.2 14 14.2 14h-78.7s-10-8.5-15.9-11.6-11.4-5.6-17.1-8.2c-8.2-3.7-16.5-6.1-25-8.8a209.7 209.7 0 0 0 -54.5-9.4c-36.5-1.7-75.3 2.7-108.3 19.5-8.7 4.5-17.8 9.4-25.7 15.2-11 8.1-20.5 16.1-29 26.9s-15.1 22.5-18.7 35.6a87.1 87.1 0 0 0 -2 35.2 76.8 76.8 0 0 0 12.9 32.4c12.1 17.3 26.1 31.4 44.4 42.4 22.5 13.6 48 22.6 73.7 27.5 45.1 8.6 95.7 1.9 136.8-18.6 22.9-11.4 46.7-29.9 59.4-52.6l5.4-9.9h64.5a58.5 58.5 0 0 1 -2.9 10.7 84.6 84.6 0 0 1 -5.1 11c-2 3.5-3.4 5.7-5.5 9.1-4.4 6.8-9.8 12.6-15 18.8a177.9 177.9 0 0 1 -37.6 32.7 261.5 261.5 0 0 1 -92.9 37.6c-32.4 6.3-63.6 9.6-96.4 5.4-9.2-1.2-18.3-2.5-27.4-3.9-25-3.7-49-10.5-71.3-22.9-8.2-4.7-16.8-9.1-24.6-14.4-4-2.8-8.1-5.3-11.9-8.2-5.7-4.3-7.6-6.1-11.1-9.1-7.3-6.1-12.9-12.2-19.1-19.1a178.2 178.2 0 0 1 -15.7-20.9c-9.9-14.9-16.9-31.3-30.3-43.7-1.1-1-12.4-12.5-13.7-11.5z" fill="#ff4000"/></svg>