<svg viewBox="0 0 192 138" xmlns="http://www.w3.org/2000/svg"><path d="m3.4 92.1 23.9 41.1h110.3c35.6 0 51-18.6 51-38.5 0-13.3-9.3-24-18.9-28.8a1.1 1.1 0 0 1 -.1-1.9c8.3-6.2 13.9-14.1 13.9-26.4 0-14.5-10.3-34.8-50.8-34.8h-104.4l-23.7 41.2h17.4a3.5 3.5 0 0 1 3.5 3.5v41.1a3.5 3.5 0 0 1 -3.5 3.5z" fill="#fff"/><path d="m107.9 58.9h-17.2v-16.5a3.3 3.3 0 0 1 3.2-3.1h14c8.2 0 11.3 4.2 11.3 9.6s-3.1 10-11.3 10m0 38h-14a3.2 3.2 0 0 1 -3.2-3.2v-16.5h17.2c8.2 0 11.3 4.1 11.3 9.7s-3.1 10-11.3 10zm48.9-30.1a1.2 1.2 0 0 1 -.1-2.2c11.3-4.3 17.9-11.9 17.9-25.3.2-18.1-15.7-30.5-41.6-30.5h-98.2l-17.3 30.5h11.9a4.2 4.2 0 0 1 4.2 4.2v49.1a4.2 4.2 0 0 1 -4.2 4.3h-11.7l17.3 30.3h102.6c29.3 0 41.4-19.4 41.4-33.7 0-12.7-9.3-23.6-22.2-26.7z" fill="#f04e23"/><path d="m68.2 118.6c-18.2-34.3-23-73.6-16.2-109.8h-17.2l-17.3 30.5h11.9a4.2 4.2 0 0 1 4.2 4.2v37.7a137.8 137.8 0 0 0 34.6 37.4m85.8-106.4c-20.8 30.9-32.1 70.3-27 106.2a134.1 134.1 0 0 1 47.6-78.2v-.9c.2-12.5-7.4-22.2-20.6-27.1zm-34.9-3.4a264.9 264.9 0 0 0 -9.6 30.5h-15.6a3.3 3.3 0 0 0 -3.2 3.1v16.5h14.8c-1 5.9-1.8 12.1-2.3 18.3h-12.5v16.5a3.2 3.2 0 0 0 3.2 3.2h8.6a184.4 184.4 0 0 0 2.8 30.2h-12.8c-10.1-24.3-24-65.6-10.1-118.3z"/></svg>