<svg viewBox="0 0 209 148" xmlns="http://www.w3.org/2000/svg"><path d="m206.9 24.3c-3-5.6-14.3-7.6-22.4-7a53.1 53.1 0 0 0 -21.1-17.7l-.7 1.9a62.2 62.2 0 0 0 -13.3-2.3v1.7c-5.2.7-12.6 1.7-15.1 2.2.4 1.2.5 1.8.8 2.6-17.8 4.9-34.1 14.4-48.8 27l1.3.5c-15.9 6-27.6 15.4-37.8 24.9-12 1.9-33.6 4.7-33.6 4.7l-16 31.4 42-8.8c-3.5 9.9-13.1 18.7-21.9 24.7a23.5 23.5 0 0 1 -9.9 15.5c2.6 2.9-.6 6.6-1.1 9.7 3.6 4.6 10.9 13.5 10.9 13.5l4.4-18.7 9-9.2a9.5 9.5 0 0 0 -.2 4c-.8 1.7-3 3.7-3.2 6.6 3.4 4.4 10 12.5 10 12.5s4.7-12.6 6.8-19l36.4-33.6c2.7-.4 9.4-.3 14.3-.2l2.1-2 10.2-.8c.9 1.4 1.3 2.3 1.9 3.3l-5.2 2.8-4.7 16.5s8.9-4.8 13.5-7.1a31.2 31.2 0 0 0 7.4-.3c-.9 4.7-2.6 14.3-2.6 14.3l11.5-6.1c10.1 0 20.2-4 23-5.4 7.7-3.1 5.4-22.2 5.4-22.2 1.6-.2 3.5-.7 5-.2 4.4 1.1 1.5 17.5 1.5 17.5l10.1-9.6 1.1 1.4s6.1-7.6 8.8-11.6c7.4.1 9.2-4.6 10.1-7.8 3.7-12.8 8-12 9.7-18.9.9-2.9 4.4-23.9.4-30.7zm-201.5 65.9 12.3-24.8 166.1-24.3c-5.1 2.7-5.6 8.5-3.1 11.6-43.7 9.5-175.3 37.5-175.3 37.5zm40.4 32.4c-2.3 5.4-6.3 16.5-6.3 16.5s-4.6-5.3-6.4-7.9c-.1-2 2-4 3.1-5.9a4.3 4.3 0 0 1 -.2-1.9 16.9 16.9 0 0 0 6.8-10.9c12.6-19.7 36.3-20.6 36.3-20.6zm107.4-18.4c-10.2 5-22.3 5.1-22.3 5.1l-7.1 3.8s1.4-6.7 2-9.8c7.9-1.3 18.9-3.4 23.1-9.6 1.4-2.1 2.3-5.5 3.2-8.2l5.3-.8s2.1 16.3-4.2 19.5zm52.6-63.3c-.4 6.5-1.3 14.5-4.7 18.3s-5.8 9.2-7.7 14.9c-1 3.4-2.3 4.9-8.4 5.2a74.7 74.7 0 0 1 -7.2 9.8l-.7-1.1c-2.7 2.5-4.1 4-6.9 6.5.3-3.3.5-7.8-.6-10.2s-4.4-3.2-7.1-2.9l-12.7 2c-.8 2.6-1.6 6.4-3.6 9.1-2.9 6.8-26.6 9.2-30.9 8.6-2.9 1.5-5.9 3.3-9 4.8l2.8-9.9s4.2-2.1 6.2-3.3l-.9-1.9a24.2 24.2 0 0 0 10.8-5.5l-27 1.8a6.9 6.9 0 0 1 -1.7 1.7c-19.6-.9-38.2 1.8-51.9 15.6-4.4 4.4-9.2 9.2-12.1 14.3l-10.1 10.4-3.9 14-6.1-7.9c-.8-1.2 2.9-6.2 1-8.8 4.4-3.2 7.9-9.4 9-14.5 8.9-6 19.9-16.6 23.2-27.3l138.1-29.9c-.9 2.6-.3 6.1 2.6 7.5a5.4 5.4 0 0 0 4.2-1c-.7-.6-1.9-1.4-2.2-2.6s.2-2.9 1.2-4c-1.7-3.9-.3-8.4 2-11.6s4.2-4.6 6-6.5l-143.3 20.8s18.8-17.5 39.6-23.7l-3.3-1.4c14.8-12.1 31.4-21 47.8-24.9l-.8-2.3 13.9-2.1a5.4 5.4 0 0 0 -.1-1.1c3.3 0 10.2 1.8 12.7 2.7l.5-1.2c10.1 4.5 18.3 16.5 18.3 16.5 6.6-.7 13.5.1 18.8 2.9s4.7 11.8 4.2 18.2z" fill="#fff"/><path d="m183.8 41.1-166.1 24.3-12.3 24.8s131.6-28 175.3-37.5c-2.5-3.1-2-8.9 3.1-11.6z" fill="#bf2026"/><g fill="#194787"><path d="m201.6 22.7c-5.3-2.8-12.2-3.6-18.8-2.9 0 0-8.2-12-18.3-16.5l-.5 1.2c-2.5-.9-9.4-2.7-12.7-2.7a5.4 5.4 0 0 1 .1 1.1l-13.9 2.1.8 2.3c-16.4 3.9-33 12.8-47.8 24.9l3.3 1.4c-20.8 6.2-39.6 23.7-39.6 23.7l143.3-20.8c-1.8 1.9-4.4 4.4-6 6.5s-3.7 7.7-2 11.6c-1 1.1-1.8 2.4-1.2 4s1.5 2 2.2 2.6a5.4 5.4 0 0 1 -4.2 1c-2.9-1.4-3.5-4.9-2.6-7.5l-138.1 29.9c-3.3 10.7-14.3 21.3-23.2 27.3-1.1 5.1-4.6 11.3-9 14.5 1.9 2.6-1.8 7.6-1 8.8l6.1 7.9 3.9-14 10.1-10.4c2.9-5.1 7.7-9.9 12.1-14.3 13.7-13.8 32.3-16.5 51.9-15.6a6.9 6.9 0 0 0 1.7-1.7l27-1.8a24.2 24.2 0 0 1 -10.8 5.5l.9 1.9c-2 1.2-6.2 3.3-6.2 3.3l-2.8 9.9c3.1-1.5 6.1-3.3 9-4.8 4.3.6 28-1.8 30.9-8.6 2-2.7 2.8-6.5 3.6-9.1l12.7-2c2.7-.3 5.4.3 7.1 2.9s.9 6.9.6 10.2c2.8-2.5 4.2-4 6.9-6.5l.7 1.1a74.7 74.7 0 0 0 7.2-9.8c6.1-.3 7.4-1.8 8.4-5.2 1.9-5.7 4.4-11.1 7.7-14.9s4.3-11.8 4.7-18.3.8-15.6-4.2-18.2z"/><path d="m152.1 85.5c-.9 2.7-1.8 6.1-3.2 8.2-4.2 6.2-15.2 8.3-23.1 9.6-.6 3.1-2 9.8-2 9.8l7.1-3.8s12.1-.1 22.3-5.1c6.3-3.2 4.2-19.5 4.2-19.5z"/><path d="m42.8 112.5a16.9 16.9 0 0 1 -6.8 10.9 4.3 4.3 0 0 0 .2 1.9c-1.1 1.9-3.2 3.9-3.1 5.9 1.8 2.6 6.4 7.9 6.4 7.9s4-11.1 6.3-16.5l33.3-30.7s-23.7.9-36.3 20.6z"/></g></svg>