<svg viewBox="0 0 187.2 114.4" xmlns="http://www.w3.org/2000/svg"><path d="m3.8 33.1s-.9 17.6 19.6 28.8c0 0 8.3 4.4 27.7 8 17.1 3.1 26.3 9.8 29.9 13.9s9.3 15.1 11.3 23.5c0 0 0 2.2 1.6 2.1 0 0 1.4.1 1.3-1.8 0 0-.5-13.4 3.3-19.8s8.3-9.9 17.1-13.1a24.9 24.9 0 0 0 14.1 4.5 29.7 29.7 0 0 0 11.4-2.6s10.6 3.7 11.8 9.4a6.5 6.5 0 0 1 -.3 2.4l13.2.7 7.2-6.6s-13.4-.9-13.7-4.8c0 0-.2-1.8 3.4-1.8 0 0 8.4-.1 16.2 11.5l4.4-11.7s-3.4-1.7-3.3-4.9c0 0-.1-1.9 1.4-5.7l-5.5-2.5s-3-2.9-21.1-14.1l2.4-1.5-20-8.6s-6.3-10.1-24.1-10.1c0 0-13.9-22.8-36.1-22.8a37 37 0 0 0 -17.6 4.4s-3.7 1.7-7.3 3.8c0 0-7.6 5.2-16.3-6.3 0 0-3.2 13.6 6.3 19.4 0 0-9.1 1.9-12.3-5.9 0 0-2.9-5.9-2.1-15.9 0 0-7 6.3-7 18.4 0 0-.1 7.7 5 13 0 0-2.5-.4-6.7 2.2 0 0-7.1 5.2-15.2-5.5z" fill="#13264b"/><path d="m37.8 13.5s1.4 11.9 11.5 11.9a24.7 24.7 0 0 0 7.7-1.4c3.7-1.3 9-4.1 16.1-4.1 0 0 9.3-.9 14.5 9.4a112.1 112.1 0 0 1 23 1.5s-12.6-22.3-34.7-22c0 0-6.4-.3-14.9 4l-3.5 1.6-3.5 1.8a15.5 15.5 0 0 1 -7 2s-4.4.4-9.2-4.7zm-12.6.4s-5.9 16.2 7 23.5a21.8 21.8 0 0 0 10.6 3.1s17.6-8.4 36.8-10.6c0 0-2.2-4.8-10.9-4.8 0 0-5.3-.3-14.9 2.4l-5.7 1.7c-4.3 1.1-11.6 2.1-16.3-.8 0 0-6.4-3.2-6.6-14.5zm-16.6 27.3s1.6 8.7 11.6 8.7c0 0 7 .2 16.8-5.8a41.8 41.8 0 0 1 -5.1-2.5s-3.6-2.7-7.5-1.6a30 30 0 0 0 -4.1 1.6 12.1 12.1 0 0 1 -6 1.6s-3.6-.1-5.7-2z" fill="#de6226"/><path d="m62.5 69.3s19.9-21 48.5-13.7c0 0 1.4 16.4 19.2 17.4a20 20 0 0 0 11.7-3.6l11.1 4.1-11.7-7.3a15.7 15.7 0 0 1 -10.5 3.6c-6.7 0-14.9-6.8-14.2-16.6a136.3 136.3 0 0 0 -26-9.3l4.1 6.5s-26.6-1.7-48.4 15.2c0 0-20.8-4.6-23.3-8.6 0 0 42.8-34.9 97.7-20.7 0 0 .6-1-1-2.3a17.3 17.3 0 0 0 -5.1-2.4s13.4-.8 20.4 9.4l15.5 6.5-1.6 1.2s23.5 14.6 25.1 16.7l3.3 1.3s-2.3 6.9 2.5 10.6l-1.8 4.7s-7.9-8.5-15.8-8.8c0 0-5.8-.2-5.8 4.5 0 0-.7 5 10.9 6.4l-2.4 2.2-8.8-.5s.2-7.2-15.2-12.8c0 0-12.7 7.5-24.7-1.8 0 0-21.8 5.2-23.8 25.4a48.1 48.1 0 0 0 -7.7-14.1s2.8-10.3 18.4-15.4c0 0-14-.7-23.8 10.4a50.6 50.6 0 0 0 -16.8-8.2z" fill="#fff"/><path d="m133.9 45.5s10.8 1.6 29.6 16.9l-17.7-9.7a8.8 8.8 0 0 0 -1.9 1.3 48.9 48.9 0 0 0 -10-8.5z" fill="#13264b"/><path d="m142.7 48.7a2 2 0 0 0 1.3 3.4 2 2 0 0 0 1.9-1.8l-.7-.4-2 1.5.5-2.2z" fill="#de6226"/><g fill="#13264b"><path d="m174.2 67.2s-1.5.6-1.5 1.9-.4 1.4 2.6 4.4c0 0-4.5-3.2-5.3-5.2 0 0-.8-1.5 1.4-1.5a12.1 12.1 0 0 1 2.8.4z"/><path d="m123.2 37.3s2.8 0 3.1-.6.7-.7-3-2.5c0 0 5.7 1.2 8.3 5.8a44.7 44.7 0 0 0 -8.4-2.7z"/></g></svg>