<svg xmlns="http://www.w3.org/2000/svg" viewBox="0 0 400 298"><defs><style>.a{fill:#ee4723}.a,.b,.c,.d,.e,.f,.g{fill-rule:evenodd}.b{fill:#2b190c}.c{fill:#f7ece6}.d{fill:#46120f}.e{fill:#63110c}.f{fill:#312416}.g{fill:#fff}</style></defs><path class="a" d="M173.1,255.4c-2.9,0-3.3-1.4-4.7-3.3-5-6.8-.5-13.5,6.3-13.2,10.7.5,8.3,16.5-1.6,16.5ZM142,246.8v1.6l8-4.6c-1.6.3-4.4,1.7-8,3Zm-33.2,22.4h-3.2a139.7,139.7,0,0,0,17.8,8.5c10.8,4.1,24.8,7.5,37.9,6s24.6-4.2,33.4-11.3,13.9-15.5,15.8-28.3l4.9.8c1.5,45.8-58.6,55.7-100.8,34.3-6.7-3.4-10.3-6-16.3-10-21.4-14.2-31.7.1-41.8-2.9-4-1.2-2.9-3.7-5.6-7.5a203.1,203.1,0,0,1-23-42.7c-10-24.8-16.6-57.8-12.1-89.6A132.2,132.2,0,0,1,49.5,55.8,135.5,135.5,0,0,1,78.1,31.9C98.9,19,112.7,12.8,137.6,12.8a159.1,159.1,0,0,1,24.2,2c14.9,2.3,31,.8,42.8,6.6l54.5,50.2c-6,6.5-.2,23.1.9,32.9-14.8,3.5-44.5,9.3-56.8,18.9-1.8,1.4-5.2,2.8-5.8,4.7-7.2,3.8-18.5,26.3-23.8,33.4l-.3.3a5.3,5.3,0,0,0-3.2,1.7c-1.4,1.6-1.5,3.8-1.3,5.8s-.6,1.3-2.3,4-6.4,10.8-7.4,11.5-2.5-.1-5,4.4-5.1,7.9-7.3,11.6c-3.4,5.8,3.9-.9-10.2,19-1.2,2.6-4.6,5.6-4.3,8.4s4,5.8,7.7,5.2l2.7-.2,51.2,8.4,12.4,2h0c-4.3,13.2-4.1,17.9-15.2,26.7-18.6,14.8-46.5,12.8-68,5.4-3.8-1.8-10.5-4.3-14.3-6.5Zm19.7-42.3c-6.5.7-10,.4-14.3-2.5-13.3-9.1-10.2-28.2,2.7-31,9.9-2.1,18.1,4.4,20.7,11.8s.8,7.4-2.4,11.8-5.1,7.3-6.7,9.9Z"/><path class="b" d="M37.6,242.1a127.7,127.7,0,0,0,12.1,19c2.2,3,.7,1,1.8,4.5l9.4,3.1c-.3.6.2,1.5-2.5,2.3s-7.8-.4-9-3.9,1.9-.8-4.3-10.3l-1.3-1.7c.2,3.7,2.2,5,3.3,8.1s-.4,5.8,3,8.5,9.4,2.5,12.1-.8l2.6-3c-3.6,9.8-4.6,2.4-6.7,10,4.4,2.3,19.9-2.5,25.2-4.7,2.2-.9,5.1-2,6.8-3.6-6.4-4.2-12.2-3.3-20.2-3.5,4.1,0,7.2-2,13.8-1.1l10.9,4.3c-6.8,6.1-42.5,20.2-48.9,4.2-1.8-4.6,1.5-3.2-2.1-10.5-2.1-4.3-5.5-12.9-6.3-17.9s0-2.6.3-3ZM273.6,76a118.6,118.6,0,0,0-10.9-16c-4.8-5.3-7.6-9-12.7-13.6C204.1,4.6,163.3,9,130.1,10.7c17.8-2.9,34.4-4,52.5-2,13.8,1.5,31,6.9,44,13.3s17.1,9.9,26.4,17.1l7.6,6.6c9.4,9.7,18.8,20,24.8,32.3-4.4-2.7-7.1-5.7-11.8-2ZM217.4,244.8l-2-.2c1.6,45.9-58.6,55.9-100.8,34.5-6.7-3.4-10.3-6-16.3-10-21.4-14.2-31.7.1-41.8-2.9-4-1.2-2.9-3.7-5.6-7.5a203.1,203.1,0,0,1-23-42.7c-10-24.8-16.6-57.8-12.1-89.6A132.2,132.2,0,0,1,49.5,55.7,135.5,135.5,0,0,1,78.1,31.8c20.8-12.9,34.6-19.1,59.5-19.1a159.1,159.1,0,0,1,24.2,2c42.6,6.7,76.7,39.5,93.9,63.4-6,6.5,3.3,16.5,4.4,26.3l2.7-.4c-2.4-8.2-5.1-15.2-6-23.3-.4-2.9,5.1,18.7,8.6,22.7.5-.9.5.3.5-1.1a5.8,5.8,0,0,0-.5-1.6l-1-2.7c-2.9-7.8-3.1-9.5-5.2-17.7,2.4-1,5.3-.1,7.7-1.2s4.1-2.3,6.6-3.1c-1.7,5.5,3,12.4,5,16.8l6.9,16.1,9.6.2c-.3-5.7-6.8-22.2-9-28.6l3.1.2,6.4,19.4,7.9.8c-.7-2.6-7.7-18-9.3-21.9-6,1.4-6.5-3-11.3-10.4-1.5-2.3-3.1-4.7-4.8-6.9C256.1,32,223,12.3,184.5,6.6,142.4.4,101,11.8,68.1,35.3c-4.1,3-6.3,5.2-9.5,7.7a27.8,27.8,0,0,0-3.2,2.6c-10.7,11-17.6,18.1-25.3,31.9C2.4,127,8.9,183.7,32.7,232.9c2.5,5.2,2.2,2.9,2.1,9.3-.2,9.7,8,22.7,8.2,26.2s0,5.8,2.4,9.1,9.8,6.5,17.3,5.5c15-1.9,22.4-5.3,34.3-12.1,2.3,1.4,3.8,2.8,6,4.2,24.4,16.4,60,24.1,86.9,12.2,14.2-6.3,15.3-10.7,22.2-17.9,8.3-.2,17.7.3,25.2-.5s13.9-4.5,20-7.3l-2.6-4.2c-4.5,1.9-10.1,5.6-17.6,6.7s-15,.5-22.4.7a47.2,47.2,0,0,0,4.4-14c.5-2.8.8-3.4.1-5.7Z"/><path class="b" d="M266.9,177c-6.2-8.6-2.7-33.6,7.6-36.3l-2.5,3.1c-5.1,6.8-6.8,24.4-5.1,33.2Zm-3.5-61.7c-.5,11-9,6.7-25.6,11.6-8.4,2.4-15,6.7-21.3,11.8a20,20,0,0,1-2.4,1.6l1.2,3,5.2-4c-.7,1.1,0,.3-1,1.3l-3.9,3.6,19.5,42.5c.9-9.6,11.7-15.4,21.1-10.6,7.7,3.9,10,13.9,13.1,22.3l4.7-.4c0-2.9-2.1-8.6-2.7-12.4l-.9-14.6c10.7,11.9,15.9,13.5,30.3,21.1a44.7,44.7,0,0,0-2.9-7.9c-1.6-3.3-11.1-4.1-24.3-21.4-2.8-3.6-2.7-3.1-1.2-8.4l7.9-15.2c1.9,1.8,4.7,10.4,6.1,13.4,5.7,12.5,12.2,28.5,17.5,41.4l7.5-.9c-.2-2.4-10-24.5-11.7-28.7l-12.1-29a66.9,66.9,0,0,1,4.8-5.6L257.2,128c7.3-.7,12.1-3.4,12.1-10.8a8.1,8.1,0,0,0-.1-1.6l-1.7-1.5c-.5.7-.3-.2-.5,1.1s1,7.8-4.7,9.5L249.1,127Zm30.3,12.2c3.8-5,8-10.4,11.2-13.2,4.4,1.2,10.3,1.6,12.6-2.9s-1.7-9.9-3.4-13.1c-3.7-7-8.9-15.6-13-22.6L295.5,78c1,3.7,3.5,7.9,5.1,11.7.8,1.8,4.1,10.2,5.7,11.4s4.8.6,6.7,2a5.7,5.7,0,0,1,1.5,7l-15,1.3-5.8,15.3v.8Z"/><path class="c" d="M155.2,192.5c2.6,2.5,6.2,4.4,10,6.8s7.3,4.4,10.9,6.5,7.7,4.1,9,7.8-2.8,9.6-6.6,10.2-16.7-8.3-22.4-11.7c-10.8-6.1-9.9-6.3-.9-19.6Zm15-.3c3.8,2.1,8.3,5.3,12.1,7.8s9.5,6.3,6.6,12c0-7.9-8.5-10.6-14-14.5l-5.9-4.1Zm0,4.1c3.8,2.4,14.3,8.6,16.1,11.8s1.6,3.1.5,5.1c-2.4-4.5-2.7-4.7-6.9-7.1l-17.7-10.6c-2-1.2-8-4-4.2-7.5,6.2,9.6,4.4,3.4,12.2,8.3Zm-9.8-8.6c2.6-4.8,4.6-7.7,7.3-12.1l2.9-3.8,5.1,6-9.1,14.5ZM137,219.6c-.2,1.3-.6,1.1.4,1.1s-.1.1,1.2.3c2.8-4.7,5.2-8.1,8.3-12.5l6.5,4.6-.4,1.4.2.9c-2.6,0,.1-.4-1.1,1l.2,1.4a8.2,8.2,0,0,0,2.9-3.5c2.1.5,7.7,4.2,9.8,5.5s6.7,4.4,9.8,5.9c-.2,1.4,2.3.7,3.5.6,8.5-2,15.9-14.7,12.9-21-2-4.2-15.7-12-20.3-14.9a87.2,87.2,0,0,1,5.7-9.8l1.2-1.2c4.7,4.7,15,15,19.7,19.1,2.3,2,5.2,3.4,7.6,5.4,4.6,1.7,2.9.8,5.7,8.6l3.9,10.2-3.8-15.9c4.3,1.3,7.3,2.8,12.2,3.3a5.1,5.1,0,0,0-.6-1.5l-.3.2c-.1-.1-.3-.4-.4-.3l-1.6-.7c-7.7-2.2-14-4.8-20.2-10.2a20.2,20.2,0,0,1-3.2-2.6l-8.3-8.5c-4.5-3.7-12.7-12.8-16.8-17.3l5.4-5.2c2.8,3.8,18.2,19.9,20.1,21.2l1.2,1.3,2-.2v-.8c-1.6-.7-15.4-14.8-16.6-16.5,1.4-2.3,16.8-26.9,17.3-28.4l-1-.4c-3.2,2.4-6.9,9.4-9.2,13.2-1.4,2.2-2.8,4.6-4.2,6.9s-3.3,4.8-3.9,6.9c-2.9-2-2.5-2.3-6.1-5.5-.1-.1-.3-.1-.3-.3l-.3-.4,15.6-24.1,5.6-7.5.4-1.7c-7.2,3.8-18.5,26.3-23.8,33.4-1.5,2-3.5,1.9-4.4,5s1.1,1-2.7,6.8c-1.4,2.1-6.4,10.8-7.4,11.5s-2.5-.1-5,4.4-5.1,7.9-7.3,11.6c-3.4,5.9,3.9-.7-10.1,19.2Z"/><path class="b" d="M128.5,226.9c1.7-2.6,4.6-6.8,6.8-9.9s4.6-5.3,2.4-11.8A18.1,18.1,0,0,0,117,193.4c-13,2.8-16,21.9-2.7,31,4.2,3,7.7,3.2,14.2,2.5Z"/><path class="a" d="M178.2,226.3c.5.6.1.4,1.1.7s26.9,4.2,27.5,4.2c-.6-5.5-3.4-15.5-4.8-21.2a4,4,0,0,1,1.3,2.1l3,8c1.2,4.2,2.1,7.7,3.1,11.7l4.2.5c-.1-4.5-2.4-10.8-3.9-14.7s-3.1-9.4-4.6-13.8c-2.5-2.1-5.3-3.4-7.6-5.4-4.6-4.1-15-14.4-19.7-19.1l-1.2,1.2a79.2,79.2,0,0,0-5.7,9.8c4.6,3,18.2,10.7,20.3,14.9,3,6.4-4.5,19.1-13,21.1Z"/><path class="b" d="M231.2,199.9l8,.5c-.9-3.1-2.6-6-4-9.2-9.3-21.2-19.9-44.4-30.1-65.3-10.5-.9-2.8,11.8-.5,16.6,7.2,14.8,15,34,21.9,47.9,1.7,3.2,2.8,6.5,4.7,9.5Z"/><path class="b" d="M206.4,123.7h.3l.6,1.2c.6,1.2,1.2,2.4,1.7,3.6l1,1.9c8.2-4,3.5-2.6,15.3-7.2a142.7,142.7,0,0,1,17.2-5.3c11.6-3.1,24.9-5.9,36.8-8.7,2.8-9-10.6-4.5-16.3-3.4-12,2.2-51.2,11.4-56.6,17.8Z"/><path class="b" d="M364.9,185.6c3.1,3.6,4.9,4.9-.4,9.3l6.4,20.9h.2c2.9.2,5.7,1,7.4,3.1a4.7,4.7,0,0,1,1.1,2.5,7.7,7.7,0,0,1,.2,1.5v.6a7.3,7.3,0,0,1-.9,3.5,9,9,0,0,1-1.5,1.9,3,3,0,0,1-.8.8l-.9.9,5.1,35c7.2,3.2,4,1.6,7.2,5.1l-6.5-47.7c-1.8-7.2-3.8-14.4-6-21.2s-3.8-16.3-10.6-16.3Z"/><path class="b" d="M228.6,199.6c-4.9-9.5-14.2-31.4-19.8-43.3-4.2,6.6-3.8,21.9-2.6,30.2.7,5.1.4,4.7,2.7,6.3,4.7,3.5,13.7,7.1,19.7,6.8Z"/><path class="a" d="M200.4,185.6c.7-6.1-.7-13.5.4-20.1.6-3.5,2.8-12,5.5-14.5-.6-2.1-1.5-3.3-2.2-5.2l-1.1-2.6c-.8-1.6-.5-1.6-1.8-2.3-.6,1.5-16,26.1-17.3,28.4,1.1,1.5,14.9,15.6,16.5,16.3Z"/><path class="b" d="M213.6,232.4l3.5.7,2.3.4.8-.9.5-.5c4.4-4.2,13.7-13.9,13.4-20l-5.9-.4a44,44,0,0,1-8.8-1.6c-3-1-5.8-2-8.5-3.1l3.8,15.8-3.9-10.2c-1.4-3.9-1.6-5.6-2.1-6.5a22.1,22.1,0,0,1-3.4-1.8c1.4,4.3,2.8,9,4.5,13.5s3.7,10.1,3.8,14.6Z"/><path class="b" d="M316,228.6l-3.2-7.9c-5.5-1-33.1-5.4-36.1-6.4l-.4-4.4-2.6.3-2.4.3c.7,13.1.2,11.4-1.6,25l5.4-.6,2-12.7Z"/><path class="d" d="M210.7,243.6l-2.7-.4h-1.2c-4.3,13.2-4.1,17.9-15.2,26.7-18.6,14.8-46.5,12.8-68,5.4-4.4-1.5-11.4-4.1-15.1-6.4s-11.6-6.3-14.3-6.9l1.8,1.6c9.1,5.2,17.2,10.1,27.5,14s24.8,7.5,37.9,6,24.6-4.2,33.4-11.3,13.9-15.8,15.9-28.8Z"/><path class="b" d="M174.1,209c9.1.9,9.3,7.3,7.4,10.2s-4.3,2.8-7.3,2l-5.2-4.9c-3.9,0-5.2-.3-7.2-2.7-5.1-6.7,5.5-16,12.3-4.6Zm-18.9-16.5c-9,13.3-9.9,13.6.7,19.7,5.8,3.4,18.3,12.4,22.4,11.7s8.3-5.1,6.6-10.2-5.8-6-9-7.8-7.3-4.2-10.9-6.5-7.2-4.4-9.8-6.9Z"/><path class="c" d="M49.7,261.1a142.5,142.5,0,0,1-12.1-19c-.3.4-.9-.7-.3,2.9s4.1,13.6,6.3,17.9c3.6,7.3.3,5.9,2.1,10.5,6.5,16,42.1,1.9,48.9-4.2l-10.9-4.3C77.1,264,74,266,69.9,266c8,.1,13.8-.8,20.2,3.5-1.7,1.7-4.6,2.7-6.8,3.6-5.3,2.2-20.7,7.1-25.2,4.7,2.1-7.6,3.1-.1,6.7-10l-2.6,3c-2.7,3.3-8.8,3.4-12.1.8s-1.8-4.6-3-8.5-3-4.4-3.3-8.1l1.3,1.7c6.3,9.6,2.8,5.5,4.3,10.3s5.5,4.9,9,3.9,2.2-1.7,2.5-2.3l-9.4-3.1c-1.1-3.4.4-1.4-1.8-4.4Z"/><path class="a" d="M214.4,140a24.3,24.3,0,0,0,2-1.4c6.3-5.1,12.9-9.4,21.3-11.8,16.6-4.8,25.1-.5,25.6-11.6-7.9.6-32.6,7.6-40.7,11.2l-11.9,5.9c1.3,2.6,2.5,5.2,3.7,7.7Z"/><path class="b" d="M200.1,140.4l.3-1.2h0l-1-2.1a20.8,20.8,0,0,1-2-7.1v-.3l-5.6,7.5-15.6,24.1a.7.7,0,0,1,.3.4.3.3,0,0,0,.3.3c3.6,3.2,3.2,3.5,6.1,5.5.6-2.1,2.8-4.9,3.9-6.9l4.2-6.9c2.4-3.8,6-10.8,9.2-13.2Z"/><path class="b" d="M368.5,271.7c-.5-1.3-2-3-3.7-2.9l8.3,2.5-11.2,4.5-.3,7.7c9.2-2.4,19.6-3.7,24.3-9.1l-2.8-6c-2.1,2-3,4.7-7.6,5.4l4.2-5.3-18-5.4.4,7.7Z"/><path class="b" d="M324.4,241.7c3.4,7.2,17,21.3,25.3,23.8l-.5-8.6a100.9,100.9,0,0,1-9.4-8.1c-2.5-2.5-5.7-5.6-7.7-9.1l-6.4,1.2c-2.7.9-.3,0-1.3.8Z"/><path class="b" d="M235.9,212.1c1.3,4.7,9.3,20.3,11.4,25l8.1-.4-10.9-24.5h-8.6Z"/><path class="b" d="M353.7,221.8c.9,2.2,1.4,1.6,4.2.9,4.9-1.1,11.8-3.7,14.1-1.8l-16.9,4.7,1.9,6.8c10.1-2,22.1-2.3,20.3-10.5s-21.6-1.8-23.6-.1Z"/><path class="b" d="M325.9,227.4c-3-6.5-8.1-16.3-9.8-23.3l-7.5,1.2,9.7,23.3,7.6-1.2Z"/><path class="b" d="M138.5,221.1c-1.1,1.2-1.5,2.3-2.5,3.6-3,4.5.8,6.4,3.4,6.4,4.9.1,9.3-13.6,13.5-16.5l.4-1.4-6.5-4.6c-3,4.4-5.5,7.8-8.3,12.5Z"/><path class="b" d="M268.8,79.5l5.6,22c8.3-.7,10.1,8.9,2.7,11.1-1.7.5-.5-.2-2.6,1.2,2.5,4,7.7,2,8.8-1.7s-1.2-8.8-2.8-12.1l-1.8-4.7-.9-2.1a35.9,35.9,0,0,0-1.7-3.4c-.7-1.3-1.4-2.7-2-4.1a19.6,19.6,0,0,1-1.8-6.7l-.4-1.1a22,22,0,0,0-3.1,1.6Z"/><path class="b" d="M160.4,187.7l6.3,4.5,9.1-14.5-5.1-6-2.9,3.8c-2.8,4.5-4.8,7.4-7.4,12.2Z"/><path class="b" d="M342.3,190.7,345,197c3.9-.6,8-1.4,11.7-2.3s9.7-1.3,8.2-5.9-12.7,1.1-22.6,1.9Z"/><path class="a" d="M152.3,217.9l-2.1,4.3c2.4,1.1,22.9,4.2,24.6,3.6-3.1-1.5-6.6-3.9-9.8-5.9s-7.7-5-9.8-5.5a8.2,8.2,0,0,1-2.9,3.5Z"/><path class="b" d="M297,108.8l14.4,1.7c2.5-1.9,2.2-2.9,1.1-5.9-4.4-1.6-11.7-2-17.1-2.7Z"/><path class="c" d="M172.4,213.9l2.2-3.7,6.5,3.5-.3,4.3c-4.1,1.7-7.5-.1-8.4-4.1Zm1.5,4.5c2,1.5,2.6.4,4.5,1.8-8.1-1.4-6.6-.4-9-5.1-5.2.3-8.1-1.2-7.6-6.9,1.9,1.2,8.9,5.2,9.8,6.7l.4.7c.3.5.2.6.5,1a4.2,4.2,0,0,0,1.4,1.8Zm-5.2-13.2,4.2,5.8-4.9,2.4-.3-1.7,1.7-.9-1.9-1.1Zm-2.7,7.4a4.6,4.6,0,0,1-2.9-4.5c-.1-2.8,1-3,3.6-3.3-1,4.3-.5,3.4-1.7,4.3Zm8.1-3.6c-6.9-11.4-17.4-2.1-12.3,4.5,1.9,2.5,3.3,2.7,7.2,2.7l5.2,4.9c3,.8,6.1-.3,7.3-2s1.7-9.1-7.4-10.1Z"/><path class="b" d="M186.8,213.2c1.1-2,.4-3.5-.5-5.1s-12.3-9.4-16.1-11.8c-7.8-5-6,1.3-12.3-8.4-3.7,3.5,2.3,6.3,4.2,7.5L179.8,206c4.2,2.5,4.5,2.8,7,7.2Z"/><path class="b" d="M200.4,185.6v.8l3.6,2.7c-.5-6.7-1.9-11.4-1.1-19l4.8-16.5-1.3-2.6c-2.7,2.6-4.9,11-5.5,14.5-1.3,6.6.2,14-.5,20.1Z"/><path class="d" d="M126.3,252.2c10.4.6,13.2-2.7,23.8-8.5-4.9,1-20.5,11.2-36.8,3.1l-10.2-5.6c.6,1.8-.5.2,1,1.7l1.4,1.2c5.5,4.4,13.7,7.8,20.8,8.1Z"/><path class="c" d="M266.9,177c-1.7-8.7,0-26.4,5.1-33.2l2.5-3.1c-10.3,2.6-13.7,27.7-7.6,36.3Z"/><path class="b" d="M325.5,221.9l2.2,5.2,13.2-2.1-1-3Z"/><path class="b" d="M313.3,192.9l16.1-2.3c.6-.7,1.3-1.7,1.9-2.3-7.2-.3-12.9-.2-20.2-.7Z"/><path class="e" d="M178.6,250.9v.9l-1.3.4c-1.7,1.2-2.2,2.6-5.1,1.9s-2-1.6-3-3.3l-1.1-.4-.2-1.3c-.4-2.5-.4-4.8,1.3-6.7a6.2,6.2,0,0,1,6.2-2c4.4,1,6.7,4.9,3.3,10.5Zm-5.5,4.5c9.9,0,12.3-16,1.6-16.5-6.8-.3-11.3,6.5-6.3,13.2,1.4,1.9,1.8,3.3,4.7,3.3Z"/><path class="b" d="M109.8,256.1c-1.4-1.4-1-.3-2.3-1.8.2-1.8,4.4-.3,4.6,3.7-1.9-.7-1-.7-2.3-1.9Zm-6.2-1.8h-.1c.1,1.8.5,1.5-1,1.5l.3,1.2c1.8-2.2,4.2-2.5,6.5-.1l.3,6.6c-5.8.5-4.9-1.7-6.9-3.4.1,2.2.2.5.7,2.4,3.5,1.5,3.8,2.9,8.7,1.2l.3-.4,1.2-1.2c-1.1-.4-.9.8-.9-.4,1.9-2.9.6-5.9-1.4-7.7s-5.4-1.2-7.7.2Z"/><path class="b" d="M182.3,200c-3.7-2.5-8.3-5.7-12.1-7.8l-1.3,1.2,5.9,4.1c5.5,3.9,14,6.7,14,14.5,3-5.7-2.1-9-6.5-12Z"/><path class="b" d="M172.4,213.9c.9,4,4.3,5.8,8.4,4.1l.3-4.3-6.5-3.5Z"/><path class="b" d="M264.8,81.6l5.4,20.7,2.3-.6c.5-1.5-2.2-7.3-3-9.7l-2.4-11.7a6,6,0,0,0-2.3,1.3Z"/><path class="c" d="M281.5,89.2l2.8,5c-.8-.2-1.3,0-2.1-1.8a30.1,30.1,0,0,1-.7-3.2Z"/><path class="f" d="M169.4,215.1c2.5,4.7.9,3.7,9,5.1-2-1.4-2.5-.3-4.5-1.8a5,5,0,0,1-1.5-1.7,9.3,9.3,0,0,1-.5-1l-.4-.7c-.9-1.5-7.9-5.5-9.8-6.7-.4,5.6,2.5,7.1,7.7,6.8Z"/><path class="d" d="M102.5,255.9c1.5,0,1.1.3,1-1.5h.1c.5-.7,2.9-6.8,8.3-1.8s2,8.1,1.8,9.7l-1.2,1.2-.3.4c3.4-.8,4.6-3.3,4.2-6.9a9.9,9.9,0,0,0-3.4-6c-2.5-2.2-10.3-4.2-10.5,5Z"/><path class="b" d="M175.8,243.3l1.8,3c-5.4-2.1-3-1.3-5.9-1.1s-.6.1-1.4-.3c1.3-2.2,3.1-1.8,5.5-1.6Zm-7.9,6,.2,1.3,1.1.4c.2-3.2,1.2-5.4,4.9-5s3.6,3.1,3.2,6.3l1.3-.4V251c-.1-.9,2.2-7.9-4-8.7s-6.3,5.8-6.8,7Z"/><path class="d" d="M206.8,231.3l2.6.5c-1-4.1-1.9-7.5-3.1-11.7l-3-8A4,4,0,0,0,202,210c1.4,5.8,4.2,15.8,4.8,21.3Z"/><path class="c" d="M167.9,249.3c.5-1.2.5-7.8,6.8-7s3.9,7.8,4,8.7c3.4-5.6,1.1-9.5-3.3-10.4a6.5,6.5,0,0,0-6.2,2c-1.8,1.8-1.7,4.2-1.3,6.7Z"/><path class="b" d="M171,250.2a4.7,4.7,0,0,0,4.9.4c-.5,1.4-1,2.2-2.8,2.1s-1.9-.9-2.1-2.5Zm.5,2.9c6.5,1.1,5.8-4.9,3.4-6s-6.8,2.2-3.4,6Z"/><path class="b" d="M282.6,115.6c6.4.3,6.5-.5,11.2-3.5-1.9,0-7.6-.7-8.8.5a12.5,12.5,0,0,0-.9,1.2l-1.5,1.8Z"/><path class="c" d="M103.6,254.3c2.3-1.4,4.5-3.1,7.8-.3s3.3,4.8,1.4,7.7c0,1.2-.2,0,.9.4.2-1.6,3.4-4.9-1.8-9.7s-7.8,1.2-8.3,1.9Z"/><path class="b" d="M104.6,257.7c1.9,1.1.4.8,3.8,3.5l.6.5s-.8,1.7-3.2-.4a3.7,3.7,0,0,1-1.2-3.6Zm5.1,4.6c1.5-4.6-4.2-7.8-5.9-5.2s3,7.4,5.9,5.2Z"/><path class="c" d="M171.5,253.1c-3.4-3.8-.3-7.7,3.4-6s3.2,7.1-3.4,6Zm-2.4-2.2c1,1.7.9,2.8,3,3.3s3.5-.7,5.1-1.9c.4-3.3.2-5.9-3.2-6.3s-4.7,1.7-4.9,4.9Z"/><polygon class="b" points="167.5 209.6 169.3 210.8 167.6 211.7 167.9 213.3 172.8 210.9 168.7 205.2 167.5 209.6"/><path class="b" d="M265.7,253.7a17.6,17.6,0,0,0,3.7-5.1l-6,.6a13.7,13.7,0,0,0,2.3,4.5Z"/><path class="b" d="M166,212.6l-1-3.4c1.2-.9.7,0,1.7-4.3-2.6.3-3.7.5-3.6,3.3a4.5,4.5,0,0,0,2.9,4.4Z"/><path class="c" d="M109.7,262.3c-2.9,2.2-7.9-2.1-5.9-5.2s7.4.6,5.9,5.2Zm-6.9-5.2v3.1c2,1.8,1.1,4,6.9,3.4l-.3-6.6c-2.3-2.4-4.6-2.1-6.5.1Z"/><path class="c" d="M170.4,244.9c.8.4-.7.5,1.4.3s.5-1,5.9,1.1l-1.8-3c-2.5-.2-4.3-.6-5.5,1.6Z"/><path class="c" d="M108.4,261.2c-3.3-2.7-1.8-2.4-3.8-3.5a3.7,3.7,0,0,0,1.1,3.6c2.4,2.1,3.2.4,3.2.4Z"/><path class="c" d="M107.5,254.3c1.3,1.5.8.4,2.3,1.8s.4,1.2,2.3,1.9c-.2-4-4.4-5.5-4.6-3.7Z"/><path class="c" d="M175.9,250.6a4.7,4.7,0,0,1-4.9-.4c.2,1.6.3,2.3,2.1,2.5s2.3-.7,2.8-2.1Z"/><path class="f" d="M281.5,89.2c.3,1.1.3,2,.7,3.2s1.3,1.7,2.1,1.8Z"/><path class="f" d="M338.9,188.2l1.8-.7c-2.9.5-.8,0-1.8.7Z"/><path class="b" d="M236.7,209.8c22.3.5,48.9-3.3,71.2-6.6l26.9-4.4,9,28.1c-32.4,4.8-64.6,11.4-98.7,12.5-8.2.2-89.4-15.4-95.5-15.3l-4.8,6.8,49.7,8.1,24.8,4c8.2,1.3,16.3,2.9,24.6,3.8,18.9,1.9,57-3.9,77.7-7.4,4.8-.8,20.7-4.6,24.3-3.9l5.3,41.1c-1.3,1.2-1,1.2-2.8,1.7-16.9,4.6-36,5.2-52.5.1a69.7,69.7,0,0,1-11.4-4.8c-16.3-8.2-20.6-21.2-23.2-24.2h-8c5.1,10.2,5.8,13.3,13.9,21.5,19.1,19.1,58.4,22.6,82.3,14.8,5.7-1.9,3.5.5,7.2-.7,7.8-2.5-1-47.2-2.4-52.8A187.7,187.7,0,0,0,340.6,194c-.8-1.7-2.7-6.6-7.6-3.8-1.3.8-1.4,2-2,2.3l-17.4,3c-16.2,2.5-37.9,4.8-54.2,6.3-22.8,2.1-47.6,2.3-62.6-16.3-1.9-1.4-17.3-17.4-20.1-21.2-5.2-1.2-5.9,1.5-5.4,5.2,4.1,4.4,12.3,13.5,16.8,17.3l8.3,8.5c1,1.1,2,1.5,3.2,2.6,6.2,5.4,12.5,8,20.2,10.2,4.3,1.4,12.6,1.6,16.9,1.7Z"/><path class="g" d="M278.4,79.7c1.6-1,4.2.6,5.8,3.5s1.5,4.4.9,5.8a9.5,9.5,0,0,1,2.5,3c1.6,2.9,1.6,6.1,0,7.1s-4.2-.6-5.8-3.5-1.5-4.4-.9-5.8a9.5,9.5,0,0,1-2.5-3c-1.6-2.9-1.6-6.1,0-7.1Zm.6,2.2c.4-.2,1.3.9,2,2.4s.9,2.9.6,3.1-1.3-.9-2-2.4-1-3-.6-3.1Zm4.1,9.6c.4-.2,1.3.9,2,2.4s.9,2.9.6,3.1-1.3-.9-2-2.4-1-2.9-.6-3.1Z"/></svg>