<svg xmlns="http://www.w3.org/2000/svg" viewBox="0 0 147.1 134.8"><defs><style>.a{fill:#fff;}.b{fill:#bfc0c0;}.c{fill:#b21e35;}.d{fill:#db6126;}</style></defs><path d="M144.5,0a62.7,62.7,0,0,1,2.6,18.5c0,10.9-3,17.8-3.7,20.5a9.3,9.3,0,0,1-2.2,2.3l1.5,1.2s-3.3,10-6.2,16.2S126,78.5,120.3,83.1l-18.6,30s-4.2.6-6.9-1.6-2.6-4.3-2.6-4.3l11.2-16.8a50.8,50.8,0,0,1-8.5.7c-4.9,0-16.4-.5-31.2-7.2S41.5,73.5,30.8,73.5,9.9,81,6.7,93.9c0,0-6.7-8-6.7-18S9.5,58.8,13.2,56.8s5.1-3.8,5.1-6.5S15.1,42.1,10.5,38l10.9-3.7-2.2-3s7.3,1.3,13.3-6.1c0,0-4.1-.4-18.8,6.3.2-.3,4.2-11.3,22.5-20.2s34.1-6.6,50.7.2,21.2,8.8,32,8.8a41.2,41.2,0,0,0,22.5-6.4A90.6,90.6,0,0,0,144.5,0Z"/><path d="M103.8,112.6s2.5,4.3-.2,11.2-10.3,14-20.3,9.7a2.3,2.3,0,0,1-2,1.2,2.2,2.2,0,0,1-2.1-1.7,2.1,2.1,0,0,1,.5-1.6s-2.8-2.7-3-3.9.2-1.5.4-1.7a1.5,1.5,0,0,1,1.5.6l.9.9,8.7-13.6a12.6,12.6,0,0,1-2.8-7.5,7.1,7.1,0,0,1,6.6-.9s-2.5,1.5-.4,5,7,4.3,7.9,4.3S103.4,114.5,103.8,112.6Zm-6.3,15.3A11.3,11.3,0,0,0,99,119a6.6,6.6,0,0,1-2.5-.2l-9,13.3A9.7,9.7,0,0,0,97.5,127.9Z"/><path class="a" d="M99,119a11.3,11.3,0,0,1-1.5,8.9,9.7,9.7,0,0,1-10,4.2l9-13.3A6.6,6.6,0,0,0,99,119Z"/><path class="b" d="M97.9,108.9a2.3,2.3,0,0,1-2.2-1.8l12-17.6,3.9-1.1Z"/><path class="c" d="M5.3,83.3S-.3,75.4,9.2,65.2a18.6,18.6,0,0,1,10.1-1.5s-8.6,1.6-10.5,8.8c0,0,4.5-7.8,19-7.1,0,0-4.1-5-13.5-4,0,0,2.1-2.5,10.3-3.6a20.6,20.6,0,0,0-7.2.1,10.9,10.9,0,0,0,4.4-8.8C21.8,43.1,16,39,16,39a50.3,50.3,0,0,1,9.2-2.9,6.6,6.6,0,0,0-2.2-3s9.4.5,14.6-11a6.7,6.7,0,0,0-2.7-.6c-2.4,0-7.3,1.1-13.1,3.8,0,0,3.5-4.2,13.3-9.1s16.6-5,16.6-5a10.3,10.3,0,0,1,3.8.7s-4.6.1-12,3.6a70.5,70.5,0,0,1,10.1-.9,29.7,29.7,0,0,1,10.2,2.1s-1.5-2.9-6.2-3.7c0,0,.7-.7,3.3-.7s7.5,2.4,7.5,2.4a11.8,11.8,0,0,0-6-3.9s9.6-.9,26.1,5.8,21,7.2,30,7.2,21.1-4.2,25.8-7.3a20.8,20.8,0,0,1-.2,5.4c-.5,3.1-2.8,5.3-14.2,5.4,0,0,6.4,3,12.7,1.6a100.5,100.5,0,0,1-4.5,15.3,150,150,0,0,1-12.9,26.4,69.7,69.7,0,0,1-6.2,8.7s-5,2.2-10.4,3.9c0,0,2.5-2.9,2.6-4.8,0,0-4.6,4.7-9.2,6.6,0,0-4.4,1.5-12.3,1.5C65,86.5,49.6,69.8,28.5,69.8,11.3,69.8,5.3,83.3,5.3,83.3ZM86,130.9s-2.4.6-4.5-2.3c0,0-.4-.3.1-1l8.1-12.5a21,21,0,0,0,5.5,3.2,6.5,6.5,0,0,1-4.6-1,3.3,3.3,0,0,0,1.9,3.2,7.4,7.4,0,0,1-3.7-.8s-.4,1.8,2.1,3.2c0,0-2.3.7-3.8-.4,0,0-.3,1.4,1.9,3a10.6,10.6,0,0,1-3.9-.4,4.2,4.2,0,0,0,2.1,3.1s-2.5.3-3.8-.5S83.3,129.3,86,130.9Z"/><path d="M57.9,69.8l-.2.3-1.8,1-2.6.8-4.5.2-1.6-.8-.8-.2-.3-.2h-.5a30,30,0,0,0-3.8-2.2l-1.1-1.6V67h-.2a1.6,1.6,0,0,0-.1-.9l-.4-1.4h-.3l-.6-.8.5-2.2,2-2.1.6-1h.3v-.2l1.5-1H46l.8.4.2.7.4.8H50l1.4.3,1-.2,1-.9a12.6,12.6,0,0,0-2.6-3,22.5,22.5,0,0,0-2-3.4l-.4-.7-1.8-3.6,1.2-.8-1.5-.2-1-2.6L45.1,42V38.3a14.8,14.8,0,0,1,.4-2.8,12.4,12.4,0,0,0,.9-3.8l1.2-2.1.4-1.7a1.5,1.5,0,0,1,.3-.5,15.9,15.9,0,0,0,1.9-2.9l1.4-1.6a12.6,12.6,0,0,1,2.6-1.7l-.6,2a22.7,22.7,0,0,1-.3,3.7,5.1,5.1,0,0,1-.5,1.4v2.2a20.7,20.7,0,0,0,.8,6.1s1,2.2,1.3,3.2l2.3,5.5a13.6,13.6,0,0,0,3,4l2.4,2.5,2.7,1.8a1.5,1.5,0,0,1-.3-.7,9.2,9.2,0,0,1-.1-1.5,2.1,2.1,0,0,1-.6-1.2l1.8-5.5A8.4,8.4,0,0,1,64.6,39h.7s.2,0,.1-.1l-.7-1,.3-5.4.9.3a5.1,5.1,0,0,0,.5-2c.1-1.4.3-2.9,2.6-5.2.3-.4,2.5-3.8,6.1-4.7s5.4-1.6,5.4-1.6l1.5.2a11.9,11.9,0,0,1,4.7-.8c3,0,4.4.7,5.4,1.5s5.7,4.4,5.8,4.7a.7.7,0,0,1,0,.5,16.3,16.3,0,0,0,2.2,2.3,4.6,4.6,0,0,1,.9,1.8,6.1,6.1,0,0,1,.5,1.7l-.2,1.1a2,2,0,0,1,.2.7,14.2,14.2,0,0,1-2.2,5.1c-.4.6-.9.9-1,1.4l1.3.2S98,42,96.2,44.3a11.9,11.9,0,0,1-2.9,3,1.3,1.3,0,0,0-1,0v.8s-2.1,1.4-2.6,1.6-1.5,3.5-2.5,5.3l-1.4.6a5.1,5.1,0,0,0-1.2,1.3l-1.7.9s6.8-1.5,8.4-2,1.6-.9,2.5-1.1l2.3-.6L97.9,53a3.3,3.3,0,0,1,1.3.4V52.1l2.4-1.4,2.8-2.4c.8-.6,1.9-1.1,2.2-1.4a34.4,34.4,0,0,0,5.6-6.2,16.8,16.8,0,0,0,1-2l1.7-1.2a2.9,2.9,0,0,1,.4-1.4l1.3-1.8s.2.1.3.7a1.7,1.7,0,0,0,.3.9s.1,1.4.2,2.2l-.3,1.5v1.9l-.9,1.9a13.9,13.9,0,0,0-.5,2.3l-1.3,2.2a14.9,14.9,0,0,1-2.3,4.2l-2.8,3.6L108,57.1l-2.2,1.4-.8.5-1,.8-.8.4-9,4.7-1.2.4c-.6.1-1.8.2-1.8.7a5.4,5.4,0,0,0,.2,1.1,1.8,1.8,0,0,0,.9.7,2.3,2.3,0,0,1,1.1.1,4.4,4.4,0,0,1,1.2.7l1.3.3.6-.3a3.8,3.8,0,0,0,.9-.8h1.1l1.7.6s.4,1.1.6,1.5v.3h.1l-.2,1.2a13.8,13.8,0,0,1,.2,2.5l-1,2-1.1.6h-.2s-2.1,1.1-2.2,1.8h-.3s.1.2,0,.2l-2.2,1a25.4,25.4,0,0,0-4.8.5l-.4-.3H88s-.2-.3-2.4,0L82,77.8l-1.7-1.7-.3-.4-.3-.6-.2-.5H79c-.3.1-1.4.3-2.8.8a14.1,14.1,0,0,0-3.6.3,15.4,15.4,0,0,0-3.3-.2l-1.8-.2a24.1,24.1,0,0,0-4.2-1.5l-.8-.3a10.9,10.9,0,0,0-2.3-1.6A14.4,14.4,0,0,0,57.9,69.8Z"/><path class="d" d="M63.2,62.8a23.8,23.8,0,0,1,3.3-.2l.5-.5v-.9h1.8a7.9,7.9,0,0,1-.5,1.3s-.2.1.1.1h1.6s.2,0,.2-.1.2-.9.5-1.1h1.6l-.2.5-.4.5s-.1.1.1.1l1.6.4s.3.2.3,0l.2-.5v-.6s0-.1.3-.1l1.2.4a.5.5,0,0,1,0,.4,1.3,1.3,0,0,1-.4.9l1.5.7a2,2,0,0,1,.5-.5v-.8s0-.2.2-.1l1.2.6s.1.1,0,.3l-.2.7-.2.2c-.1,0-.2.3-.1.4l2.1,1.2-2-.7H78l-.4.7a5.6,5.6,0,0,1-1.7-.1,9.3,9.3,0,0,1,.5-1.3L75,64.4l-.6.6-.2,1h-.9a1.5,1.5,0,0,1-.8-.2l.3-1a2.8,2.8,0,0,1,.5-.9s-.1-.3-1.7-.4a7.6,7.6,0,0,0-.8,2,1.9,1.9,0,0,1-1.6-.5l.2-.7.5-.6v-.4l-1.6-.2a1.5,1.5,0,0,0-.6,1v.6h-.8l-.8-.6a2.1,2.1,0,0,1,.5-.9s.1-.1-.1-.1Zm.4,6.4s4.5,2.7,6.5,3.1,1.4-2,1.4-2a16.2,16.2,0,0,0,6.1,1.3,13,13,0,0,0,7.2-2.1h0a5.6,5.6,0,0,0-.2-1.6c-.2-.4-1-1.6-1.2-2.1a6.4,6.4,0,0,0-1.2-1.6s-3.2-2.4-4.1-2.9-2.1-.9-2.5-1.2a3.1,3.1,0,0,0-1.2-.4l-.9-.2-1.2-.2L70,59.1h-.6a10.3,10.3,0,0,1-3.2.4l-4.8,1.4a3.8,3.8,0,0,0-1.1.6l-2.2,1s-.5.2-.6.6l-.7.6v1.4a18.4,18.4,0,0,1,1.5,2.3L61.9,71l1.7.9a.7.7,0,0,0,.6-.7A6.8,6.8,0,0,0,63.6,69.2Z"/><path class="a" d="M67.8,52.1a7.8,7.8,0,0,1,.7-2.2c.5-.8.5-3.9.5-3.9a12.1,12.1,0,0,1,.9,2.7s.2,1.8.2,2.3v.2l1.1-1.3,1.6.8a.6.6,0,0,1,.1.4c-.1.4-.3,1.6-.3,1.6l1.6-1.5,1.8.6s.1.1,0,.4v1.6l1.5-1.7,2,.2v.2a11.5,11.5,0,0,1,.2,1.6l1-1.6h2.1l.2.8s-1.6,3.5-8.3,2.9c0,0,.8.7,4,.9,0,0-.6.7-2.8.7a9,9,0,0,1-6.3-3A24.1,24.1,0,0,0,67.8,52.1ZM71.2,44a11.8,11.8,0,0,1-.1,1.6l.9.5.3-.7L71.2,44Zm2.1,1.7-.4.9s0,.3.1.4l1.3.6.5-1.3-.6-.8Zm2,2s-.1.2.1.2l1.5.5c.1-.1.2,0,.2-.2l.5-1.1L76.9,46l-1,.4-.2.3Zm2.8.7s0,.3.2.3h1.6l.6-1.3-.8-.9-.9.4a1.1,1.1,0,0,0-.4.6Zm3.7-1-.5,1.3s-.1.1.2.1h1.1l.4-1h0l-.7-.5ZM67,35.7l-.2,3.6a2.7,2.7,0,0,0,.2.9,5,5,0,0,0,1.3.9s2.4.7,2.7,2.2l2.3,1.5,1.3-.2,1,1.1,1.5-.3,1.2,1,1.6-.4,1.2.8,1.6-.5,1.1.7,1.5-.2a4.4,4.4,0,0,0,1.1-1.2l-.9-2A6.1,6.1,0,0,0,88,44a7.3,7.3,0,0,0,5.7-2.3,7.8,7.8,0,0,1-.5-2.7c0-1.5,1.6-3.7,3.3-4.7V32.9a14.9,14.9,0,0,0-.5-2.1,7.1,7.1,0,0,0-3.2-2.5c-2.1-.9-5.7-2.1-5.7-2.1a35.8,35.8,0,0,1,6.3-.5s-1.6-1.9-7.6-2.7a11.9,11.9,0,0,1,5,0A3.9,3.9,0,0,0,88,21.9s-.2-.4-2.1-.4a19.6,19.6,0,0,0-2.6.2l-3,.5c-.7.2-1.7.2-2.5.5-2.5.7-5,1.9-6.1,3.8a7.5,7.5,0,0,1,1.6-.5s-2.7,2.5-3.1,3.1-.9,2-1.2,2.4a3.1,3.1,0,0,0,0,1.9,8,8,0,0,1,4.1-4.1,11.9,11.9,0,0,0-3.7,7.3Zm5.8-4,4-.3s.8,2.2,5,3.4a3.5,3.5,0,0,0-1.4.7,5.5,5.5,0,0,1-4.5,2.7c-1.9,0-3.8-2.4-3.8-2.4s.1-1.6,3.3-3.1Zm10.6,3.5h2.2a11.2,11.2,0,0,0,4.3-1.2l3.4,1.7H90.2a6.2,6.2,0,0,1,1,2.5c0,1-.2,1.2-.3,1.3a6.8,6.8,0,0,1-3.2.9,3.6,3.6,0,0,1-2.8-.9A4.9,4.9,0,0,1,84,36Zm-6.2,6.3a13.2,13.2,0,0,0,4.3-4.1l.2-.2s.1-.2.1,0-.4,3.3.7,5.3c0,0,.1.1-.1.2l-2.6,1.4a3,3,0,0,1,.3-1,6.8,6.8,0,0,0,.4-2.8,13.3,13.3,0,0,0-1.9,3.5l-.2-.2C78.4,43.5,77.2,41.5,77.2,41.5ZM82,62l-1.6-1.1.7-.3h.5l1.3-.2h.5a17.6,17.6,0,0,1,4.7-1.4,8.3,8.3,0,0,0,2.3-.5l2.4-1,1.9-.9a10.9,10.9,0,0,1,3.1-1.3,10.8,10.8,0,0,0,3.2-1.7l3.4-2.5c.7-.5,1.5-.8,2-1.2a17,17,0,0,0,3.4-3.3l1.6-1.4a46.8,46.8,0,0,0,3.8-5.4s.3,1-1.8,5.6l-.8,2a17.3,17.3,0,0,0-1.1,1.7c-.3.6-1.1,1.3-2.5,3.8l-3.1,3s-2.8,1.6-5.7,3.7l-4.1,2.2A46.2,46.2,0,0,0,89.3,64a24.8,24.8,0,0,0-4.4.9l-1.4-1.5s7.6-2.2,8.2-2.6l.6-.5,4.2-1.5A18.4,18.4,0,0,1,99,57.2l1.2-.5a9,9,0,0,0,3.7-3.2l-2.5,1.4-2.9,1.6c-1,.6-3.9,1.8-3.9,1.8l-3.5,1.3a12.1,12.1,0,0,0-2.2.8,17.6,17.6,0,0,1-4.3,1.3A16.4,16.4,0,0,0,82,62Zm-.3,11.8v-.2l2.8-1.2a4.8,4.8,0,0,0,1.7-1.1,4.7,4.7,0,0,0,.9-1.3V68.6l-.2-1a3.8,3.8,0,0,0-.4-2.3l2.4-.6a7.2,7.2,0,0,1,.1,3.7s-.2.5.3.6a2.1,2.1,0,0,1,1.5.4l1.4.3a1.7,1.7,0,0,1,1.1.6,1.7,1.7,0,0,0,1,.3,2,2,0,0,1,1.4.6,1.6,1.6,0,0,0,1.5.1l.4-1.1s.3-.6.8-.3.3.5.3.5l-.5,2,.4.2c.4,0,.8,1,.1,1.5s-.2.1-.2-.1v-.3a4.5,4.5,0,0,0-.5.8,1,1,0,0,1-.6-.2l-1.5,1.9a15.2,15.2,0,0,1-6.3,1.7l-.9-.3A7.5,7.5,0,0,1,81.7,73.8ZM58.1,59.5l-1.8-1.4a10.9,10.9,0,0,0-2.8,3.5h-.4a3.2,3.2,0,0,0-1.1-.4h-.9l-1.4-.3-1.5.2a5.1,5.1,0,0,0-1.5-.3H45.6a1.5,1.5,0,0,1-1.1-.5l.5-1.1s.1-.4-.4-.5-.8.4-.8.4a17,17,0,0,0-.7,1.8h-.6c-.2,0-1.2.2-1.2,1.1a.5.5,0,0,0,.1.3,1.5,1.5,0,0,1,.8-.5,3,3,0,0,0-.3.9c0,.2.5.2.5.2s.1,0,.1.3v2.1a9.8,9.8,0,0,0,4.1,3.5H47a5.4,5.4,0,0,1,1.6.5,5.2,5.2,0,0,0,2.2.3,12.6,12.6,0,0,0,5.8-1.6s-2.1-2.8-2.4-5L55.5,62l.4-.2A4.7,4.7,0,0,1,58.1,59.5Zm1.7.4a21.5,21.5,0,0,0-2.7-2.3A4,4,0,0,1,55.5,56a20.6,20.6,0,0,0-3-3l-2.1-3.3s-1.8-4.9-2.4-5.4-.4-2.8-.6-3.6a1.9,1.9,0,0,1,.2-1.4s.4-3,.5-5l1.8-5.1a6,6,0,0,1,1.3-2.5,34.3,34.3,0,0,0-.6,5.6s.4,1.8.5,2.4a14.5,14.5,0,0,0,.4,2.8,8.7,8.7,0,0,0,.2,1l.9,1.7L53.8,44s.8,1.7.9,1.8l1.4,1.5a20.2,20.2,0,0,0,2.5,3.5,7,7,0,0,1,.8,1.2L63,54.9l1.3,1.5L66.5,58a7.4,7.4,0,0,0-2,.6,28.7,28.7,0,0,0-3.1-2A18.2,18.2,0,0,0,60,55.2a21.2,21.2,0,0,0-1.3-1.8l-2.2-2.3A40.9,40.9,0,0,1,54,47.6c-.4-.6-.8-1.5-1.2-2.1l-1.6-2.8v2l.6,1.7a9,9,0,0,1,1.7,3.3l2.7,3.2.3.7s3.5,3.8,5.5,5.5Z"/><path d="M84.3,73.7a8.5,8.5,0,0,0,4.3-3.8,2.4,2.4,0,0,1,.2,2.3,4.1,4.1,0,0,0,1.7-.6s.3.8,0,1.2a2.3,2.3,0,0,0,1.6-.5,1,1,0,0,1,.2,1.2,2.2,2.2,0,0,0,1.6-.5,1.4,1.4,0,0,1,.2,1.2,3.6,3.6,0,0,0,2.1-.9s-.9,2.8-3.1,3.2a4.6,4.6,0,0,1-2-.6,10.4,10.4,0,0,0-6.4-.9S84.1,74.8,84.3,73.7Z"/><path d="M54,67.6a6.8,6.8,0,0,1-1.2-3.1,11.1,11.1,0,0,1,.2-1.8,3,3,0,0,0-1.7,1.8h-.2c-.1-.1-.7-.5-.8-1s-.5,0-.9.9-.1.2-.4,0a3.6,3.6,0,0,1-.7-1s-.4,0-1,.9a1.1,1.1,0,0,1-1-1,1.4,1.4,0,0,0-1,1H45c-.1-.2-.8-.7-.8-1.3s-.6.1-.6,1.8a2.2,2.2,0,0,0,.9,2,9.8,9.8,0,0,0,3,.2,9,9,0,0,1,5,1.4c.2.1.5.3.8,0Z"/><path d="M100.7,84.8s7.7-11,16.3-29.8a45.6,45.6,0,0,1-7.9,19.9C108.3,76,105.7,81.5,100.7,84.8Z"/></svg>