<svg viewBox="0 0 269.9 161.3" xmlns="http://www.w3.org/2000/svg"><path d="m4.1 3.1s4 13.8 19.4 24.6l-9-.9a77.4 77.4 0 0 0 26.6 21.7l-9.4-.9a83.8 83.8 0 0 0 37.9 29.8s2.6 16.2 24.5 30.9c0 0 20.9 12 23.3 23.1 0 0 40.2-2.7 84.2 26.8 0 0 10.4-42.5 64.2-47.6 0 0 .1-23.1-30.5-38.4 0 0-12.5-47.8-88.2-53l-63.8.2s-48.7-3.2-79.2-16.3z" fill="#1a191a"/><path d="m22.5 15.6s13 17 49.9 25.6l-33.3-3s12.5 12 49.4 21l-33.4-2.9a98.2 98.2 0 0 0 47.9 22.7l-17.9 2.8s1.6 9 32.3 28.9c0 0 10.1 8.5 8 10.6 0 0 16.7.2 45.8 13.9 0 0 27.9-14.3-11-55.8 0 0-17.9-19.7-38-32.5 0 0 30.3-7.3 68.1 14.4 0 0 19.2 14.5 36.9 7.2 0 0-7.2-36.5-75.3-42.3h-73.8s-31.3-2.4-55.6-10.6z" fill="#84161c"/><path d="m22.5 15.6s13 17 49.9 25.6l-33.3-3s12.5 12 49.4 21l-33.4-2.9a98.2 98.2 0 0 0 47.9 22.7l-17.9 2.8s1.6 9 32.3 28.9c0 0 10.1 8.5 8 10.6 0 0 16.7.2 45.8 13.9 0 0 27.9-14.3-11-55.8 0 0-17.9-19.7-38-32.5 0 0 30.3-7.3 68.1 14.4 0 0 19.2 14.5 36.9 7.2 0 0-7.2-36.5-75.3-42.3h-73.8s-31.3-2.4-55.6-10.6z" fill="none" stroke="#000"/><path d="m166.2 59.3s4 31.5 34.9 29.9c0 0 10.9-2.6 13.1-13.8h-4.3s-3.6 11.4-14.4 9.2c0 0-6.5-.1-12.9-9.6l10.3-1.4s-18.1-5.7-26.7-14.3z" fill="#fff"/><path d="m166.2 59.3s4 31.5 34.9 29.9c0 0 10.9-2.6 13.1-13.8h-4.3s-3.6 11.4-14.4 9.2c0 0-6.5-.1-12.9-9.6l10.3-1.4s-18.1-5.7-26.7-14.3z" fill="none" stroke="#000"/><path d="m207.6 103.4s31.4-5.7 52.6 4.6c0 0-26.9 1.1-44.8 16.3a26.5 26.5 0 0 0 -7.8-20.9z" fill="#fdbd12"/><path d="m207.6 103.4s31.4-5.7 52.6 4.6c0 0-26.9 1.1-44.8 16.3a26.5 26.5 0 0 0 -7.8-20.9z" fill="none" stroke="#000"/><path d="m208 95.8s34.4-1.5 52.3 9.8c-4.2-16.7-33.1-29.7-30.7-28.6a37.5 37.5 0 0 1 -21.6 18.8z" fill="#fdbd12"/><path d="m208 95.8s34.4-1.5 52.3 9.8c-4.2-16.7-33.1-29.7-30.7-28.6a37.5 37.5 0 0 1 -21.6 18.8z" fill="none" stroke="#000"/></svg>