<svg viewBox="0 0 184 99.7" xmlns="http://www.w3.org/2000/svg"><path d="m83.2 0c2 2.1 5.9 7.4 5.9 7.4-50.7-2.3-77.2 32.1-77.2 32.1l8 .7c-26 34.6-19.1 59.3-19.1 59.3 19.2-26.1 31.8-42.1 64.6-54.5a87.5 87.5 0 0 0 -5.1-7.2c46.8-4.2 90.8 24 90.8 24l-5.3-12.5c21 17.9 38 50.4 38 50.4 1.9-29.5-13.2-96.5-100.6-99.7z" fill="#12274b"/><path d="m180.5 87.5c-4-44.5-33.9-79.3-90.1-83.9l5.4 7.3c-53.1-3.9-76.4 26-76.4 26l6.7.6c-24.3 28.7-22.8 52.9-22.8 52.9 18.4-24.4 32.1-36.3 57.1-47a45.2 45.2 0 0 0 -7-8c47-7 91.2 19.3 91.2 19.3s-4.4-10.6-8.3-16.2c24.9 14.7 44.2 49 44.2 49z" fill="#3997d3"/><path d="m95.9 6.8 5.3 7c-14.1-1.2-49.9-3.5-76 21.1 0 0 6.1.5 6.1.6-9 9.5-22.2 29.7-24.9 47 19.8-26.6 38.5-35 50.1-40.1a44.6 44.6 0 0 0 -8.9-8.5c28.6-6.4 65.7 1.3 91.6 15-2.6-5.7-6.8-11.7-9.9-16.8 25.3 10.8 42.1 36.7 47.4 44.9-2.8-14.3-15.9-62.8-80.8-70.2z" fill="#f0c818"/></svg>