<svg viewBox="0 0 400 248" xmlns="http://www.w3.org/2000/svg"><path d="m362.8 116.7c-6.4-5.5-14.7-5.9-19.5-15.4-3.7-7.3-11.8-10-19.2-11.2-5.8-1.4-9.2-7-13.2-11.2-5.1-8.9-15.5-9-24.6-10s-16.1-11.6-26.4-14.3c-3.8-1-14-.3-20.7-5.1s-13.6-8.9-28.9-6.9c-11.4-1.9-19.6-11.7-31.3-13.2-7.9-2.4-15 1.2-22.9.8-5.5-1.5-10-5.4-15.6-6.5-8.4-1.5-10.5 1.8-31.8-2.7-10-2.2-22.5-5.4-16.1 15.5 2.8 9.2 9.4 31.9-12 34.1-7.7.8-14.8-6.3-21.8-.6-2.4 1.7-6.9-2.2-9.8-1.3-9.3 2.7-5.6 13.5-6.4 21s-6 14.6-8.7 21.9c-6.6 13.4-3.8 31.7.8 45.1 1.3 7-.7 14.2.7 21.1.4 1.2 1.9 2.8 3.7 1.9 14.2-6.9 17.7 1.7 22.5-.3 13.3-5.8 22.4-3.2 25.3 3.6 4.9 14.1-5.6 26.4-2.8 40.2 2.7 9.3 20.3 1.2 28.6.8 11.5-.9 22.7 2.4 33.7.3a65 65 0 0 1 31.7-7.3c7.7.1 13.6-3.9 19.8-7.5 11.3-7.9 28.5-2.1 39.4-11 6-4.7 14.7-2.8 21.1-6.4 9.8-8.7 21.5-13.4 34.2-15.3 6.6-2.6 11.8-9.5 18.1-12.7s12.2-4.2 17.6-8.2c8.5-11.2 19.8-20.4 33.4-22.7 13-5 8.4-12.3 1.1-16.5zm-82.9 49.8c-10.3 9.7-29.8 16.6-48.3 18.5-22.2 2.3-44.2-.9-61.8-12.5-10.5-7.7-17.1-19.6-15.9-32.9s8.8-24.1 19.2-31.8l-2.4-2.7-25.3 15.5v4.4h6.4v14.2l-4.8 5.4h-46.7v-11l5.8-8.5h1.8v-48.8h-7.6v-9.9l6.3-7h45.1v10.5l-6.3 7.5v18.9l43.7-24.6v-8.4l3.9-4h46.4v10.7l-5.8 6.2h-13.7l-17.4 10.5a41.1 41.1 0 0 0 3.6 4.1c21.8-5.3 48.3-4.8 68 4.5l6.9-5.2h13v32.6l-6.1 7h-11.7c-10.3-17.3-29.6-25.4-49.8-22.1a20 20 0 0 0 -3.7 1.1c7.2 7.9 8.2 8.9 15.3 16.4h3v13.5l-4.7 6.1h-47.3v-11.4l3-5.3a9.2 9.2 0 0 0 -1.4-1.3 13.4 13.4 0 0 0 -5.1 13.4c2.2 11.7 13.9 17.8 24.1 20.3 17 3.7 36.7 2.2 51.8-4.6 13.5-7.8 14.4-14.9 14.9-15.5h17.9c-.3 8.5-5.5 18-14.3 26.2z" fill="#fff"/><path d="m349.2 94.2c-8.4-5.4-6.3-16.1-25.9-18.6-10.2-1.5-10.5-16.3-33.5-20.7-10.9-2.1-18.1-12.8-29.4-13.8s-20.6-.1-28.3-6.4-19.6-3.4-29.5-5.6c-8.1-2.8-12.1-8.3-20.5-10.7s-16.8.4-24.2-1.5c-9.4-1-16.7-8-27.1-6.4s-21.3.2-31.5-.6c-6.1-.7-24.1-4.6-20.9 12.9 2 8.3 3.9 16.6 5.9 24.7 4 13.1-.3 14.1-6.4 14.6s-7.3-7.3-12.7-7.9-10.8 4-16 5.7-7.5-3.9-12-4.2c-9.7-.1-10.1 12.7-8.4 14.8a29.6 29.6 0 0 1 1.5 22.3 84.8 84.8 0 0 0 -8.5 19.5c-3.7 17.5-2.6 37.7 3.7 53.7 2.1 8.9-5.6 19.1 2.3 25.9 7.2 4.8 12.9-2.2 19.7-3.7 5-1.1 13.2 2.3 17.4 0 9.6-4.7 15.1-.7 14 5.7-2.6 10.6-4.9 21.3-8.3 31.6-2 7.5 7.2 14.3 11.9 13.5l19.1-3.5c14.7-2.2 28.2 5.5 42.1.4 9.3-4.6 18.7-9.2 30.6-7.6 8 1 14.2-2.7 20.3-6.4s21.4-6.3 25.9-6.2c8.3.3 13.5-5.6 20.7-7.8 5.5-1.8 15.1-1.9 17.1-3.4 5-4.1 11.4-10.2 15.9-10.9 13.3-2.6 24.6-8.5 35.1-17.9 1.4-1.4 12.6-3.6 15.9-4.9 6.9-2.7 11.5-9.5 15.2-15.5a27.7 27.7 0 0 1 14.4-9.7c9.4-1.5 18.9-9.6 23-18.1s2.2-9 1.2-10.3a175.8 175.8 0 0 0 -29.8-23zm12.6 39.1c-13.5 2.3-24.8 11.6-33.4 22.7-5.4 4-12 4.7-17.6 8.2s-11.4 10.2-18.1 12.7c-12.7 1.9-24.4 6.5-34.2 15.3-6.4 3.6-15.2 1.8-21.1 6.4-11 8.9-28.1 3-39.4 11-6.2 3.6-12.1 7.6-19.8 7.5a67 67 0 0 0 -31.7 7.3c-11 2.1-22.2-1.2-33.7-.3-8.3.4-25.9 8.5-28.6-.8-2.8-13.9 7.7-26.1 2.8-40.2-2.8-6.8-12-9.4-25.3-3.6-4.8 2-8.4-6.6-22.5.3-1.9.9-3.3-.7-3.7-1.9-1.4-6.9.6-14.1-.7-21.1-4.7-13.4-7.5-31.7-.8-45.1 2.8-7.4 8.5-13.5 8.7-21.9s-2.9-18.3 6.4-21c2.9-.9 7.4 3 9.8 1.3 7-5.7 14.1 1.3 21.8.6 21.4-2.2 14.8-25 12-34.1-6.4-20.9 6.1-17.7 16.1-15.5 21.3 4.6 23.4 1.3 31.8 2.7 5.6 1.2 10.1 5 15.6 6.5 7.8.3 14.9-3.3 22.9-.8 11.7 1.5 19.8 11.3 31.3 13.2 15.3-2 22.8 2.5 28.9 6.9s16.9 4.1 20.7 5.1c10.3 2.7 16.5 14.7 26.4 14.3s19.5 1.2 24.6 10c4 4.2 7.3 9.8 13.2 11.2 7.5 1.2 15.6 3.9 19.2 11.2 4.8 9.5 13.1 9.9 19.5 15.4s11.8 11.4-1.1 16.5z"/><path d="m261.5 155.8c-15 6.8-34.8 8.3-51.8 4.6-10.3-2.4-21.9-8.6-24.1-20.3a13.5 13.5 0 0 1 5.1-13.4l1.4 1.3-3 5.3v11.4h47.2l4.7-6.1v-13.5h-3c-7.1-7.5-8-8.5-15.3-16.4a25.9 25.9 0 0 1 3.7-1.1c20.2-3.3 39.5 4.8 49.8 22.1h11.7l6.1-7v-32.6h-13l-6.9 5.2c-19.7-9.3-46.2-9.8-68-4.5a41.1 41.1 0 0 1 -3.6-4.1l17.4-10.5h13.7l5.8-6.2v-10.7h-46.4l-3.9 4v8.4l-43.7 24.6v-18.9l6.3-7.5v-10.5h-45.1l-6.3 7v9.9h7.6v48.8h-1.8l-5.8 8.5v11h46.7l4.8-5.4v-14.2h-6.4v-4.4l25.3-15.5 2.4 2.7c-10.4 7.7-18.5 18.8-19.2 31.8s5.4 25.2 15.9 32.9c17.6 11.5 39.6 14.8 61.8 12.5 18.5-1.9 38-8.8 48.3-18.5 8.8-8.2 14-17.7 14.4-26.3h-17.9c-.5.7-1.5 7.7-14.9 15.6zm3.4-61s7.3 2.5 9.7 3.9l6.9-5.5h9.5v29h-9.6c-14.7-18.3-39.4-21.9-62.1-16.9l-10.7-11.6c17.4-5.5 39.7-5.1 56.3 1.1zm-122.8 24.6v9.3h6.7v8.4h-40.2v-8.5h7.4v-59.6h-7.4v-6.9h40.2v6.9h-6.7v32.6l58.4-32.6h-6.4v-6.8h42v6.9h-10.1l-28.7 17.3 39.5 42.4h1.1v8.5h-42.2v-8.5h6.1l-26.8-29.3c-10.7 6.3-13.8 8.2-32.9 19.9zm148.8 24.4c-6 22.5-30.4 32.5-51.4 35.4s-39.9.2-56.8-7c-11.8-4.5-22.1-16-23.1-28.9a35.4 35.4 0 0 1 16-32.7l12.7 13.4c-4.1 4.7-6.5 10.3-5.4 16.7 2 12.4 15.3 20.9 26.5 23.2 20.2 3.3 42.7 2 59.5-8.1 8.3-5.9 11.6-12 11.6-12z"/><g fill="#b21e35"><path d="m201.8 128.7h-6.1v8.5h42.2v-8.5h-1.1l-39.5-42.4 28.7-17.3h10.2v-6.9h-42v6.8h6.4l-58.4 32.6v-32.6h6.7v-6.9h-40.2v6.9h7.4v59.7h-7.4v8.5h40.2v-8.4h-6.7v-9.3c19.1-11.7 22.2-13.6 32.9-20-.1 0 9.7 10.6 26.7 29.3z"/><path d="m281.3 122.1h9.6v-29h-9.5l-6.9 5.5c-2.4-1.4-9.7-3.9-9.7-3.9-16.6-6.2-38.8-6.5-56.4-1.2l10.7 11.6c22.8-5 47.5-1.3 62.2 17z"/><path d="m268.8 155.8c-16.8 10-39.3 11.3-59.5 8.1-11.2-2.3-24.5-10.9-26.5-23.2-1.2-6.4 1.3-12 5.4-16.7l-12.7-13.4a35.1 35.1 0 0 0 -16 32.7c1 12.9 11.3 24.4 23.1 28.9 16.9 7.2 37.1 9.7 56.8 7s45.5-12.9 51.4-35.4h-10.4c.1 0-3.3 6-11.6 12z"/></g></svg>