<svg viewBox="0 0 400 400" xmlns="http://www.w3.org/2000/svg"><path d="m317.5 69.8c-6.5-9.1-3.9-13.9.6-14.6a63.9 63.9 0 0 1 8.8 0c3.4 0 10 .4 9.5-6.3s-2.2-14.8-4.1-23.7-2.5-8.2-14.5-8.2c0 0-2.2-.3-20.5.9s-32.8 3.8-33.5 28.4 5.1 32.8 15.2 48.6 40.4 64.4 40.4 108.6c0 81.3-71.4 116.2-119.4 116.2s-119.4-34.9-119.4-116.2c0-44.2 30.3-92.8 40.4-108.6s15.8-24 15.2-48.6-15.2-27.2-33.5-28.4-20.5-.9-20.5-.9c-12 0-12.6-.6-14.5 8.2s-3.5 16.1-4.1 23.7 6 6.3 9.5 6.3 5.7-.5 8.8 0 7.1 5.5.6 14.6c-26.1 36.5-53.7 81.8-53.7 135.8 0 89 76.4 177.5 171.1 177.5s171.1-88.4 171.1-177.5c.1-54.1-27.4-99.3-53.5-135.8zm-25.6 6.4a5.1 5.1 0 1 1 5.1-5.1 5.1 5.1 0 0 1 -5.1 5.1zm-183.8-10.3a5.1 5.1 0 1 1 -5.1 5.1 5.1 5.1 0 0 1 5.1-5.1zm-51.1 130.9a5.1 5.1 0 1 1 5.1-5.1 5.1 5.1 0 0 1 -5.1 5.1zm25.2 101.7a5.1 5.1 0 1 1 5.1-5.1 5.1 5.1 0 0 1 -5.1 5.1zm117.8 58.1a5.1 5.1 0 1 1 5.1-5.1 5.1 5.1 0 0 1 -5.1 5.1zm117.8-58.1a5.1 5.1 0 1 1 5.1-5.1 5.1 5.1 0 0 1 -5.1 5.1zm25.2-101.7a5.1 5.1 0 1 1 5.1-5.1 5 5 0 0 1 -5.1 5.1z" fill="#023a79"/><g fill="#fff"><circle cx="291.9" cy="71" r="5.1"/><circle cx="108.1" cy="71" r="5.1"/><path d="m51.8 191.6a5.1 5.1 0 1 1 5.1 5.1 5 5 0 0 1 -5.1-5.1z"/><circle cx="82.2" cy="293.3" r="5.1"/><circle cx="200" cy="351.4" r="5.1"/><circle cx="317.8" cy="293.3" r="5.1"/><path d="m337.9 191.6a5.1 5.1 0 1 1 5.1 5.1 5 5 0 0 1 -5.1-5.1z"/></g></svg>