<svg viewBox="0 0 298.3 211.9" xmlns="http://www.w3.org/2000/svg"><path d="m63.4 140.6a4.7 4.7 0 0 1 -5.3 1c-2.3-.9 3.7 1.3 6.3.8a17.5 17.5 0 0 0 1.9-3.3c1.2-2.1 2.2-6.6 1.2-8.9-1.5 3.5-1.2 8.1-4.1 10.4" fill="#03577a"/><path d="m46.2 137.3 8.8 3.5c.2.1 4.7 1.6 6.8 1.4-.1-.4.4.3 2-1.6s2.8-6.4 3.8-10.1-2.6 2.9-5.7 3-5.4.1-8.7-.5c-5.6-.6-8.5-.6-10.2 0s-2.2 1.9-2.2 1.9" fill="#058d97"/><path d="m225.9 109.3c.9-2.5 1-3.2 1.9-5.7-.2-.1.4-2 .3-2.1s-3.6 3.5-4.7 4.4c-4.6 3.9-9.3 7.6-14 11.1-.2 2.1 0 5.1-.4 7.2-.9 5-2 9.9-2.9 14.9-.3 1.6.2 1.6.3 1.6a40.8 40.8 0 0 0 4-3.3c7.2-7 10.1-13.7 14.2-24.3" fill="#058d97"/><g fill="#03577a"><path d="m288.6 45.2c-2.9.7-4.5 1.3-7.4 2.1a77.6 77.6 0 0 0 -17.1 7.2c-13.6 7.6-25.3 17.8-37.2 27.9l-15.2 13.1c-7.6 6.4-10.2 8.8-17.9 15.6a87.7 87.7 0 0 1 -8.6 6.5 76.6 76.6 0 0 1 4.1-6.7c3.3-5.5 6.8-10.9 10-16.5 4.5-7.7 9.5-14.9 16.8-20.2 2.5-1.9 7.8-6 23.8-15.1-.7 0-15.5 7.5-16 7.7a56.2 56.2 0 0 0 -24.9 21.1c-5.5 9.1-10.6 18.3-16.5 27.1-9.2 13.9-20 26.3-33.6 36.1a10.3 10.3 0 0 1 -3.3 1.3 106.8 106.8 0 0 0 7.1-14.4l.8-1a20.1 20.1 0 0 0 -2.5 1.2c-10.2 4.7-20.4 9.2-31.2 12.3a118.2 118.2 0 0 1 -25 4.5c-8.5.4-17.1.2-25.4-1.9l-4-1h-.4c-12.9-3.5-14.1-5.9-19.4-9.7-1.3-1.4-3.1-4-5.3-5.4l5.4 8.7c-13.3 3.6-34.1-8.8-41-24.6a14.2 14.2 0 0 0 1 5 36.4 36.4 0 0 0 10.5 13.5c4.9 3.9 7 5.4 16.7 8.3 3.6.8 4.4 1.1 11.4 1.2 1 .1 4.6-.5 5.6-.4l2.3 1.2a108.6 108.6 0 0 0 20.9 7.1c4.9 1.1 9.8 2.2 14.7 3a35.9 35.9 0 0 0 7.3.5c8.7.1 17.3.1 26-1.4a132.9 132.9 0 0 0 23.8-6.4c-.3 1.4 2.5 1.5 4.1.8l2.7-1.3c2.4-1.6 4.7-3.6 7.2-5 4.1-2.3 8.4-4.3 12.6-6.5a314.6 314.6 0 0 0 37.9-23.7c4.7-3.5 9.4-7.2 14-11.1 1-.6 3.7-3.2 4.2-3.6-.9 2.6-1.9 6.3-2.9 8.8-5.4 17-11.8 23.1-18.4 29.6.6.2.9.1 1.7-.3s10.2-9.4 13.5-15.6c4.5-8.1 7.9-17.8 10.7-26.6a47.2 47.2 0 0 1 3.5-3.5c6.1-6 11.9-12 18.2-17.8a103.9 103.9 0 0 1 10-8.7c7-5.3 14.4-10.2 21.6-15.4 2.6-1.9 5.9-3.4 6.4-7.6a.9.9 0 0 0 -1.1-.5"/><path d="m95.8 150.4a131.7 131.7 0 0 0 22.2-6.6c13.5-5.6 26.1-12.9 38.3-20.8.5-.3 1.6-1 1.7-1.5a28.2 28.2 0 0 0 .9-6.4c.7-.3.4-2 .4-2.2s-1.4 1.3-1.8 1.6l-4.9 3.7c-13.4 10.7-27.6 20.2-43.7 26.1a118.3 118.3 0 0 1 -33.9 7 54.1 54.1 0 0 0 -8.1.2c7.6.9 21.9.4 28.9-1.1z"/><path d="m136.4 82.9c3.7.2 6.6-.3 10.6-.1 8.9.7 10.7-2.1 14.7-5.7-7.5 1.9-7.8 1.8-13.1 2-8.7.2-12.2.4-17.5 1.5a39.7 39.7 0 0 0 -10.7 3.6c-1.7 1.1-3.1 1.3-6 5.5 3.2 0 16.8-6.7 20-6.8"/><path d="m240.8 51.8 8.2-2.5a82.6 82.6 0 0 0 8.2-3.3 54.7 54.7 0 0 0 -7.1.3l-7.5.2a15.8 15.8 0 0 0 -12 5.6c2.9-1.7 7.7-2.4 9.8-2.4s1.8.5.4 2.1"/></g><path d="m233.8 50a27.4 27.4 0 0 1 8.3-2.9c4.6-.7 9.3.2 14-1-1.9.8-3 1.5-7.1 3.2l-8.2 2.5c-4.7 1.4-5.9 1.6-10.6 4.3a21.8 21.8 0 0 0 -4 3c1.5-2.9 2.1-4.8 4.3-6.7m-189.4 85.6c7.3 8.4 17.4 14 28.3 13.6l10.1-.3c11.7-.7 18.5-3 29.4-7 16.1-5.9 30.3-15.4 43.7-26.1l4.9-3.7 1.4-1.1c0 .1-.1.2-.1.3a2.5 2.5 0 0 1 -.1.8 87.5 87.5 0 0 1 -6 23.4c-2 4.9-5.1 10-7.8 14.7-.3.4.1.5.1.5a14.4 14.4 0 0 0 3.9-2c13.6-9.8 24.4-22.2 33.6-36.1 5.9-8.8 11-18 16.5-27.1s12.2-13.4 22.5-19.1c17.1-10 17.8-9 25.2-12.9a120.4 120.4 0 0 1 24.4-10c5.9-1.6 12.8-4.1 19-4.4a3.2 3.2 0 0 1 2.1.3c-.4-4.2-7.3-5.2-12.3-4s-8.4 2.6-12.7 3.7a12.7 12.7 0 0 1 -5.1.3 26.1 26.1 0 0 1 -4.6-.8c-19.9-5.8-39.6 1.3-39.6 1.3a111.5 111.5 0 0 0 -12.6 4.6 136.7 136.7 0 0 0 -19.8 11 148.7 148.7 0 0 0 -23.4 18.5c-1.8 1.6-8.8 5.8-9.9 5.8l-16.7.2a41.4 41.4 0 0 0 -10 1.3c-5.1 1-10.7 4.1-12 7.7-.1 1.5 1.6 1.2 1.7 1.2 3.9.2 6.6-.5 10.4-.6a15.5 15.5 0 0 1 7.9 2 6.2 6.2 0 0 1 1.4 10.2l-17.6 17.2a111.1 111.1 0 0 1 -18.7 14.7 56.7 56.7 0 0 1 -22.5 8.3 61.1 61.1 0 0 1 -15.4 0 36.7 36.7 0 0 1 -16.4-6.6c-7.5-5.4-16-8.1-25-9.6a19.5 19.5 0 0 1 -9.3-3.7l-4.4-3.7c-1.3-1.2-.9.3-.8.8 7 15.8 29.8 28.4 43.1 24.9" fill="#058d97"/><path d="m251.6 107.2c2.9-1.8 5.8-3.4 8.8-5l8.4-3.6a51.5 51.5 0 0 1 -7.7-.4 28.2 28.2 0 0 1 -10.9-3.4 4.2 4.2 0 0 1 -2.2-4 14.1 14.1 0 0 1 .6-3.6c-2 1.9-4 3.8-6 5.9 0 .8.1 3.6.2 5.6a62.3 62.3 0 0 1 -.6 14.3 83.2 83.2 0 0 1 -3.7 14.9c-4.5 12.6-12.6 22.7-22.6 31.2a67.8 67.8 0 0 1 -23.2 12.5c-7 2.2-14.1 3-21.3 3.5-1.5.1-4.7 0-6.2-.1a68.3 68.3 0 0 1 -7.9-1.1 69.6 69.6 0 0 1 -26.6-10.8l-2.6-1.8-7.8 1.1-8 1.1-5 11.1a23.6 23.6 0 0 0 4.1-2.5c4.1-2.8 8.1-5.6 13.3-5.7 1.5 0 3.3-.3 4.2 1.4s1.6 6.4 1.3 9.8c0 1.2-.1 2.4-.2 4.1l2.8-1.4c2.8-1.4 5.6-2.9 8.5-4.1s3.5 0 3.7 1.9a55.1 55.1 0 0 1 .8 7.1c.1 6.8 0 13.6 0 20.7a20.1 20.1 0 0 0 2.2-2.9c1.4-2.5 2.4-5.1 3.9-7.5 2.8-4.5 5.7-8.9 8.9-13.2 1.7-2.4 4.5-2.3 6.2 0s3.3 5.3 5 7.9c.1-.3.5-.8.8-1.4a29.6 29.6 0 0 1 6.5-8.7c2.3-2 5.4-1.8 6.9.9s3.6 6.7 5.4 10.1c.9 1.8 1.7 3.6 2.6 5.6.3-1.5.3-3.6.6-4.7s.3-3.8.3-4.2c.2-3.3.1-1.2.6-5.7s2.1-4.8 5.1-4.3a10.5 10.5 0 0 1 2.8 1.4c1.3.8 2.4 1.7 3.6 2.5.3-1.8.3-3.9.5-5.6a45.7 45.7 0 0 1 1-4.8c.9-1.6 2.7-.8 3.2-.7a9.4 9.4 0 0 1 3.6 1.8c4.1 2.8 8 5.9 11.9 8.9l6.1 4.8c-3.6-7.6-4.1-8.2-4.8-9.4-2.1-4.8-4.6-9.4-5.3-14.6-.5-3.2-1.1-5.7 4-6.3a59.3 59.3 0 0 1 8.4.2l4.7.5c-1.5-3.9-2.9-7.7-4.2-11.5s.9-4.7 4.1-4.5a25.6 25.6 0 0 1 5 .2l3.4.4c1.8.2 3.6.3 5.3.6 5.9.5 7.9.9 12.6 1.6-2.2-1.1-2.9-1.3-4-2a65.3 65.3 0 0 1 -17.1-12.3c-2-2.1-2.1-2.8-1.6-4.9s11.7-3.8 18.5-4.4l-4.6-3.1c-2.1-1.6-4.5-2.9-6.4-4.8s-1.7-3.5.1-4.6" fill="#f58220"/><path d="m87.8 104.5c9.4 3.4 2.7 13.5-5.8 18.5 4.8.1 5.4.1 7.9.6 4.7.9 6.5 3 4.8 7.8-.5 1.4-1.1 2.7-1.8 4.5a56.5 56.5 0 0 0 10.2-6.6 43.1 43.1 0 0 1 -3.5-11.1c-.8-4.3-1.4-8.7-1.8-13.1a32.9 32.9 0 0 1 .3-7.7 96.4 96.4 0 0 1 2-13.1 72.6 72.6 0 0 1 50.2-51.6 86.1 86.1 0 0 1 17.5-2.7 82.2 82.2 0 0 1 17.8 1.5 71.8 71.8 0 0 1 22.2 8.7l2.5 1.3c3.8-1.3 8.4-2.6 14.6-4.4-.8-1.7-.6-2.1-.3-3.8-8.2 3.7-12.1 4-14.8 2.9s-2.7-7.1-1.7-10.9a54.6 54.6 0 0 1 2.8-7.8c-3.3 3.8-4.2 4.8-5.4 5.7-4.1 3.3-7 6.2-10.1 4.8s-2.5-17.9-1.9-25.5c-3.2 7.7-5 11.2-7.2 15.7a41.5 41.5 0 0 1 -5.5 7.7c-1.4 1.7-2.6 1.4-4.1.1-3.1-3.4-4-7.2-5.4-11.3-1.2 3.6-1.6 5.8-2.8 7.9a5.6 5.6 0 0 1 -8.6 1.7c-3.5-2.7-5.8-6.4-7.7-10.3s-2.3-5.2-3.4-7.3c-.5 3.9-.9 8.1-1.6 11.9a60.1 60.1 0 0 1 -2.3 8.3 2.2 2.2 0 0 1 -2.9 1.5 32.2 32.2 0 0 1 -5-2.3c-1.1-.6-2.9-2.9-3.8-3.6.7 3.6 2 10.6-.7 12.7-6.2 4.8-21.8-10.3-25.7-13.3 2.7 6.9 10.9 19.8 8.3 26.5-2.1 3.8-9.3 2-14.7-.2 3.2 4.1 6.7 9.2 5.1 12.1-4.7 6.4-22.6-.9-28-2.5 2.9 2.4 6.4 4.3 9.1 6.2s8 5 10.9 9.5-6 7.7-10.8 8.1c4.7 1.5 8.9 4.5 8.5 6.8-1.1 6.7-12.5 8.1-25.9 9.8" fill="#f58220"/></svg>