<svg viewBox="0 0 153.8 108.7" xmlns="http://www.w3.org/2000/svg"><path d="m89.4 10.9-7.5 8c12.4-5.6 39.2-15.5 39.2-15.5l-8.6 8.6c23.5-7.9 41.3-12 41.3-12a196.6 196.6 0 0 1 -12.7 24l11.2-1.9s-8.7 14.6-18.8 25.2l5.7 1.1a158.9 158.9 0 0 1 -20.4 23.5c-16.7 15.3-25.3 13.5-25.3 13.5-12.5 9.4-22.5 5.5-22.5 5.5s4.3-10.8-.2-11.7-10.1 2.6-10.9 3.9a46.7 46.7 0 0 1 -7.5 13.8 45.1 45.1 0 0 1 -13.9 11.8 17.1 17.1 0 0 1 -5.9-12.6 23.4 23.4 0 0 1 -10.4 5.9c-4.5 1.2-10.7.7-17-4-4.3-3.3-5.2-14.8-5.2-14.8a55.2 55.2 0 0 1 11.6-14.4 9.5 9.5 0 0 1 -3.1-4.2c20.4-9.6 20.4-17.9 36.5-28.8s26.1-15.7 44.4-24.9" fill="#bacad3"/><path d="m79.5 18.4-6.4 6.8c12.7-6 39.5-16.3 39.5-16.3l-7.8 7.8c27.5-9.6 44.9-13.3 44.9-13.3a164 164 0 0 1 -13.1 23.4l11.3-1.8a138.4 138.4 0 0 1 -18.8 24l6.4.9a123.5 123.5 0 0 1 -18.6 20.8c-15 13.7-21.8 12.5-21.8 12.5a7.3 7.3 0 0 0 .1-1.3 4.1 4.1 0 0 0 -.1-.9c-11.6 11.3-21.3 8.1-21.3 8.1s4.2-10.3-2.4-12-13 3.1-13.6 5.3-3.9 9.2-7.1 13.2a41.6 41.6 0 0 1 -11.7 10.3s-5.7-3.9-3.8-16.3c.4-2.7-.2-3.7-.4-4.1s-8.2.5-9.9 4.5 5.9 4.8 5.9 4.8a19.1 19.1 0 0 1 -9 5.1c-3.7.9-9.3 1-15.2-3.7-3.5-2.7-4.3-12.6-4.3-12.6a56 56 0 0 1 12.6-14.9 8.8 8.8 0 0 1 -3.2-3.4c16.9-7.9 19.1-18 38.2-30.2a292.3 292.3 0 0 1 29.6-16.7" fill="#004d55"/><path d="m124.8 50.6a27.1 27.1 0 0 1 5 1c-5.8 9.4-23.1 28.2-32.8 29.5a6 6 0 0 0 -1.5-3.8c-3.6 6.6-14.7 11.1-19.4 10.4 5.5-20.3-18.3-11.5-20.1-5.9a42.1 42.1 0 0 1 -16.6 21.7s-3.9-4-2.3-13.7c1.2-7-3.4-6.6-3.4-6.6-1.9 0-8.8 1.2-11 6s4.4 6.2 4.4 6.2-8.8 7.4-19.3-.6c-2.5-2.1-3.6-10.9-3.6-10.9a58.4 58.4 0 0 1 14.3-15.7c-2.9-.9-3.8-2.3-3.8-2.3 13.8-6.9 19.2-17.5 31-25.7a178.4 178.4 0 0 1 23-13.7l-3.7 4.8 4.5-2.2c12.4-6.5 33.4-14 33.4-14l-6.5 6.4s10.9-4.1 24.6-7.6l22.6-5.8a95.8 95.8 0 0 1 -11.1 21.1l9.5-1s-5.2 10.7-17.2 22.4" fill="#000114"/><path d="m68.1 39.6-.5.2.4-.2z" fill="#000114"/><path d="m84.1 62.9s-6.7-2.9-17.2 1c0 0 14.5-9.1 32.8-6.5a47.6 47.6 0 0 0 -28.9 1.6 48.7 48.7 0 0 0 -5.9 2.8 32.2 32.2 0 0 1 2.7-1.8 80.6 80.6 0 0 1 15.9-9.5c4.1-1.8 12.1-4.3 15.4-4.7a48.9 48.9 0 0 0 -16.2 1.3s12.2-5.2 24-6c4-.3 13.1-.3 13.1-.3-13.1-3.1-26.7-3.1-35.9-1.3-5.3 1.5-9.5 3-9.5 3l2.2-1c3.3-2.1 16.9-10 42.3-15.1a71.5 71.5 0 0 0 -7.2 0 103.8 103.8 0 0 0 -12.1 2c5.9-2.9 16.8-5.9 30.3-7.9 0 0-20.7-1.3-45.6 7.5l-.3.2s2.5-2 5.6-4l5.3-3.9s-12.8 3.6-30.1 12.5l-7.5 3.9c.8-.8 4.2-4 5.1-5.1-12.9 6.8-17.5 11-25.1 19.3s-6.5 8.6-16.8 14.5a18.4 18.4 0 0 0 15.3-2.6 20.8 20.8 0 0 0 3.8-3.5c2.7-3.2 1.8-6.3 5.4-8.7a13.9 13.9 0 0 0 -1.4 4.2 35.9 35.9 0 0 1 8.9-8.1c9.8-6.1 16.3-7.4 16.3-7.4l-.8.3c-13.3 6.1-15.4 13.2-15.5 13.9s4.8-2.2 8.9-2.9a17.7 17.7 0 0 0 -9.6 9.6c-.8 1.7-1 3.7-3.1 5.3a7.2 7.2 0 0 1 -2.4 1.6c-2.8 1.4-4.8.9-5.4.5a1.5 1.5 0 0 1 -.6-.7 6.5 6.5 0 0 0 4.8-1.2 6.7 6.7 0 0 0 2.7-2.9 3.1 3.1 0 0 0 0-3 2.5 2.5 0 0 0 -2.1-1 11.6 11.6 0 0 1 2-3.2 22.5 22.5 0 0 0 -3.9 4.1 2.7 2.7 0 0 1 2.2 1.1c.9 1.4.1 3.6-1.8 4.7s-4.3 1.1-5.2-.3-.2-.3-.2-.5h-.4l-1.8.9h1.9c.2 2 1.5 5.3 8.9 3.1-2.1 2-7.2 2.2-10.3.8l1.5.9c9.3 5.1 20-.7 22.6-2.3l2-1.2a23.2 23.2 0 0 0 -4.5 6.2c3.2-4.2 12.7-11.1 25.4-10.2" fill="#fff"/><path d="m50 55.7c.3 1.3 2.7-.2 2.7-.2a20.5 20.5 0 0 0 -4.5 5.7 3.4 3.4 0 0 1 -.4 1.6h.9a8.3 8.3 0 0 0 1.8-.8 4.6 4.6 0 0 1 -1.8 3.4c2.1-1.6 2.3-3.6 3.1-5.3a17.7 17.7 0 0 1 9.6-9.6c-4.1.7-9 4.5-8.9 2.9s2.2-7.7 15.5-13.8l-.5.2c-12.2 5-18.5 12.4-17.5 15.9" fill="#bacad3"/><path d="m44.9 61.4c.6 1 0 2.5-1.4 3.4s-3.1.8-3.7-.2a1.7 1.7 0 0 1 -.2-.5l-.8.6c0 .2.1.3.2.5s3.2 1.6 5.2.3 2.7-3.3 1.8-4.7a2.7 2.7 0 0 0 -2.2-1.1l-.8.9a1.8 1.8 0 0 1 1.9.8" fill="#004d55"/><path d="m43.5 64.8c1.4-.9 2-2.4 1.4-3.4a1.8 1.8 0 0 0 -1.9-.8 17.1 17.1 0 0 1 -1.9 2.1 2.1 2.1 0 0 0 .9 1.8 2.8 2.8 0 0 1 -1.4-.2 1.2 1.2 0 0 1 -.5-.6l-.5.4a1.7 1.7 0 0 0 .2.5c.6 1 2.3 1 3.7.2" fill="#000114"/><path d="m40.6 64.3a2.8 2.8 0 0 0 1.4.2 2.1 2.1 0 0 1 -.9-1.8l-1 1a1.2 1.2 0 0 0 .5.6" fill="#fff"/><g fill="#bacad3"><path d="m119.8 40.8s-9.1 0-13.1.3c-11.8.8-24 6-24 6a48.9 48.9 0 0 1 16.2-1.3c-3.3.4-11.3 2.9-15.4 4.7a80.6 80.6 0 0 0 -15.9 9.5c6.8-4.3 26.3-14.6 51.1-10.7a55.5 55.5 0 0 0 6-6.1c4.5-5.1 5.4-8.1 5.4-8.1s-21-1.2-36.3 1.9c-3.3.7-6.8 1.6-9.9 2.5 9.2-1.8 22.8-1.8 35.9 1.3"/><path d="m71.3 67.5c17.2-5.1 29.2-.7 30.7 4.6v-.2a27.9 27.9 0 0 0 7.4-5.6c4.2-4.3 6.8-7.6 7.9-9.9-17.6-7.6-37-1.5-46.5 2.6a47.6 47.6 0 0 1 28.9-1.6c-18.3-2.6-32.8 6.5-32.8 6.5 10.5-3.9 17.2-1 17.2-1-12.7-.9-22.2 6-25.4 10.3a10.1 10.1 0 0 0 -.7 1.5c2.9-2.8 6-5.1 13.3-7.2"/><path d="m129.9 20.5c-13.5 2-24.4 5-30.3 7.9a103.8 103.8 0 0 1 12.1-2 71.5 71.5 0 0 1 7.2 0c-25.4 5.1-39 13-42.3 15.1a111.5 111.5 0 0 1 21.1-7.2c9.9-2.4 21.4-3.4 26-4.1a39.2 39.2 0 0 0 9.1-14.4s-11.5 1.5-24.5 4.4a146.3 146.3 0 0 0 -24 7.8c24.9-8.8 45.6-7.5 45.6-7.5"/><path d="m61.6 74.7a16.8 16.8 0 0 1 11.7-2.7c10.9 1.2 10.7 7.8 10.7 7.8s4.9-2.3 7.3-6.6a17.7 17.7 0 0 0 -8.6-3.3c-14.6-1.8-21.1 4.8-21.1 4.8"/><path d="m32.1 72.1c-2.2-.1-3-.5-3.8-1.1l-3.3 1.8c-1.1 1.7 1.3 1.3 2.3.9zm24.2.9a15.2 15.2 0 0 0 -1.4 4.1 38.5 38.5 0 0 1 -15 23.2c-2.2-4.6-1-9.2-.7-10.9a8.6 8.6 0 0 0 -1.1-6.6c7.7-.1.2 9.6 3.1 13.5 5.2-3.2 8.2-13.6 9-17.3a2.8 2.8 0 0 0 -1.4-.8c-7.5-2-19.9.6-24.4 3.5-14.1 9-.8 14-.8 14s-8.7 3.2-13.7-4.1c-1.2-2-1.6-5.6-1.9-8.5 5.2-8.7 13.3-12.5 15.5-14.1a18.6 18.6 0 0 0 8.3-.5s9.5 11 24.5 4.5z"/></g><path d="m25 72.8c-1.1 1.7 1.3 1.3 2.3.9l4.8-1.6c-2.2-.1-3-.5-3.8-1.1z" fill="#000114"/></svg>