<svg viewBox="0 0 221.9 211.3" xmlns="http://www.w3.org/2000/svg"><path d="m205 85s13-2 15.4-14.2-6-22-20.9-28.7c-21.6-9.9-47.6-19.3-102.3-31.5-29.6-6.6-37.8-8.7-37.8-8.7l-58.3 62.2 50-1.6s-16.5 25.2-13.8 66.6 20.4 62 34.3 71.2c9.4 6.3 22.4 9.1 22.4 9.1s-6.7-9.5-4.7-21.3 6.7-18.1 10.2-24.4 26.4-51.2 26.4-51.2 8.3 0 11.8.4 5.9 2 5.9 4-2.3 4.7-2.3 4.7 11.8.8 27.1-5.1 20.5-15.8 20.5-15.8a111.7 111.7 0 0 0 -14.6-14.5 170.5 170.5 0 0 0 -14.1-10.3h34.6s6.7 0 9.1 2 1.1 7.1 1.1 7.1z" fill="#dce0e5"/><path d="m208.8 80s7.5-2.3 8.4-10a18.4 18.4 0 0 0 -5.7-15.5c-2.3-2.4-12.8-9.9-31.1-16.4-15-5.3-38-11.4-79.1-20.6-26.7-6.1-38-6.9-38-6.9l-42.9 46.2 44.3-.2s-18.3 22.5-19.9 67c-2.4 66.9 42.9 81.1 42.9 81.1a31 31 0 0 1 -3.1-17c1.1-9 5.1-16.1 9.4-24s28-54.7 28-54.7h16.5c3 0 7.1 1.6 8.7 3.7a4.3 4.3 0 0 1 .7 4s11.5.8 19.1-2.6a47.3 47.3 0 0 0 17.2-12.4 93.1 93.1 0 0 0 -19.5-16.7c-11.6-7.3-21.5-12.2-21.5-12.2h54.9s6.7 0 8.7 1.7 2 5.5 2 5.5z" fill="#fff"/><path d="m211.1 75.1s3.6-1.9 3.6-7.8-4.3-9.9-7.9-12.4-11.2-7.3-23.8-11.5-39.2-10.6-62-15.3-60.1-10.8-60.1-10.8l3.4 4.9-24.6 26.4 87.4 6.8-.8 1h-58.5l4.4 4.4-9.5 16.7 49.2-10.2-1.4 1.3-57.4 19.5 4.9 3.2s-1.8 3.3-3 10.4-1.9 13.8-1.9 13.8l49.2-30.1-.2 1.1-54.3 43.4 5.1 1.3a122.7 122.7 0 0 0 1.2 14.8c.9 5.5 2.5 11.8 2.5 11.8l44.5-52.4v1.8l-43.9 64.6h4.3a55.2 55.2 0 0 0 7.9 14 76.9 76.9 0 0 0 13.6 12.8s-3-6.2-1.8-16.6c.8-6.7 7.5-17.7 10.6-24l43.4-85.6-7.7-4.2h74.6s4.5.6 6.7 2.4a7.2 7.2 0 0 1 2.3 4.5z" fill="#161413"/><path d="m211.7 70.2a10.2 10.2 0 0 0 -.8-6.9c-1.7-3.1-5.7-5.3-5.7-5.3l.8 3.9-20.5 2.6-.7 1.2h19.8a10.3 10.3 0 0 1 4.4 1.5 7 7 0 0 1 2.7 3z" fill="#fff"/><path d="m202.1 59.8a21.6 21.6 0 0 0 -5.7-5.1c-3.6-2.2-9.9-5.2-9.9-5.2a69.4 69.4 0 0 1 6.5 6.2 20.5 20.5 0 0 1 2.8 3.9z" fill="#fff"/><g fill="#b01742"><path d="m178.7 53.3s-26.3-7.1-56.7-13-53-9.5-53-9.5l-6.9 8.1 116.4 15.8z"/><path d="m108 62.1-31.5.6-4 7.1 35.1-6.7z"/><path d="m97.3 80.5-34.2 12.3-2.3 9.1 35.9-20z"/><path d="m92.4 103.6-33.1 28a53.1 53.1 0 0 0 .4 5.4c.3 1.8.8 4 .8 4l32-35.9z"/><path d="m98.4 126.1s-9.5 14.1-16 24-12.9 19.5-12.9 19.5 1.5 3 2.5 4.5 2.5 3.6 2.5 3.6l24.6-50.7z"/></g><path d="m137.9 73.9s17.4 8.6 26.8 14.9a103.7 103.7 0 0 1 15.7 13.1 22.1 22.1 0 0 1 -6.7 6 26.2 26.2 0 0 1 -9.6 3.8s3.7-3.3 4-5-.4-2-1.4-2h-10.8a4.8 4.8 0 0 0 -1.7 3.9 8.1 8.1 0 0 0 1.4 4.3 10.8 10.8 0 0 1 -5.9-3.3c-2.4-2.9-2.4-4.9-2.4-4.9h-22.5l14.1-27.7z" fill="#161413"/><path d="m135.5 95.9 25.1 3.8-.5 1.2h-27.3z" fill="#b01742"/></svg>