<svg viewBox="0 0 166.8 131" xmlns="http://www.w3.org/2000/svg"><path d="m162.1 1.7h-24.8v58.9c0 1.4-.4 8.5-6.3 8.5a4.9 4.9 0 0 1 -3.8-1.3c-1.8-1.9-2.2-5.5-2.2-6.7v-59.4h-40.4v24h4.6c4.2 0 5.6 1.1 6 1.5a2.2 2.2 0 0 1 .4 1.4v40.6c0 7.7 2.5 14.3 7.3 19.1s12.2 7.7 20.2 7.7a33.2 33.2 0 0 0 14.3-3.2v1.8c0 4-.1 7.4-.8 8.2s-1 .6-5.2.6h-119.6v27.6h128.6c9.5 0 16.6-2.7 21.2-8s5.2-11.7 5.2-15v-106.3z" fill="#b21e35"/><path d="m11.8 94.3h28.6v-61.7a5.6 5.6 0 0 1 1.1-4c1.3-1.4 3.7-1.7 5.6-1.7s3.4.4 4.4 1.4a6.3 6.3 0 0 1 1.5 4.4v46.3c0 .7-.1 7 4.1 11.5a13.2 13.2 0 0 0 9.9 3.8h24.6v-24.3l-5.3.7a4.9 4.9 0 0 1 -3.5-.8 4.7 4.7 0 0 1 -1.1-3.3v-43.4c0-.4.4-9.7-6.1-16.5-4.3-4.4-10.4-6.7-18-6.7a31.2 31.2 0 0 0 -17.6 4.9v-3.2h-40v25.1l5.6-1.2c1.1-.2 3.8-.3 5.1.8s1.1 2.5 1.1 3.9z" fill="#b21e35"/><g fill="#25316a"><path d="m98.1 69.2c0 7 2.3 13 6.6 17.3s11 7 18.4 7a29.9 29.9 0 0 0 16.8-4.9v6.1c0 5.3-.2 8.6-1.5 9.9s-2.9 1.3-7 1.3h-117v22.5h126c8.7 0 15.2-2.4 19.3-7.1a20 20 0 0 0 4.7-13.2c0-.9-.1-1.5-.1-1.8s-.1-102.1-.1-102.1h-24.4v56.4c0 .4-.1 11.1-8.8 11.1a7.5 7.5 0 0 1 -5.6-2.1c-3-3.1-2.9-8.5-2.9-8.6v-56.8h-35.4v19h2.1c3.9 0 6.6.8 7.9 2.5a4.5 4.5 0 0 1 1 3.6z"/><path d="m14.4 91.8h23.5v-58.8a8.2 8.2 0 0 1 1.7-6c1.5-1.7 4-2.6 7.5-2.6a8.5 8.5 0 0 1 6.2 2.2c2.3 2.4 2.3 6.2 2.3 6.2v46.2c0 .2-.2 5.9 3.4 9.6a10.6 10.6 0 0 0 8.1 3.1h22v-18.8l-2.4.3s-3.4.5-5.6-1.3-1.8-2.9-1.8-5.3v-43.6a20.8 20.8 0 0 0 -5.6-14.5c-3.8-4-9.2-6-16.1-6-10.3 0-16.6 4-20.1 7.7v-6h-35v19.5l2.6-.5s4.6-1 7.2 1.3 2.1 3.1 2.1 5.8z"/></g></svg>