<svg viewBox="0 0 358 278" xmlns="http://www.w3.org/2000/svg"><path d="m290.1 183.6s24.4-6.8 36-26.3c13.7-2.8 28.1-18 28.1-31.4a28.6 28.6 0 0 0 -12.6-24.2s-4.6-12-22.2-23.4c0 0 4.9-5.6 4.9-12s-4.9-10.2-13.6-16.6-17.2-9.5-27.9-16.2-34.5-18.1-49.8-21.5-24.7-4.4-33.3-4.4c-17.7 0-24.3 2.8-24.3 2.8s-5.4-2.3-17.3-2.3-19.2 1-44.7 7.9-45.1 11.7-65.8 13-30.2 2.4-36.6 2.4-7.4 8.9-7.4 11.6c0 17.3 22.7 40.1 34.8 46.6a86.4 86.4 0 0 0 -1.1 12.3c0 5.8 1.8 28.8 21.1 51 25.7 27.2 50.9 30.8 68 41.9s22.9 23.1 31.9 36.8c13.7 23 36.9 38.7 62.1 38.7 40.8 0 59.3-39.8 59.3-48.3 0-5.6-6.8-6.8-6.8-6.8s5.3-16.3 1.1-31.4a129.2 129.2 0 0 1 -14.2 19.1s-10.6-9.2-8.5-19.5a42.5 42.5 0 0 0 16.3-10.2s11.7-2 20-11.1a26.4 26.4 0 0 0 2.8 3.9l5.4-4 .3 5.3 2.4-.6c.3.1-1.2 7-8.4 16.9z" fill="#231f20"/><path d="m249.1 211s1.6-5.6-5.8-10a23.9 23.9 0 0 1 .5 6.8z" fill="#185465"/><path d="m284.4 113c8.4-.5 19.2 1.8 18.9 10.2a68.8 68.8 0 0 1 5.5 9.7 29.7 29.7 0 0 0 8.8-12.9c-21.9-10-28.6-10.5-33.2-7z" fill="#185465"/><path d="m270 111.2 17 13.9-23.5 8.7s1.9-5.6.4-6.3c-17-9.4-45.9-17.8-75.2-23.4s-44.7-6-44.7-6l9.9 2 10.2 4.1-34.8 2.5v7.3l-10.6 1c-2.4-5.3-5.1-3.5-8.3-5.7a10.4 10.4 0 0 1 -4.1-6.1c-.3-1.3-1.9-1.2-4.8-2s-4.1-.2-4.8.9 2.6.9 2.6.9-6 1.6-6 1.6v.4l2.8.5c-.8.9-1.5 4.1.4 5.8s4.2.1 4.2.1-1.3 1.8-.8 2.4-1.5 2.5-1.5 4.4c0 3.5 4.4 5.3 4.4 5.3l-19.3 7.8-1.7 3.1s.2 2.8-1.7 3.9-2 2-2.6 2.6-7.1 5.5-7.1 5.5c-4.9-5.1-6-7.5-6-7.5a10.5 10.5 0 0 0 3.7-7.5l-3.2-.5c3.7-2.3 4.1-4.1 4.1-4.1s-2.1.3-2.1.3c-.7-3.5-3.1-3.7-3.9-6.1s-4.2-1.7-4.2-1.7a11.7 11.7 0 0 1 2.6-2.4c1.1-4.5 2.3-4.7 2.3-6.3 0-3.3-6.2-3.9-6.4-3.2s1.3 1.6 1.3 1.6a17.6 17.6 0 0 0 -5.5 2.6c-2.6-19.8.9-23.5.9-23.5 17-.6 25.3-9.4 25.3-9.4l-7.9.3-6.4-3.3 14-4.8c22.3-.5 38.5-15.8 38.5-15.8s-13.1 8.1-27.3 8.1c-10.8 0-23.4-4.1-33.9-12.8l-.4-1.7c2.6-.4 2-1.8 3.1-3.1s2.9-.5 2.8-1.1-1.3-.6-1.3-.6v-.9s3.8 0 3.8-1.7-2.6-.2-6.2-2l-2-4.5c14.7-.8 31.7-5.5 31.7-5.5a6 6 0 0 0 4.1 3l-2.3 1.4a11.6 11.6 0 0 0 3.2.2 10.2 10.2 0 0 1 3.4-.5c1.7.1 4 .3 3.6-1.1s-3-2.3-3-2.3l.2-.6 3.8 1a4.3 4.3 0 0 1 .1-4l32.3-7.3s2 4.8 5.6 4.7c5.7-.8 5 1.3 7.8 1.5a27.8 27.8 0 0 1 -3.4-5.2l.5-.3 3.5 2.8c3.5-2.9 7.6-1.4 7.8-2s-1.9-2.2-1.5-2.6 2.9 2.3 3.5 1.8-1.1-4.3-1.1-4.3c10.9-.7 27.9 1.2 27.9 1.2l.2.6c-3.2.7.5 4.2.5 4.2l-.9.3s-2-2-2.8-2-1.6.8-1.6 2.1 2.9 3 4.8 3a6.5 6.5 0 0 0 3.5-1.1c0 .8 5.1.5 4.8-.8s-3-3.5-3-3.5l5.4 2.6 2-3.2a167.1 167.1 0 0 1 21.8 5.8 7.9 7.9 0 0 0 -3.7 1.4c-1.1.6 0 2.2 0 2.2a1 1 0 0 0 -1.5.4 4.4 4.4 0 0 0 4.4 2.5l-.6-1.4a2.2 2.2 0 0 1 2 1.4l4-.2a6.6 6.6 0 0 1 3.9 1.5l-.4-1.3 1.4-1.8 1 1.3h2.6l2.7 2.4.4-2.2a2.5 2.5 0 0 0 1.4 1.3 6.6 6.6 0 0 1 1.8-1.5c-.5-1.5 2.9-3.6 2.9-3.6.5-3.5-4-3.9-5.1-3.7s-.2 1.5-.9 1.7-.8-1.7-1.3-1.6-.3 1.5-.3 1.5-2.3-.2-2.9.3a20.1 20.1 0 0 0 -2.4 3.2l-13-6.6 3.6-1.4.7.8c1.4-7.1-7.1-6.5-7.6-6.3s1.1 3.5.3 3.7-2.3-2.4-2.9-2.4-3.6 2-3.6 2c-3.1-1.7-11.8-3.2-11.8-3.2a58.1 58.1 0 0 1 12.7-1.4c22.9 0 40.6 8.2 46.1 10.7s5.7 4.5 5.7 4.5a15 15 0 0 0 -2.4-1c-.2 1.6 9 5.3 9 5.3-2.1-2.3-1.5-3.4-1.5-3.4 2.6 3 3.9 1.9 4.7 2.3l31.1 16.7c2.9 1.7 3.2 3.5 2.3 3.8s-1.9-1.7-1.9-1.7-1.2 3.8-.4 4.1 0-.8 1.1-.6.8 1.1 2.7 1.5a17.8 17.8 0 0 1 3.9 1.7l.2-2 3.1 3.8c4.3-.3 7.2 3.5 7.2 7.8a8.2 8.2 0 0 1 -2.7 6.3c-16.7-12.1-29.7-15.9-29.7-15.9 9.2 4.7 25.2 18.3 30 23.9s5.7 7.2 5.7 9.9-1.7 4.5-1.7 5.7a2.2 2.2 0 0 0 2 2.4c2.2 0 6.1-5 6.1-5s7.2 5.1 7.2 11.5-8.1 3.9-14.6 9.5a144.4 144.4 0 0 0 -35.6-9.1c-17-1.9-26.8-.8-26.8-.8z" fill="#c8932b"/><path d="m57.9 52.1c10.1 7.6 21.8 11.2 31.9 11.2 14.2 0 27.3-8.1 27.3-8.1s-16.1 15.2-38.5 15.8l-14 4.8 6.3 3.3 7.9-.3s-8.2 8.7-25.3 9.4c0 0-3.5 3.7-.9 23.5a17.6 17.6 0 0 1 5.5-2.6s-1.5-.8-1.3-1.6 6.4-.2 6.4 3.2c0 1.6-1.2 1.8-2.3 6.3a11.7 11.7 0 0 0 -2.6 2.4s3.4-.8 4.2 1.7 3.2 2.6 3.9 6.1c0 0 1.4.6 2.1-.3s-.4 1.9-4.1 4.1l3.2.5a10 10 0 0 1 -3.7 7.5s1.1 2.4 6 7.5c0 0 6.5-4.8 7.1-5.5a6.8 6.8 0 0 1 2.6-2.6c2-1.1 1.7-3.9 1.7-3.9l1.7-3.1 19.3-7.8s-4.4-1.7-4.4-5.3c0-1.9 2-3.8 1.5-4.4s.8-2.4.8-2.4-2.3 1.7-4.2-.1-1.2-4.9-.4-5.8l-2.8-.5v-.4s4.8-.4 6-1.6-3.2.2-2.6-.9 1.8-1.7 4.8-.9 4.5.8 4.8 2a10.4 10.4 0 0 0 4.1 6.1c3.2 2.1 5.9.4 8.3 5.7l10.6-1v-7.3l34.8-2.5-10.2-4.1-9.9-2s15.4.4 44.7 6c6.3 1.2 12.5 2.5 18.7 4a129.4 129.4 0 0 0 -11.3-10.6 415.5 415.5 0 0 0 -53.1-10.7s16.6.5 47.1 6.8c-10.6-8.6-19.5-11-19.5-14.9s4.9-6.4 4.9-6.4l7.2-5.7 15.9-6.1-.5-4.6 1.2-1s-1.2-3.1 2.4-2.8l.2-.3s-14.5-5.5-48.6-5.8l3.5 3.5a38.7 38.7 0 0 1 -6.9-.3s-1.3 2.8.8 6.8l-3.6-.3 4.9 2.5a3 3 0 0 0 -3.2 3c.1 2.7-4.2 2.8-4.2 2.8l.5 1.7-2.9-1.3 1.7 2.1c-7.9.5-10.3-1.3-8.6-3.7.7-.9.1-2-1.4-3.3v-1.5l4.9.8a17.5 17.5 0 0 0 -4.9-2.5c.5-2.1 2.2-1.1 3.3-4a25.2 25.2 0 0 1 3.9 1.2s-.8-1.6-5.2-2.8l4-.4a1.6 1.6 0 0 0 1.6-1.6c-16.2 1.2-32.3 6.1-42 8.6l3.3-3.6s-10.3 2.9-19.4 2.9-16.8-2.5-25-4.6z" fill="#8a6728"/><path d="m286.9 107-3.5-.4a153.9 153.9 0 0 0 -25.1-.9l-1.5-.7s-4.4-6.9-12.4-8.8a59.9 59.9 0 0 1 18.1-2.8c10.2 0 16.6 3.4 21 3.4s3.3-2.5 3.3-2.5c2.2 2 .7 5.3-4 5.5a14.4 14.4 0 0 0 4.1 7.2z" fill="#8a6728"/><path d="m315.5 62.5a8.8 8.8 0 0 1 1.3 4.6 8.2 8.2 0 0 1 -2.7 6.3c-4.5-3.3-8.8-5.9-12.5-8.1 8.1.8 11.6.3 13.9-2.8z" fill="none" stroke="#231f20" stroke-width=".1"/><path d="m171.3 136.4c19.7 7.8 17.3 27 18.3 38.9.2 21.8 3.7 34.7 23.3 44.6 0 0 15.9-8.5 20.6-23.3-10.5-7-9.9-19.1-9.9-25.3 0-16.6-3.7-29.4-22.2-32.6 12.8 8.8 13.2 37.6 13.2 41.5 0 13.2 3.9 19.3 3.9 19.3s-6.6-1.9-8.5-23c-1-36.8-22.6-44.8-38.7-40.1z" fill="#185465"/><path d="m230 86.8a43.6 43.6 0 0 1 19.3-5 103.7 103.7 0 0 1 22.1 2.7s2.8-2.9 2.8-9.1c0-10-8.9-16.2-8.9-16.2a23 23 0 0 1 2.7 10.6c0 7.2-6 10.4-12.8 10.4-10.2 0-18.6-5.6-18.6-5.6l-13.4-5.5-2.7-5 .3-4.6a5 5 0 0 1 2.5-2l-.3-1.6 1.4 1.3s4.2-1.4 4.2-4.6-2-2.9-3.4-2.9-1.8.6-2.9.6-.8-1.1-2.7-.1-8 3-8 3-3.3 1-4.8-1.3a5.1 5.1 0 0 0 -4.6-2.4c-2.8.5-.3 2.1-.3 2.1l-.2.3s-2.9-.5-2.5 2.3l-2.9 8.7-15.6 4.1-5.7 5.8v.5a37.7 37.7 0 0 1 14.3-1.7l5.7 7.9 11.7 6.5 9.6 2.5 6.4 2.4s7.8 3.6 19.1 14.9c.2.1.1-6-11.8-19z" fill="#231f20"/><path d="m222.9 57.8a6 6 0 0 0 -2 1.8l-.3 4.6 2.7 5 13.4 5.5s8.4 5.6 18.6 5.6c3.8 0 7.4-1 9.8-3.2a16.3 16.3 0 0 1 -6.5 1.2c-4 0-7.2-1.5-15.3-7.7s-15.2-10.7-20.4-12.8z" fill="#8a6728"/><path d="m270.8 65a18.7 18.7 0 0 1 3.4 10.5c0 6.2-2.8 9.1-2.8 9.1a103.7 103.7 0 0 0 -22.1-2.7 43.6 43.6 0 0 0 -19.3 5s10.1-.4 12.8 9.7c0 0 15.4-10.6 38.5-9.5-.6-8.3-5.5-16.3-10.5-22.1z" fill="#8a6728"/><g fill="#231f20"><path d="m286.9 94.3s.5 2.5-3.3 2.5-10.8-3.4-21-3.4a59.9 59.9 0 0 0 -18.1 2.8l-.8-.2a57.6 57.6 0 0 1 11.5-5.2c9.8-3.3 25.9-2 31.7 3.5z"/><path d="m196 97.4a415.5 415.5 0 0 0 -53.1-10.7s16.6.5 47.1 6.8c25.6 4.8 60.3 16 72.7 23.2 1.5 1.6 1.4 1.4 1.4 2.8s-1.5 2-2.6 2-1.1.1-5.5-2.2-26.5-12.6-60-21.9z"/><path d="m285.2 49c-.1.3-.4.3-.6.5l-.9.4c-.6.1-1.3.1-1.6.7s.3.5.4.7a1.1 1.1 0 0 0 .6.7 4.7 4.7 0 0 1 1.4 1.4c-.4.1-.8-.3-1.2-.5s-.9-.2-1.1-.4.6 1.3 1 1.8a5.1 5.1 0 0 0 2.6 1.4l.7.2.9.2c.4.1.8.5 1.3.6h.7c.2 0 .7.2.8.1s-.2-.7-.2-.8a8.6 8.6 0 0 1 -.7-1c-.4-.7.1-.5.6-.3a5.7 5.7 0 0 1 1.3.8 4.1 4.1 0 0 0 1.5.7 3.5 3.5 0 0 0 -.3-2 8.1 8.1 0 0 0 -1-2.1 10.9 10.9 0 0 0 -1.7-1.3l-.9-.5c-.2-.1-.5-.3-.7-.2s-.2.3-.3.4-1-.2-1.2-.6a3.6 3.6 0 0 0 -.7-1z"/><path d="m270.8 36.9c0 .4.2 1.1-.1 1.4s-1.2-.1-1.7-.3-1.1-.6-1.3-.1.5 1 .6 1.4a1.3 1.3 0 0 1 .5 1.3.7.7 0 0 1 -.8-.2 3.5 3.5 0 0 1 -1.3-.8 2.6 2.6 0 0 0 .3.8 2.7 2.7 0 0 0 .7.8l1.5 1.2a2.6 2.6 0 0 0 1.8.9 8.4 8.4 0 0 1 2.7.4 2.4 2.4 0 0 1 1.3.9 3.5 3.5 0 0 0 1.1 1.3 10.1 10.1 0 0 0 2.1 1.5c.3.2 1.9.7 2 .1a1.4 1.4 0 0 1 -.5-.8 2.7 2.7 0 0 1 -.7-1.3c-.1-.4-.1-.4.3-.5s.5 0 .7.2a12.5 12.5 0 0 0 .8 1.2 2.9 2.9 0 0 0 1.2.7c.3-.4.1-.6.1-1s.1-.8-.1-1.1a1.5 1.5 0 0 0 -.6-.5l-.6-.2c-.3-.4.5-.6.7-.7a2.3 2.3 0 0 0 -.6-1.8c-.4-.3-1.1-.8-1.2-1.4s-.4.4-.7.6-.7-.1-1-.4-1.1-.8-1.5-1.3a2.2 2.2 0 0 0 -1-.9 3.3 3.3 0 0 0 -1.4-.1 3.1 3.1 0 0 0 -1.3.3c-.3.1-.7.2-.9-.1s-.2-.7-.4-1z"/><path d="m259.5 45.9.8.6c.2.1.5.5.7.5s-.7 1.1-1 1.4-1.1 1-.9 1.7a7.9 7.9 0 0 1 .4.9c.1.4 0 .8.1 1.2a3.6 3.6 0 0 0 1.4 1.6c.6.2.7-.4 1-.7s.7-.1 1 0l1.1.2c.2 0 1.6.1 1.1.6s-1.3-.2-1.7.2.5.4.7.5l.8.5a2.6 2.6 0 0 0 1.2.5 1.3 1.3 0 0 0 .9-.1l.8-.3h1.1a2.1 2.1 0 0 1 1.1.1l1.2.5a7.3 7.3 0 0 1 -.5-.9c-.1-.2-.3-.8-.2-1s.7-.3.8-.7-.2-.6-.3-.9a1.3 1.3 0 0 0 -.5-.9l-.7-.7a1.3 1.3 0 0 1 -.3-.5 3.9 3.9 0 0 0 -1.4-1.7 12.4 12.4 0 0 0 -2-1 3.7 3.7 0 0 0 -1.1-.5c-.3 0-.9-.1-1 .2s.4.6.4.9-.2.6-.6.5a7.8 7.8 0 0 1 -1.5-1l-1.1-.6-1.1-.8z"/><path d="m252.4 54.1c0-.1 0-.2-.1-.1-.3 0-.5-.5-.6-.7a2 2 0 0 0 -.6-.7l-1.8-1.2a5.7 5.7 0 0 1 -1.6-1.5 3.5 3.5 0 0 0 -.5-.8l-.9-.5c-.8-.2-1.8.5-2.4 1s-.8 1.1-1.3 1-1.5-.6-2.2-.7 1.4 1.1 1.9 2h.1c.1.3.3.7 0 .9s-.8 0-1.1-.2l-.5-.3-.5-.4a.6.6 0 0 0 -.8.5c0 .2.2.4.2.6v.6a1.1 1.1 0 0 1 -.3.8c-.2.3-.6.4-.6.9s.7.7 1.1.9.7.4.7.7.2.2.2.3-.9-.1-1.3-.2h-1.2c-.4.7 1.1 1.5 1.6 1.6a7.2 7.2 0 0 0 2.5.3l1.6.2a7.5 7.5 0 0 0 1.5 0 2.5 2.5 0 0 0 1.2-.4 1.8 1.8 0 0 0 .9-.8c.4-.6 1-1.1 1.5-1.7s1.2-1.1.7-1.8-.6-.4-.9-.7-.6-.7-.3-1 .8 0 1 0l1 .6a1.3 1.3 0 0 1 .6.4c.2.1.8.3.8.4z"/><path d="m240.2 38.2.5.3c.2 0 .6.5.7.6l.7.6.6.5c.2.2.6.2.7.5a3.5 3.5 0 0 1 1.3.5l1.3.5a10.9 10.9 0 0 0 3.6.6 1.3 1.3 0 0 0 -.3-1.3c-.3-.4-.8-.7-.8-1.2s1.7.7 2.2 1.2l2 1.7a1.7 1.7 0 0 0 1 .1c.4-.1.4-.3.7-.6s1.6-.5 2.4-.5a1.6 1.6 0 0 0 1.7-1.3 2.1 2.1 0 0 0 .1-1.1 4.1 4.1 0 0 0 -.5-.9l-1.1-1.1c-.4-.3-1.4-.6-1.6-1.1s.4-.6.8-.5.9.7 1.3.5-.5-.4-.7-.6l-.8-.7a2.5 2.5 0 0 0 -1.8-.8 7.8 7.8 0 0 0 -2.1.4c-.4.1-1.8-.1-2 .3s1.9 1.3 1.6 2-.9.3-1.2.2l-.6-.5a1.8 1.8 0 0 1 -.7-.5l-.9-.6-1-.5a4.2 4.2 0 0 0 -2.5-.2l-1.2.5-.9.8a4.5 4.5 0 0 0 -1.2.6c-.4.3.1.6.4.9a4.6 4.6 0 0 1 .7.7c.2.2.1.5.2.8a1.3 1.3 0 0 1 -1.4-.5z"/><path d="m219.6 37.5c.2-.1.9.3 1 .5s.7.4.8.7-1 1.1-1.4 1.3-1.3.5-1.5 1.1.6 1.2.7 1.7v.8a2.5 2.5 0 0 1 -1.6-.6l-1.3-.7c0 .6.8 1.2 1.3 1.4s.7.5 1 .7.7.6.6 1-.7.3-1.1.1-.7-.4-1.3-.3-.4.6-.2 1 .4.5.6.8a1.4 1.4 0 0 0 1 .7h3.9l1.1-.2 1.1-.5c.4-.1.5-.1.4-.4a2 2 0 0 0 -.4-.8c-.2-.4-1-.8-.9-1.2s.9.2 1.3.5l1.2.6a4.5 4.5 0 0 0 2.8-.3 11.2 11.2 0 0 0 2.2-1.6c.6-.5 1.6-.3 2.2-.8s-.2-1-.3-1.5.1-.5.5-.6h.6l.5.3c.4.1.4-.3.4-.6a4.1 4.1 0 0 0 0-1.1c-.2-.8-1.2-1.1-1.8-1.4l-2-.9a5.3 5.3 0 0 0 -2.5-.2c.3.2.3.4.5.6l.4.3c.1.4-.7.3-1 .2s-1.6-1.3-2.5-.7a3.1 3.1 0 0 0 -.9.7 2.5 2.5 0 0 1 -1.2.2l-1.2-.2-1.2-.2-.9-.2h-.9z"/><path d="m201.1 45.2c.1-.3-.3-.6-.4-.7a2.2 2.2 0 0 1 -.9-.7c-.3-.3-1.3-1.3-.7-1.8l.7-.3.5-.3.8-.5a10 10 0 0 0 1.4-1.5 6.1 6.1 0 0 0 .7-1 3.4 3.4 0 0 1 .8-.9c.8-.4 1.6.5 2.3.5a1.6 1.6 0 0 1 -.8-1.5 1.4 1.4 0 0 1 .7-.8l1.2-.7c1.3-.8 2.2-2.7.6-3.7a2.4 2.4 0 0 0 -2-.4l-.7.4a1.8 1.8 0 0 1 -1 .2 6.3 6.3 0 0 1 -2.4-.3l-1.4-.4a3.4 3.4 0 0 0 -1.7-.3c.1.2.3.2.4.3a.8.8 0 0 1 .2.5c.2.5 0 .7-.5.7s-1.7-.2-2 .7-1.4.8-2.5.8-.8-.1-.8.4.4.6.7.8 1.8 1 2.2 2.1-.3.6-.9.2l-1.7-1-2.7-1.3a3.1 3.1 0 0 0 -2.3.3 4.3 4.3 0 0 0 -1.7 1.3c-.3.5-.8 1.6-.6 2.1a4.7 4.7 0 0 0 1.8 1.9 3 3 0 0 1 .8.8c.1.2.4.7.3.9a1.9 1.9 0 0 1 -1.3-.2c-.2-.1-1.2-.4-1.2 0s.8.6 1.2.8l1 .4a1.4 1.4 0 0 0 1.1.4c-.4.7 2.1.6 2.5.6a4.9 4.9 0 0 0 2.1-.3c.3-.1.6-.1.7-.5a1.1 1.1 0 0 0 -.2-.8c-.1-.3-.3-.8 0-1s1 .5 1.2.7l1.6 1.3 1.4.8z"/><path d="m169.3 39.3c0-.4.2-.9.2-1.3v-1.2c0-.1-.1-.4 0-.5l.5-.3 1.1-.7a4.3 4.3 0 0 0 1.3-1.9 4.3 4.3 0 0 0 .5-2.5 6.7 6.7 0 0 0 -.6-1.2l-.6-.8a4.5 4.5 0 0 0 -2.3-.8 10.5 10.5 0 0 0 -2.5.1 2.3 2.3 0 0 1 -1.2.2 1.4 1.4 0 0 1 -1.1-.7l-.6-1.1a9.4 9.4 0 0 0 -.3-.9c-.2-.3-.6-.6-.6 0s.1.4.1.5.1.5.1.7a16.1 16.1 0 0 1 .5 4.4c0 .2 0 .3-.1.4s-.5-.3-.7-.6l-.6-.8c-.5-.7-.8-1.4-1.6-1.7s-1.4.2-2.1.6a8.3 8.3 0 0 0 -1.5 1.1 2 2 0 0 0 -.6 1.9c.2.7.9 1.2.9 2s-1.4 0-1.7-.3a4.7 4.7 0 0 1 -1.3-1.5 4.5 4.5 0 0 0 .2 2.3 8.6 8.6 0 0 0 1.3 2.3l1 .7a2.6 2.6 0 0 0 1.2.5 3.6 3.6 0 0 0 2.9.3c1.4-.5 2.5-1.5 3.9-1.7a2.8 2.8 0 0 1 2.2.4l1 .7c.2.2.5.8.7.9z"/><path d="m179.6 62.1a3.5 3.5 0 0 0 -1.4-1.3c-.3-.1-.7-.4-.4-.8s.6-.4.8-.6a6.4 6.4 0 0 0 1.3-1.9 2.2 2.2 0 0 0 .2-1.1 4.7 4.7 0 0 0 -.6-.9.9.9 0 0 1 -.3-.7c.6-.4 1.3.4 1.8.5s-.2-.5-.4-.7a2 2 0 0 0 -.9-.6c-.3-.1-.7-.3-.6-.8s.5-.3.8-.6.1-.3.2-.6.1-.5.1-.6a1.6 1.6 0 0 0 -.9-.7l-1-.6c-.2-.1-.8-.4-1.1-.3s.4 2.2-1.2 1.2a9.1 9.1 0 0 0 -2.2-1.1 3.7 3.7 0 0 0 -2.3.4l-2.6 1.1a2.8 2.8 0 0 0 -1.1.5c-.4.4-.1.6.2 1l.6 1a2.9 2.9 0 0 1 .3 1 7.3 7.3 0 0 1 -1.9-.7l-.9-.2c-.4-.1-.6-.2-.9.2s-.1.7-.3 1.1a1.3 1.3 0 0 1 -1 .6l-1.5.8a3.6 3.6 0 0 0 -1 .7c-.5.8.1 1.6.6 2.1s1.1.9 1 1.5-1.4-.2-1.7.2l.5.4a10.5 10.5 0 0 1 1.1.7l1.5.9c.3.2.6.5.1.6s-1-.1-1.5 0l.3.2.4.4c.3.2.7.1 1 .2a7.3 7.3 0 0 1 2 .5c.9.4 2 .8 2.8.2s-1.8-.6-1.5-1.3.8-.2 1.1 0l1.2.7c1.8.8 3.2-1.3 4.2-2.3a3.3 3.3 0 0 1 1.7-1.2c.6-.1 1.9-.2 2.2.5z"/><path d="m81.7 96.2h-1.3c-.4 0-.8-.4-1.2-.4a6.2 6.2 0 0 0 -3.2-1.7c-.9-.1-2.5-.5-3.5 0a13.3 13.3 0 0 0 -2.7 2.6 9.5 9.5 0 0 0 -1.2 1.6 8.6 8.6 0 0 0 -.6 2.3c-.3 1.6-1.8 1.1-3 1.7a26.2 26.2 0 0 0 2.8 0c.6 0 2.1-.1 2.4.5s-1.7.5-2.2 1.2a2.4 2.4 0 0 1 .8.6 7.5 7.5 0 0 1 .6 1.3 9.5 9.5 0 0 1 .1 2.4 27.1 27.1 0 0 0 .1 2.9 11.4 11.4 0 0 0 .2 2.6c1.1-.4 2.4 0 3.5.1s-.8.6-1.2.8l-1.5.9a2.3 2.3 0 0 0 -.9 3.1 5.3 5.3 0 0 0 2.3 2.6 7.1 7.1 0 0 0 3.8.9c2.5-.3 4-3.4 5.6-5s2.6-1.3 3.5-2.6a7.5 7.5 0 0 0 1.1-4.6 4.8 4.8 0 0 0 -.8-1.8 3.4 3.4 0 0 0 -1.7-1.1 2.4 2.4 0 0 0 -2.2.1 10.5 10.5 0 0 1 -1.9.5 9.3 9.3 0 0 1 1.5-1.3c.3-.2 1-.4 1.2-.7s0-1.1 0-1.5a6.1 6.1 0 0 0 -.7-1.4 10.1 10.1 0 0 1 -1.3-3c-.1-.5-.1-1-.4-1.3s-1-.8-1.4-.5 2.3-.9 2.9-1.2z"/><path d="m95.6 82.9c0-.4-1.1-.9-1.3-1.1s-1-.4-1.7-.6a7.5 7.5 0 0 0 -1.6-.4c-.6 0-.8.4-1.3.7s-2.4-.1-3.5.4a3.1 3.1 0 0 0 -2 2.3c.4-.1.4.2.7.4l.5.2 1.5.2a.4.4 0 0 1 0 .5l-1.1.2h-1.2c-.5-.1-1.7-.7-2 0s0 1.1 0 1.9a7.2 7.2 0 0 0 1 2.4h.2c.2 1 1.5 1.8 2.4 2.2a10.9 10.9 0 0 0 2.6.5 5 5 0 0 0 1.7.1c0-.6-.5-.8-1-1.1s-1.5-.4-1-.9 1.8.1 2.4.2l2.1.4c1.1.1 2.7.4 3.5-.4a8.3 8.3 0 0 0 .9-1.6c.4-.5 1-.8 1.2-1.4a8.6 8.6 0 0 0 .1-1.6c0-.7-.4-.9-.7-1.5l-1.3-.8a3.3 3.3 0 0 0 -1.3-.4c-.4 0-1.2.1-1.5-.2s.1-.7.4-.8z"/><path d="m122.9 69.4c-.2-.2-.5 0-.9-.1a4.7 4.7 0 0 1 -1-.5 8.3 8.3 0 0 0 -2.2-.8c-.2-.6-.4-.9 0-1.5s.7-.8.8-1.4a3.3 3.3 0 0 0 -.8-3c-1.6-1.5-4.5-1.5-6.6-1.4a2.4 2.4 0 0 0 .8.6c.3.3.4.7.9.6a1.5 1.5 0 0 1 .3.7h.2c.4.9-3.2.3-3.7.3a2.2 2.2 0 0 0 -1.1.2c-.3.3-.4.7-.7.9l-1.8.8a10.1 10.1 0 0 1 -3.2 1.8c-.6.2-1.3.3-1 1a6.3 6.3 0 0 0 1.1 1.2h.3a.6.6 0 0 1 -.4.7c-.5.3-.9-.2-1.3-.4l-1.8-1.1a4 4 0 0 0 .1 1.9 3.2 3.2 0 0 1 .3.9c0 .4-.3.6-.5.9s2.2 1.7 3 2.6c-.8.6-2.1 0-2.9-.2a3.9 3.9 0 0 0 -2.6.1 13.5 13.5 0 0 0 4.5 1.7l2.7.5a20.5 20.5 0 0 0 2.4.5h2.1a2.6 2.6 0 0 0 1.7-.7 2.1 2.1 0 0 1 1.7-.6 6.1 6.1 0 0 0 1.9-.1c.8-.2 2.4-1 2.2-1.9s-1.2-1.5-.5-2.6a1.8 1.8 0 0 1 1-.7 7.1 7.1 0 0 0 .9-.7 3.4 3.4 0 0 1 2.6-.1z"/><path d="m138 89c-.5-.1-1 .5-1.5.6a5.9 5.9 0 0 1 -1.9.1 5.2 5.2 0 0 1 -3-1.8c-1.4-1.7-2.1-3.9-3.7-5.5s-1.1-.8-1.3-1.3a14.5 14.5 0 0 0 -3-.3c-.4 0-2.3-.4-2.2.3s3.4.8 2.5 1.9-3.2 0-4.1.2-.8.8-1.1 1.4-.6 1.2-.8 1.7-1.2 2.7-.7 3.5 1.3.3 1.8.4a7.6 7.6 0 0 1 1.6.6 6.6 6.6 0 0 1 -2.4 1.1c-.8 1.7 2.3 3.5 3.4 4.4s1.5.9 1.8 1.6-.7 1.4-1.5 1.8 1 .8 1.4 1a6.1 6.1 0 0 0 1.3.3l1.2.3a5.9 5.9 0 0 0 4.3-.5 3.9 3.9 0 0 1 1.9-.6h2.2a11.2 11.2 0 0 0 3.4-1.1c.6-.3.9-.5.9-1.2a5.6 5.6 0 0 0 -.7-1.6l-1.5-1.7a15 15 0 0 0 -1.3-1.1 3.4 3.4 0 0 1 -.7-1.1c-.2-.7-.1-1 .5-1.2s1.8-1 2.8-1.4z"/><path d="m161.7 81.7c-1-.1-1.7-.7-2.7-.9s-.1-.4-.1-.5a2.6 2.6 0 0 1 2.1-.2 5.2 5.2 0 0 0 2.1.7c-.4.1-.9-.8-1.2-1a6.4 6.4 0 0 0 -1.4-.8c-.8-.6-1.2-1.6-2.2-2.1s-3.6-.8-3-1.6 1.6.1 1.2-.5a7.6 7.6 0 0 0 -1.8-.9 5.2 5.2 0 0 0 -1.8-.2 14.8 14.8 0 0 0 -2.1-.1c-.5.1-.2 0-.5.4s-.2.7-.5.9-1.2.3-1.9.4-1.5.3-1.5.7 1.4.7 1.8.8 1.5.5 1 1.1-1.4 0-1.7-.1a4 4 0 0 0 -2.4-.5c.1.8 2 1.5 2.7 1.8s1 .3.7.9-1 .2-1.4.2 1.2.4 1.7.7a11.3 11.3 0 0 1 1.8 1.2c.5.5.2 1 .5 1.7a3.4 3.4 0 0 0 1.2 1.2 3.4 3.4 0 0 0 3.1-.1l1.5-.9c.5-.3.6-.8 1.1-1.2a3.1 3.1 0 0 1 1.8-.9z"/><path d="m93 40.4c-1.2 0-2.2.6-3.5.6s-2.6-.6-4-.7-2.5-.3-3.5.8a17.9 17.9 0 0 1 -2.8 2.7c-.6.4-.5.8-.9 1.3a1.6 1.6 0 0 1 -1.3.4l-1.6.4-1.7.4h1.2a4.7 4.7 0 0 1 1.7.4c1.1.3 1.6.6.7 1.6a1.4 1.4 0 0 0 -.2 1.9 2.7 2.7 0 0 0 1 .6l.9.4c.3.1.3.4.7.4v.4c-.9.3-2.7-.5-3.3.5a3.9 3.9 0 0 0 3.2 1.1 6.4 6.4 0 0 0 3.8-1 2.5 2.5 0 0 1 1.7-.5h1.3c.4-.1.4-.2.7-.5a2.7 2.7 0 0 1 1.9-.8 2.3 2.3 0 0 0 1.4-.7 2.1 2.1 0 0 0 .8-2.6 4.2 4.2 0 0 1 -.3-1.2 6.6 6.6 0 0 1 .4-1.5 2.2 2.2 0 0 0 -.2-1.4c-.1-.3-.5-.7-.5-1.1s1.1-.8 1.7-1.2z"/><path d="m130.9 30c-1.3 0-2.2 1.1-3.4.3a2.2 2.2 0 0 0 -1.6-.5 2.4 2.4 0 0 0 -1.7.4c-1 .7-2.3 1.1-3.2 1.8s-1 .9-2 .9h-1.9a8.4 8.4 0 0 0 -3.6 2.2c-.7.6-2.1 2.6-1.7 3.6s1.3.5 2.3.1.8-.4 1-.2-.1 1-.4 1.2-1.6 1.1-2.4 1.5-1.4.6-1.8 1.5a8.2 8.2 0 0 0 2.2-.2 6.5 6.5 0 0 1 2-.4c.1.3.6.4.8.7s.5.7.9 1a3.3 3.3 0 0 0 1.6.7 16.8 16.8 0 0 0 4.5.3h3.9a5.2 5.2 0 0 0 1.8-.3 3.4 3.4 0 0 0 1.6-1.3c-.3-.4-1.9-.1-2.4-.1s.6-1.1 1.2-1.2a3.5 3.5 0 0 0 1.7-.9c1-.7 1.2-1.9 2-2.8a6 6 0 0 1 1.3-.9l1.6-1.3a3.2 3.2 0 0 0 .6-3.7 4.9 4.9 0 0 0 -2.4-1.4 7.3 7.3 0 0 0 -2.8 1c-.3.2-2.6 1.2-2.2.1s1.8-.9 2.2-1.6z"/><path d="m149.9 49.1s-1.3 2.8.8 6.8l-3.6-.3 4.9 2.5a3 3 0 0 0 -3.2 3c.1 2.7-4.2 2.8-4.2 2.8l.5 1.7-2.9-1.3 1.7 2.1c-7.9.5-10.3-1.3-8.6-3.7s.1-2-1.4-3.3v-1.5l4.9.8a17.5 17.5 0 0 0 -4.9-2.5c.5-2.1 2.2-1.1 3.3-4a25.2 25.2 0 0 1 3.9 1.2s-.8-1.6-5.2-2.8l4-.4a1.6 1.6 0 0 0 1.6-1.6c1.2-.1 1.7-.9 3.5-.9s3.7.2 4.9 1.4z"/></g><path d="m254.9 158.3s1.7 10.3-9.2 22c0 0 19-3 29-24.5 0 0 1.1 3.1.7 9.9 0 0 5.2-1.4 13.5-13.2a14.6 14.6 0 0 0 3.3 6.9l7.2-6.1a23.3 23.3 0 0 1 1.2 6.6 36 36 0 0 0 6.4-3.9s.1 4.2-7.6 18.8c10.7-5.5 21.1-17.6 21.1-22.7 0-2.4-2.5-4.7-5.5-4.7a8.7 8.7 0 0 0 -5.4 2.4 6.4 6.4 0 0 0 -4.6-2c-2.9 0-5.3 2.7-5.3 2.7s.3-2.2-2.5-2.2-15.6 8.5-42.3 10z" fill="#fff"/><path d="m270.9 194.3a123.6 123.6 0 0 1 -14.7 19.9s-1.3-3.3-2.8-4.1c0 0-5 3.9-6.5 5.9a27.5 27.5 0 0 0 -3.5-5s-3.7 2.9-4.6 4.3 4.6-8 .2-21.7c0 0-5.8 18-21.1 28.2-.7.7-1 4.3 4.8 4.3 9 0 14.3-7.1 14.3-7.1a73.8 73.8 0 0 1 18.2-.4s3.1 2.9 5.4 2.9 11-9.4 10.3-27.2z" fill="#fff"/><path d="m64.2 36.5h-4.3v-1.9s4.3.2-39 1.2c0 0 17.2 5.1 26.5 10.2a12 12 0 0 1 3.8-1.4c1.5-.1 1.7-.7 3.6-.8s1.7-1.2 1.7-1.2h2.8a4.8 4.8 0 0 0 -3-2.3 65.7 65.7 0 0 1 7.9-3.8z" fill="#fff"/><path d="m9.6 43.1s4.6 1.8 7 5c.1 8.1 6.8 14.9 15.5 22h-5.6a57.2 57.2 0 0 0 14.2 6s-1.4 1.1-6.1 1.5c0 0 7.5 5 25 5 14.6 0 21-4.5 21-4.5l-11.9-1.6s20.9-2 31.6-10.8c0 0-6.6 4.3-29.1 4.3s-32.5-6.5-32.5-6.5 13.2 2.4 21.6.8c-19-13.1-28-21.5-50.7-21.2z" fill="#fff"/><path d="m306.2 140.3s11.2 0 18.7 8.4c0 0 12.6-2.3 18.6-10.3-5.9.3-7.5-.8-7.5-2s1.4-1.4 4.9-1.4h4.7s2.6-.9 3.1-9.1c-4.6 4.2-10.1 5.4-11 3.5s8.1-3.5 10.9-7.7c0 0 .5-2-1.4-6.4-3.4 5.7-5.4 6.6-6.9 5.7s4.5-4.1 5.4-8.3l-3.2-3.9c-9.6 19.1-25.7 15.2-36.3 31.5z" fill="#fff"/><path d="m81.5 135.3a16 16 0 0 1 3-2.6l-.7 2.4h.4s2.4-2.7 4.6-2.8c0 0-1.1 1.2.6 1.9 3.3 1.2 7.2.6 11.5 1.1 1.2.5 2 .7 4.6-.2a13.8 13.8 0 0 1 4.5-1s-3.7 1.5-4.5 2.8a5.7 5.7 0 0 1 2.5 4.4 7 7 0 0 1 -3.7 6.5c-3.7 2.2-4.1 4.7-4.1 4.7l2.4-1.5s-.7 5.6-6 5.6c-3.1 0-3.9-1.7-5-1.7s-2.7 2.3-2.7 2.3.2-2.2 3.8-5.9a10.4 10.4 0 0 0 -3.5 2.4c-5.2-3.1-11.1-3.4-11.1-8.1a11.8 11.8 0 0 1 1.6-4.7 2.4 2.4 0 0 0 -1.9 1.5l-.2-2.5-8 6.6a106.2 106.2 0 0 0 12.9 11.5 176.7 176.7 0 0 0 36.1 20.7c13.7 5.7 25.2 12.3 31.6 19.3s12 17.2 17.9 25.9 19.5 23.8 33.4 27.3l-2.8 3.5a82.4 82.4 0 0 0 23.8-.2l-4.3 4.8c22.3-2.3 40.5-12.4 50.7-31.6 0 0-3.8-3.3-14.5-3.3-15.7 0-30.1 10.1-44 10.1s-23.7-12.3-31.2-24-20.8-38.3-20.8-57.8c0-31.6 22.3-34.3 22.3-34.3s-28.6-6.3-46.7-7.7c44 2 92.9 14.6 116.3 26.2a2.3 2.3 0 0 1 -2 3.8c-2.1 0-8.7-4.5-25.4-10.1 4.1 8 13.9 22 32.9 22s25-11.7 48.2-12.4c.7-13.4-5.8-16.4-20.6-23.7a149.9 149.9 0 0 0 -26.1-10.2h-.6a90 90 0 0 1 14.4 9.4l-1.7 1s4.1 2.6 10.2 10c0 0-9.5 3.9-15.6 3.6a2.1 2.1 0 0 1 -2.3 1.8c-1.5 0-7-2.9-20.4-8.7s-49.3-18.3-97.5-24.7c0 0 7.8 2.4 10.7 3.7a21.2 21.2 0 0 0 -7.4-.6l3.5 2.2s-23.2-1-37 2c0 0 9 2.6 12.5 7.2 0 0-5.6.1-9 .6a9.3 9.3 0 0 1 .9 2.6c0 .8-2.9 2.8-2.9 2.8h2.2v5.5s-3.1 4.4-11.7 2.2l.3-1.4-5.1.5a33.4 33.4 0 0 0 5.3-3.1s-5.3 2.2-6.4-.6c0 0-17.4 4.3-25.8 11.2.2-.6 5 .2 7.6 1.8" fill="#fff"/><path d="m197.3 58.2s-15.5 2.6-23.2 15.1l1.2-.3s6.7-7.5 24.8-7.5c21 0 34.6 11.9 46.6 13.5 0 0-8.1-1.9-11.5-8.7a5.1 5.1 0 0 0 .1 3.3c-8.7-4.8-13.7-6.8-14.3-14.2 0 0-1.9 1.5-2 5.1l-1.4-1.1s-.3 1.4 2 2.7-.4 1.5-.4 1.5a16.4 16.4 0 0 1 -4.9-1.7s1.8-.1 1.2-.8-2.5-2.4-2.9-3.3 1.8-.7 1.8-.7a5.4 5.4 0 0 0 -3.6-1.9 1.8 1.8 0 0 1 1.8-.7c1.2.2-.3-1.3 1.4-1.8a10.2 10.2 0 0 0 5.4-4.5c1.1-1.7 3.1.5 3.1.5s-.5-2.9-4.9-2.9a15.6 15.6 0 0 0 -8.8 2.9l3 1.6a5.7 5.7 0 0 1 -2.9-.5c-1.6-.7-2.7 1.4-2.7 3.6s3.5 3.7 3.5 5.3-.3 3-1.6 1.4v1.5c-3.3-2.5-6.3-2.3-8.3-5.9l2.4 1s-.2-.9-2.9-2.3c0 0-.4-1.1.3-1.1v-3h-6.1v.6z" fill="#fff"/><path d="m235.8 80.2v-.5l-9.2-2.9-.2.8a2 2 0 0 1 .5 1.6c0 1.2-.9 2.9-3.4 2.9a3.1 3.1 0 0 1 -3.3-3.6s2.5.1 2.5-1.6-10-4.9-23-4.4c11.3 8.7 17.8 12.1 22.6 12.1s13.5-4.4 13.5-4.4z" fill="#185465"/><path d="m220.2 78.6s2.5.1 2.5-1.6-4.1-3.1-10.4-3.9c0 0 4.1 2.6 7.9 5.5z" fill="#fff"/><path d="m189.7 71.6a26.1 26.1 0 0 0 -6.1.1 19.1 19.1 0 0 0 4.2 6 39.1 39.1 0 0 1 -4.2-.5c8.8 8.7 16.9 11.8 29.6 11.6l-1.9 1a47.6 47.6 0 0 1 14.9 3.1c-19-12.4-17.8-7.1-36.5-21.3z" fill="#fff"/><path d="m147.2 135a15.8 15.8 0 0 0 -4.5 1s-2.9-6-7.1-6-10.7 4.1-10.7 4.1l.3-1.5c-7.2 0-9 .4-9 3.1s2.8 3 6 5.9a4.8 4.8 0 0 1 3-1.4l-3.9 3.7a4.6 4.6 0 0 1 5.2.2c2.8 1.9 9.2-.2 11.7-1.7a6.5 6.5 0 0 1 -2.4 2.7s5.9 1.8 8.5-1.5-.9-5.9-.9-5.9a12.4 12.4 0 0 1 3.8-2.7z" fill="#231f20"/><path d="m133.7 154.9c-5.9 1.8-12.4.2-19.4.1l1-1.3a13.1 13.1 0 0 0 -4 1.3c-1.8 1-5.9 1.3-5.9 4.8a6.4 6.4 0 0 0 2.4 4.7l2.3-2.5a3.7 3.7 0 0 1 -.6 2.7c8.2 5.3 17.4 2.2 21.1 5.9l4.3-2.9s.2.9-2 4.4c2.7 2.6 4.6 3.4 7.2 3.4s4.2-.5 4.6-4.1l1.1-1.2h-1.6a4.8 4.8 0 0 0 -.6-3.3s.7-.7 2.6.7c0 0 .7 0 1.6-1.1l.9-1.1h-1c-.7-5-4.6-7.4-7.3-6.3a4 4 0 0 0 -4.1-3.3c-1.4 0-4.1 1.6-6.1 1.6z" fill="#231f20"/></svg>