<svg viewBox="0 0 310.2 174.1" xmlns="http://www.w3.org/2000/svg"><path d="m310.2 87c0-42-68.9-87-155.1-87-82.6 0-155.1 45.3-155.1 87s72.5 87.1 155.1 87.1c86.2 0 155.1-45.1 155.1-87.1z" fill="#0c371d"/><path d="m215.1 41.8v9.1h14.7c.7-.1 2 .1 2.3.6s.2 2-1.8 5.2c-.1 0-14.1 23.3-19.3 32l-20.5-32.8c-1.7-2.6-1.5-3.7-1.3-4s1-.9 2.2-1h10.6v-9.1h-79v9.1h10a5.8 5.8 0 0 1 4.2 1.3c1.4 1.4 1.7 4.3 1.7 8.3v33.5l-40-52.2h-39.4v9.5h12.9a4.2 4.2 0 0 1 2.9.8c1 1 1 3.5 1 6v52.7c0 8.7-1 11.1-4.4 11.1h-12.5v8.4h42.3v-8.5h-12c-2 0-3.4-.1-4-.6s-1.2-6-1.2-10.4v-46.4l54.5 66h8.6v-74.8c-.1-2 .4-4.2 4-4.7h8.5c3.9 0 6.5 4.7 9.1 9.2l23.1 39.3v16.8c0 5.6-2.5 5.6-3.5 5.6h-9.6v8.6h50.2v-8.7h-9.2c-3.5-.1-4.8-1.2-4.6-6.4v-17.3l24.5-41.1c3.5-5.5 3.8-6 8.7-6h8.3v-9.1z" fill="#fff"/><path d="m217.4 44v4.6h12.2s9-.7 2.6 9.3l-21.1 35.2-22.5-36c-5.8-9.3 2.9-8.5 2.9-8.5h8.2v-4.6h-74.4v4.6h7.7c7.3 0 8.2 4.7 8.2 11.8v40.3l-43.4-56.6h-36.1v5h10.7c6.8-.1 6.1 5.3 6.2 10.5v51.2c0 7.1-.3 13.3-6.7 13.4h-10.3v3.9h37.8v-4h-9.7c-6.4 0-7.4-.9-7.4-13.3v-53.3l57.8 70.6h4.7v-68.2c0-7.1.2-11 6.8-11.3h9.4c5 .4 7.7 6.2 11.2 12.3l22.4 37.9v17.3c0 5.4-2.1 8-5.8 8h-7.3v4h45.6v-4.1h-7c-5.5-.3-7-3.1-6.8-8.8v-17.8l23.1-39c5.1-7.8 5.4-9.8 12.4-9.7h6v-4.7z" fill="#0c371d"/><path d="m190.2 129.2c0-10.3-15.6-21.4-35.1-21.4s-35.1 11.2-35.1 21.4 16.4 21.4 35.1 21.4 35.1-11.1 35.1-21.4z" fill="#0c371d"/><path d="m187.9 128.1c-1.2-8.9-15.3-17.9-32.8-17.9s-31.5 9.1-32.8 17.9z" fill="#fff"/><path d="m122.3 130.3c1.2 8.8 16 17.9 32.8 17.9s31.6-9 32.8-17.9z" fill="#fff"/><path d="m143.3 136.8a7.6 7.6 0 1 1 0-15.2h23.7a7.6 7.6 0 1 1 0 15.2z" fill="#0c371d"/><path d="m168.2 125.8a6.4 6.4 0 0 1 -.2-.7h-2.2l.2.8a14.3 14.3 0 0 1 .4 2.2h-4a15.5 15.5 0 0 0 -.4-2.1h-2.1a11.8 11.8 0 0 1 .4 2h-4.1v-1.9h-2.2v1.9h-4.1a11.8 11.8 0 0 1 .4-2h-2.1a15.5 15.5 0 0 0 -.4 2.1h-4a14.3 14.3 0 0 1 .4-2.2c.1-.3.1-.5.2-.8h-2.2a6.4 6.4 0 0 1 -.2.7 19.7 19.7 0 0 0 -.4 3.5 17.5 17.5 0 0 0 .5 4h2.3a13.6 13.6 0 0 1 -.6-2.9h4a15.5 15.5 0 0 0 .4 2.1h2.1a11.8 11.8 0 0 1 -.4-2h4.1v1.9h2.2v-1.9h4.1a11.8 11.8 0 0 1 -.4 2h2.1a15.5 15.5 0 0 0 .4-2.1h4a13.6 13.6 0 0 1 -.6 2.9h2.2a13.4 13.4 0 0 0 .6-4 19.7 19.7 0 0 0 -.4-3.5z" fill="#fff"/><path d="m257.3 71.9c-2.3-4.4-8.5-6.9-17.7-7.3-6.9-.2-12.2.1-16.5 1.2h-111.6l5.7-10.7h-27.6l-18.9 35.7c-1.5 2.3-1.7 2.4-3.3 2.2l-1-.2a28.6 28.6 0 0 1 1.8-3.5l6.6-10.8h-25.7l-.7 1c-7.1 9.7-9.2 17.6-6.2 23.3s9.7 8.3 20.6 8.2 17.8-.6 23.3-4.2h55.7l14.4-26.8h12.4l-14.3 26.8h28.4l9-16.8h12l-.6 1.5c-2.2 5.4-1 9 .3 11.1 2.7 4 8.5 6 17.2 6 14.7 0 24.1-1.3 28.6-8.2s4.3-10.8 1.6-14.5a11.9 11.9 0 0 0 -3.4-2.7h8.1l.8-1.2c2.8-4.6 2.1-8.1 1-10.1z" fill="#0c371d"/><g fill="#fff"><path d="m70.2 81h-19.8c-13.3 18.3-6.7 27.5 12.4 27.4 17.4-.1 23.5-1.2 30.7-14.5l19.4-36.1h-21.7l-18.3 34.3c-1.7 2.6-2.7 3.8-5.8 3.5-4.9-.5-3.6-3.4-1.1-7.6z"/><path d="m158.6 104.2h22.6l14.2-26.5h10.4l5-9.3h-45.7l-4.9 9h12.6z"/><path d="m205.5 92.5c-3.5 8.5 1.7 13.5 15.2 13.6s22.6-1.4 26.4-7.1c2.5-3.9 4-8.3 1.6-11.6s-7.5-4.3-13-5.4c-3.6-.7-4.8-1.5-4.6-3.6s2.6-2.3 4.4-1.8 2 2.2 1.8 4h16.8c4.6-7.3-.7-12.9-14.6-13.4-17.3-.6-23.9 2.6-27.3 11.4-1.8 4-1.5 7.2 1 8.8s11.9 3.4 14.5 4.4a2.3 2.3 0 0 1 .9 3.6 3.9 3.9 0 0 1 -5.1.8c-1-.9-.9-1.9-1.2-3.7z"/><path d="m97 104.3h43.3l4.8-9.1h-23.6l2.2-4.3h21.1l4.9-9.3h-19.8l2-4.1h21.4l4.8-9.1h-41.9z"/></g></svg>