<svg xmlns="http://www.w3.org/2000/svg" viewBox="0 0 365.9 278.7"><defs><style>.a,.b,.c{fill-rule:evenodd;}.b{fill:#fff;}.c{fill:#0086c5;}</style></defs><path class="a" d="M239.5,0c6.5,4.2,12.9,8.5,19.7,12.2s15.5,6.3,23.4,8.9a19.6,19.6,0,0,1,12.7,10.6,45.5,45.5,0,0,1,8.7,4.7c3,2.2,4.7,5.6,6,9a114.5,114.5,0,0,1,14.4,7.3c6.3,3.9,11.7,9.1,17,14.3a30.2,30.2,0,0,0-10.6,9.5c-1.5,3.7-2.8,7.7-5.3,11A14.8,14.8,0,0,1,344,88a23,23,0,0,1,18.4,7,13.2,13.2,0,0,1,2.7,13.4c-1.2,2.5-.3,5.6-1.8,8.1s-3.6,4.3-5.5,6.4-4.8,6.5-8.6,7.8-8.4.5-12.4-.6a29.5,29.5,0,0,1-16.4-1.2c-1.5,2.3-3.1,4.5-4.7,6.7a33,33,0,0,0,12.8,6.8c5.2,1.5,11.2,2.6,14.4,7.5,9.9-1.7,19.6,5.6,22.2,14.9a15.1,15.1,0,0,1-.4,9.4c-1,2.7-3.6,4.5-4.5,7.4a12,12,0,0,1-9.6,7.6,14.6,14.6,0,0,1-17.3,1.8c-4.9-.5-10.3-.6-14.6-3.5-2.6-1.6-4.5-4-6.5-6.2-5.3-2.5-11.2-1.9-16.8-2.8-8.5-1.4-16.9-3.3-24.6-7-5.5,1.7-11.3,2.2-17.1,2.6a23.2,23.2,0,0,0-5.4-8.7c-9.6,5.1-19.1,11.2-30.1,12.5a62.8,62.8,0,0,1-3.3,12.2c-2.2,5.6-7.2,9.6-12.7,11.9,6.3,2.5,11.5,7.9,12.5,14.7,1.1,5-1.7,10.1-5.7,13a13.5,13.5,0,0,1-9.1,7.5c-3.8,1.1-8-.4-11.7,1.2-5.8,2.1-12.1,0-17-3.3-7.4.5-14.7,1.5-22.1.9a14.8,14.8,0,0,1-11.9-9.1,49,49,0,0,1-9.7,5.6,120.6,120.6,0,0,0-16,9.2c.3,1.1-.3,2.8,1,3.3,4.2,2.1,7.7,5.9,8.3,10.6s.2,7.4-1.6,10.5-3.5,3.5-4.8,5.6a12.2,12.2,0,0,1-7.2,5.4c-2.5.9-5.3,0-7.8.8a16.8,16.8,0,0,1-12.8-1.1A17.3,17.3,0,0,1,78,261.6c.6-7.5.8-15,.8-22.5-2.5-4.3-4.1-9.6-1.8-14.4s7.8-7.5,10.3-12.4,2.4-8.6,2.7-12.9.9-10.4,1.1-15.7c-7.2-2.2-14.3-5.3-20.1-10.3a46.1,46.1,0,0,1-11.7-17.5c-2.7-7.2-3-15.1-6.4-22a20,20,0,0,0-6.6-7.5,20.3,20.3,0,0,1-18.4-5.9c-3.5-2.9-5.4-7.7-9.9-9.6s-11.8-3.6-18-4.3C9.4,97,21.7,89.5,35.3,88a20.5,20.5,0,0,1,16,4.6A22.9,22.9,0,0,1,57.9,103a45.9,45.9,0,0,1,24.7,28.9c1.5,5.3,2.5,11.1,6.2,15.4s8.9,6.8,14.3,8c5.7-5.3,10.9-11.8,18.5-14.3,3.5-1.3,7.2-2,10.5-3.6s5.6-4.5,8.4-6.8a11.9,11.9,0,0,0,3.4-4c2.9-5.2,5.9-10.5,10.1-14.8a40.1,40.1,0,0,1-4.3-17.6l4.2,1.4c.3-9.5,6.7-17,13.1-23.2a32.3,32.3,0,0,1,4.6-16,31.6,31.6,0,0,1-4.1-10.1,54.3,54.3,0,0,0,16.3-3.7c3-1.2,4.9-4.1,7-6.4,3.8-4.2,8.1-8.3,13.3-10.7a45.4,45.4,0,0,1,21.1-4.3,35.5,35.5,0,0,0-7.6-4.3A48.9,48.9,0,0,1,238,10.4,40.8,40.8,0,0,1,239.5,0Z"/><path class="b" d="M243.1,7.7c6.3,3.7,12.1,8.6,18.9,11.5s12.4,4.6,18.6,6.6,9.4,4.7,10.5,9.7c4.2,1.9,9,3.2,11.8,7.1,2,2.2,1.7,6.1,4.8,7.4a83.2,83.2,0,0,1,14.8,7.7,110.2,110.2,0,0,1,11,9.5c-2.5,2.2-5.4,4.1-7.3,6.9-2,4.9-3.7,10.3-8,13.7-1.4,1.3-3.4,1.9-4.3,3.6A33.9,33.9,0,0,1,325.3,94c2.5-1.6,4.7-3.9,7.8-4.3s6.5,1,8.6,3.4c6.3-.6,13.4.7,17.4,6,2.5,2.8,2,7-.1,9.8,0,2.1.5,4.4-.7,6.3s-2.6,2.5-4.1,3.5c-1.4,2.8-3.1,5.9-6.3,7.1s-7.5.3-10.9-1c-3.5.6-7.1,1.3-10.6.8a21.7,21.7,0,0,1-7-3.4c-3.9,4.5-6.9,9.6-10.7,14.2,4.4,3.9,9.1,7.6,14.7,9.6a84.6,84.6,0,0,0,9.8,2.9c3.3.9,5.6,3.6,7,6.6,4.2-.9,9.1-1.5,12.8,1.3s7.2,5.9,7.8,10.4a8.7,8.7,0,0,1-4.1,8.8c-.4,2-.9,4.2-2.3,5.8a8.1,8.1,0,0,1-6.2,2.3,9.1,9.1,0,0,1-8.4,3.8c-3-.3-5.2-3-8.3-2.4-6.3.4-12.8-2.6-15.7-8.3a48.5,48.5,0,0,0-18.1-3.4c-9.2-1.1-18.5-3.4-26.6-8a42.5,42.5,0,0,1-14,3.6,22.2,22.2,0,0,0-8.7-10c-5.9,3.3-11.8,6.5-17.8,9.6s-11.6,3.6-17.5,4.2c.5,4.6-.9,9-2.4,13.2-.8,2.1-1.5,4.3-3,6a24.3,24.3,0,0,1-5.8,4.1c-4.9,2.7-10.6,3.4-15.4,6.3a50.6,50.6,0,0,0-6.9,5.3c2.6.4,5.5,1.8,8.2.5s4.6-2.3,7.2-2.4c6.8-.9,13.2,4.8,14.8,11.2.8,3.8-1.9,7.1-5,8.8-.9,2-1.8,4.3-3.9,5.3s-7.4.9-11,.8-5.9,2.6-9.1,1.7-5.8-3.1-9-3.8c-7,.1-14,1.1-21,1.1a10,10,0,0,1-8-4.4c-2.3-3.2-1.1-7.6.7-10.8s4.6-5.3,6-8.5c-.8-1.7-2.9-2.1-4.4-3.1-4,7.1-6.5,15.9-13.9,20.4s-17.5,8-24.7,14.4c0,3.1,0,6.2.2,9.3,3.7.5,7.5,2.5,8.7,6.4s.4,9.7-4.1,11.7c-.9,2.2-2.3,4.6-4.8,5.4s-5.2-.4-7.7.7a13.3,13.3,0,0,1-8.8.1,11,11,0,0,1-6.7-10.5c-.1-7.8.5-15.5.6-23.3-.5-3.9-4-7.1-2.9-11.3,2-6,9.2-8,11.3-14,4.3-10.9,2.4-22.8,4.3-34.1a64.6,64.6,0,0,1-18.5-7.4c-5.7-3.5-9.8-9.1-12.7-15-4.1-8.5-4.2-18.3-8.5-26.7a23.7,23.7,0,0,0-9.8-9.8A15.3,15.3,0,0,1,32,117.9c-3.5-2.8-5.6-6.9-9-9.7s-9.3-3.2-14.1-3.9c9.5-6.5,20.5-12.8,32.5-11.2,6.6.8,11,7.1,11.9,13.4,5.2,2.5,10.2,5.4,14.3,9.5a43,43,0,0,1,10.5,19.6c1.7,6.8,4.6,13.7,10,18.4a34.5,34.5,0,0,0,16.9,6.8,164.3,164.3,0,0,1,12-11.6c5.1-4.4,12.2-4.6,18.1-7.5,3.4-2.8,6.7-5.8,10.2-8.6s3.1-4.3,4.6-6.6a108.8,108.8,0,0,1,10.3-15.1,19.8,19.8,0,0,1-4-10.7l3.8.3a14,14,0,0,1,.1-10.8c2.6-6.1,7.1-11.2,12-15.6a29.6,29.6,0,0,1,5.5-18.2,25.2,25.2,0,0,1-3.6-6.9c5-.8,10.3-1.4,14.7-4.3s4.7-4.7,7.1-7c4.1-4.2,8.8-8,14.4-9.7a49.4,49.4,0,0,1,18.3-2.1c2.2-1.4,4.4-2.6,6.7-3.8a31.3,31.3,0,0,0-7-5.6,46.6,46.6,0,0,1,14.4-1.7c0-2.6.7-5.1.5-7.6Z"/><path class="c" d="M247.3,16a81.1,81.1,0,0,0,11.8,7.5c7.3,3.8,15.6,5.1,23.1,8.5,2.8,1,4.1,4,3.9,6.9,3.7,1.7,7.6,3,11,5.1s3.1,7.5,6.7,9.8,8,3.4,11.7,5.6a55,55,0,0,1,11.1,8c-2.3,1.6-5.2,3.2-5.8,6.3-1.5,5.3-4.7,10.6-10.1,12.7a12.5,12.5,0,0,0,.8-8.3,32.8,32.8,0,0,0-16,3.4c0,3-.3,6.4,1.7,8.9a4.2,4.2,0,0,0,5,1c2.6-1.2,4.4-3.6,5.9-5.9.1,2.3-.6,5,1,6.9s.1,3.7.1,5.6c4.9-2.5,10.5-.9,15.2,1.2s7-5.7,11.6-4.3c1.3.8,1.8,2.3,3,3.1,4,.9,8.5-.8,12.3,1.4,2,1,4.9,2.7,4.3,5.4a20.4,20.4,0,0,1-2.6,2.5c.5,1.7,1.3,3.3,1,5.1s-2.5,1.6-3.9,2.3c-.9,2.2-1.6,4.7-3.7,6.2s-6.2-.6-9.2-1.5c-4.7,1.2-10.5,2.5-14.5-1.2-2.2-2.5-6.1-.9-8,1.3-4.2,5.1-7.3,11.1-12,15.8a179.8,179.8,0,0,1-23,19.7,50.2,50.2,0,0,1-19.7,8.9c-2.8-4.3-6.5-8.3-11.4-9.9-13.2-4.6-27.4-4.1-41.1-2.1,11.5.2,23.7,0,34.2,5.4-5.1,2.8-10.2,5.6-15.5,8s-12.9,2.8-19.5,3.3c.8,3.4,2,6.9.9,10.4s-1.8,8.1-4.8,10.9c-6.3,4.7-14.7,5.1-21.1,9.7a29.4,29.4,0,0,0-10.5,11.9c4.4.9,8.8,1.9,13.2,2.6s8.7-4,13.6-2.7a9.8,9.8,0,0,1,6.8,7.5c-.3,2.3-3,2.8-4.7,3.5s-.6,3-1,4.4c-3.4,1.2-7,.6-10.4-.1-1.7,1.2-3.6,2.4-5.7,2.3-4,.1-6.5-3.9-10.4-4.1-7.3-.2-14.5,1.5-21.8,1-1.8-.1-3.9-1.2-4-3.2s2.7-5.9,4.5-8.5,4.7-5.2,3.5-8.5-4.9-4.6-7.8-6.1a74.1,74.1,0,0,1,19-15.8c9.3-5.5,18.9-10.8,29.2-14.1a91.5,91.5,0,0,0-43.1,20c3-5.9,8.1-10.2,12.7-14.7-9.9,4.9-17.6,13.6-22.4,23.4-2.9,6.1-5.9,12-9.3,17.8-1.9,3.4-5.7,5-9.1,6.7a125.3,125.3,0,0,0-18.2,10.3c-1.9,1.5-4.4,3.1-4.4,5.8a66.7,66.7,0,0,0,.7,14.1c2.5.3,5.1.5,7.4,1.8a6.1,6.1,0,0,1,.9,6.1c-.8,1.1-2.4,1-3.6,1.4s-.2,3.6-1.8,4.7-3.8-.1-5.7-.5-3,2-4.8,1.8a5.8,5.8,0,0,1-6.1-6.1c.1-8.2.9-16.5.6-24.7,0-3.2-3.2-5.6-2.9-8.9s4.6-4.5,6.9-6.8,4.4-6.6,5.5-10.3c3.4-11.6,1-24.1,4.3-35.7a78.5,78.5,0,0,1-18.5-6,32.2,32.2,0,0,1-13.8-13.3c-2.8-5.1-3.2-10.9-4.8-16.4a76.5,76.5,0,0,0-5.2-13.3c-2.7-5.5-8.2-8.8-13.3-11.9-2.7,1.4-5.9,2.1-8.8,1a22.4,22.4,0,0,1-10.2-8.5c-1.6-2.8-4.9-3.8-7.8-4.7,4.3-1.5,8.9-2.5,13.4-1.5,2.5.5,4.7,1.8,7,2.9-2.4-4.1-7.3-4.6-11.5-5.4,4.7-1.9,10.6-2.1,14.9,1s3.9,6.4,4.9,10c4.9,2.7,9.9,5.3,14.2,9,5.5,5.2,8.7,12.4,10.3,19.7S79.7,154,86.2,159s13.6,6.5,21.1,7.1a94.5,94.5,0,0,1,12.2-12.3c5.2-4.8,13.1-4.3,18.8-8.1,4.2-3.6,8.7-6.8,12.5-10.8s6.3-11.1,10.1-16.2,5.7-6.9,8.7-10.3a13.3,13.3,0,0,1-7.9-2.8c3-1.9,7-3.7,7.7-7.5s-4-2.1-6-1.5c2.2-9.4,9.6-16.4,16.9-22.2,2.7-2.1,6.2-4.6,6-8.5-1.7-3.5-6.1-1.3-8.1.8,1.6-4.1,3.6-8.2,7-11.1a11.3,11.3,0,0,1-4.5-3.6c3.3-.3,6.7-.5,9.5-2.2,5.2-2.9,10.3-6,15.9-8.2a22.4,22.4,0,0,0-7.3.6c4.8-5,10.9-9.1,17.8-10.2s16.8,1,25.1-.6a14.4,14.4,0,0,0-7.2-2.7A38.2,38.2,0,0,1,244,25a41.5,41.5,0,0,0-7.3-5.1,64.9,64.9,0,0,1,12.4,1.7,16,16,0,0,1-1.8-5.6Z"/><path class="b" d="M283.7,54.8c3-.5,6.3-2,9.3-.6l4.7,1.8a19.9,19.9,0,0,0-2.5,4.5,20.3,20.3,0,0,0-11.5-5.7Z"/><path class="b" d="M209.2,77.7c5.5-4,11.9-7,18.8-7.4a35.9,35.9,0,0,1,30.8,15c-8.5-6.2-18.5-11.2-29.3-11-6.9-.1-13.7,1.5-20.3,3.4Z"/><path class="b" d="M200.9,96.5c8.3-3.5,15.7-9.5,24.8-10.8,6.7-1.2,13.5-.1,20,1.6-8.3-.5-16.8.5-24.4,4.2s-13,8.5-20.5,10.9a35,35,0,0,1-24.1.2,59.7,59.7,0,0,0,24.2-6.1Z"/><path class="b" d="M226.2,101.9c10.1-4.7,21.8-6.4,32.6-3,3.9,1.3,8.2,3.1,10.4,6.9,1.2,1.8,1.3,4.1,1.5,6.2a51.5,51.5,0,0,0,9.3-3.3c.5-2.6,1-5.4,2.6-7.6a6.6,6.6,0,0,1,6.2-2.8c4.3.5,8.3,2.4,12.2,4.2-10.6,7.8-22.9,12.8-35.4,16.6,1.4-3.7,1.6-8-.8-11.3-3.5-5.2-10.1-6.8-15.9-7.7-7.6-1.2-15.3,0-22.7,1.8Z"/><path class="c" d="M276,162.7a125.9,125.9,0,0,0,29-22.8,67.5,67.5,0,0,0,11,8.3,69.7,69.7,0,0,0,15.5,5.5c3.7.8,3.8,6,7.6,6.8s7-1.7,10.2.1a15,15,0,0,1,5.6,5.6c.6,1.1,1.4,2.6.6,3.9s-2.5,1.7-3.9,2.3c-.1,2.1.3,4.5-1.3,6.1s-3.5.1-5.2-.1c-.7,1.6-1.2,3.8-3.2,4.2s-4.3-1.1-6.1-2.3c-4,.2-8.4.5-12-1.7-2-1.2-3.2-3.3-4.2-5.4a47.3,47.3,0,0,0-16.5-4.2c-9.2-.8-18.6-2.3-27.1-6.3Z"/></svg>