<svg viewBox="0 0 164.5 223.9" xmlns="http://www.w3.org/2000/svg"><path d="m82.3 0a58.4 58.4 0 0 1 -7.7 11.6c-19.4 22.4-45.4 29.9-74.6 3.6v152.9c.3 17.4 13.5 23.3 25.7 27.8l9.5 2.7c14.3 1.9 28.2 5.4 47.1 25.3 18.8-19.9 32.7-23.4 47-25.3l9.5-2.7c12.2-4.5 25.4-10.4 25.7-27.8v-152.9c-29.2 26.3-55.2 18.8-74.6-3.6a53.9 53.9 0 0 1 -7.6-11.6" fill="#fff"/><path d="m90.1 21.3a51.3 51.3 0 0 1 -7.3-10.8 47.3 47.3 0 0 1 -7.2 10.8 49.6 49.6 0 0 1 -68.3 6.6v135c.3 15.7 12.4 21 23.6 25.1l8.7 2.4c13.1 1.7 25.9 4.9 43.2 23h.1c17.3-18.1 30.1-21.3 43.2-23l8.7-2.4c11.2-4.1 23.3-9.4 23.5-25.1v-135a49.5 49.5 0 0 1 -68.2-6.6z" fill="#1d3767"/><path d="m101.3 36.7s-23.2-3.3-34.3 14.6-3.2 33.8-3.2 33.8 23.3 4 35.7-15.1c10.3-15.9 1.8-33.3 1.8-33.3z" fill="#fff"/><path d="m76.4 50.4 10.4 5.3 1.2-1.3-10.4-5.3z" fill="#1d3767"/><path d="m72.9 54.8 10.1 5.2 1.3-1.5-10.3-5.2z" fill="#1d3767"/><path d="m70.2 59.4 9.8 5 .8-1.4-9.8-5z" fill="#1d3767"/><path d="m86.7 41.5-1.5 1.1 10.1 5.1 1.3-1.1z" fill="#1d3767"/><path d="m80.4 46.4 10.4 5.3 1.4-1.3-10.3-5.3z" fill="#1d3767"/><path d="m92 45c5.9-5.1 10.7-8.5 10.7-8.5l-.8-.6s-5.4 1.9-12.5 7.8z" fill="#1d3767"/><path d="m74.6 60.7a131.9 131.9 0 0 0 -11.6 24.7l1 .6a170.5 170.5 0 0 1 12.7-24.3z" fill="#1d3767"/><g fill="#fff"><path d="m141.8 44.6 2.5 7.2h7.9l-6.3 5 2.4 7.7-6.5-5-6.5 4.7 2.5-7.4-6.2-5h7.7z"/><path d="m141.8 68 2.5 7.1h7.9l-6.3 5.1 2.4 7.7-6.5-5-6.5 4.7 2.5-7.5-6.2-5h7.7z"/><path d="m116.7 68 2.5 7.1h7.9l-6.3 5.1 2.4 7.7-6.5-5-6.5 4.7 2.5-7.5-6.2-5h7.7z"/><path d="m116.5 44.6 2.5 7.2h7.9l-6.3 5 2.4 7.7-6.5-5-6.5 4.7 2.5-7.4-6.2-5h7.7z"/><path d="m48.9 44.6 2.5 7.2h7.9l-6.3 5 2.4 7.7-6.5-5-6.5 4.7 2.5-7.4-6.1-5h7.6z"/><path d="m48.9 68 2.5 7.1h7.9l-6.3 5.1 2.4 7.7-6.5-5-6.5 4.7 2.5-7.5-6.1-5h7.6z"/><path d="m23.8 68 2.5 7.1h8l-6.4 5.1 2.4 7.7-6.5-5-6.5 4.7 2.5-7.5-6.1-5h7.6z"/><path d="m23.6 44.6 2.5 7.2h8l-6.4 5 2.4 7.7-6.5-5-6.5 4.7 2.5-7.4-6.1-5h7.6z"/><path d="m14.8 93.1v64.8c.3 14.4 11.2 19.3 21.2 23.1l7.9 2.2c11.8 1.6 23.3 4.5 38.9 21.1a.1.1 0 0 1 .1.1c15.6-16.6 27.1-19.5 38.9-21.1l7.9-2.2c10-3.8 20.9-8.7 21.2-23.1v-64.9z"/></g><path d="m86.9 101.7h-16.4v10.2h4.3v59.4l-4.9-.5v9.3a60.2 60.2 0 0 1 9.8 1.9c3.2.9 11.2 4.7 11.2 4.7v-10.3a28.8 28.8 0 0 0 -4-2.1v-33.2h6.3l1.5 4.2h6.7v-19h-6.7l-1.6 4.5h-6.2v-18.9h7.9l2.6 6.1h8.1v-16.3z" fill="#b42025"/><path d="m62.8 101.7h-15.5v10.2h3.5v25.1l-12.6-35.9h-15.4v10.2h3.4v45.2h-5.2l.9 10.4a54.8 54.8 0 0 1 9.9 1.3c3.3.8 11.6 4.4 11.6 4.4l-.9-11.6a31.9 31.9 0 0 0 -4.3-2v-21.5l13 37.2 11.6 3.6v-66.4h3.4v-10.2z" fill="#b42025"/><path d="m134.4 144.2v14.6l-9.5 2.3v-49.1l3.5-1.6v-8.7h-19v8.7l3.5 1.6v53.9l-5.2 3v11.7c3.8-2.2 13.3-7.5 17.9-9.4a70.7 70.7 0 0 1 18.3-4.4v-22.6z" fill="#b42025"/></svg>