<svg viewBox="0 0 315.5 209.5" xmlns="http://www.w3.org/2000/svg"><path d="m310 104.8c0 55-68.2 99.6-152.2 99.6s-152.2-44.6-152.2-99.6 68.1-99.7 152.2-99.7 152.2 44.6 152.2 99.7z" fill="#fac400"/><path d="m302.9 104.8c0 52.4-65 94.9-145.1 94.9s-145.2-42.5-145.2-94.9 65-95 145.2-95 145.1 42.5 145.1 95z" fill="#293f38"/><path d="m286.5 100.8h-152.6v23h88.2c-11.8 17.4-37.3 29.4-66.9 29.4-40.7 0-73.7-22.8-73.7-51s33-50.9 73.7-50.9a102.1 102.1 0 0 1 33.9 5.6c14.1 5.1 25.6 13.2 32.5 23.1h58.9c-4.3-8.4-10.7-16.1-18.8-23.1-23.5-20-61.3-33-103.9-33-71.2 0-129 36.2-129 80.9s57.8 80.8 129 80.8c60.7 0 111.6-26.3 125.3-61.8a53.8 53.8 0 0 0 3.6-19c0-1.4-.1-2.7-.2-4z" fill="#fff"/></svg>