<svg viewBox="0 0 237.9 131.3" xmlns="http://www.w3.org/2000/svg"><g fill-rule="evenodd"><path d="m180.6 128.6-11.3-.2c-18.6-.4-44.6-11.1-44.6-11.1l-20.4-8.2a154 154 0 0 0 -42.1-10.4h-1.1c-41.8-2.3-58.9 4.8-58.9 4.8 50.4-60.2 91.7-74.3 91.7-74.3-6.7-7.8-7.3-13-7.3-13-.6-5.5 5.2-4.7 5.2-4.7a51.5 51.5 0 0 0 13.9-1.6c7.6-2.4 18.8-4.5 18.8-4.5a177.1 177.1 0 0 1 31.9-2.7c21.5-.9 43.1 7 43.1 7 4.7 2.4 14 3 14 3 3.1-.4 2.9 1 2.9 1 .5 7.4-6 12.7-6 12.7 1.5 1.5 1.1 5.3 1.1 5.3 12.6 1 17.9 4.7 17.9 4.7-7-2.7-18-2.9-18-2.9-.5 3.5-.7 3.2-.7 3.2 17 .7 22.8 5.5 22.8 5.5-10.3-4-23.1-3.6-23.1-3.6l-.9 3.3c22.8 2.6 26.2 7.4 26.2 7.4-16.3-6.3-27.1-5.3-27.1-5.3a90.3 90.3 0 0 1 -21.1 34.3 29.3 29.3 0 0 1 .6 8.7s-.5 16.7-12.7 20.3v.2a152.6 152.6 0 0 1 5.1 21.1" fill="#2296cf"/><g fill="#fff"><path d="m165.2 21.3c-5.1-.1-11.7-1.6-18.4-1.2-.6-.8.6-1.8.6-2.8a42.5 42.5 0 0 0 -7.5-.7c8.9-3.8 20.6-.3 25.3 4.7z"/><path d="m202.2 21c-3.8.1-9.5-.1-11.9 2.2-1.1-5.5 9.2-5.2 11.9-2.2z"/><path d="m190.6 27.9c-3.7 2.6-7.6 5-9.4 9.4-1.8-5.3-6.1-8.1-10.9-10.3 6-2.3 15-1.2 20.3.9z"/><path d="m191.5 48.2c-1.6 5.9-3.5 11.5-7.2 15.4.3-3.1 2-8.1 1-12.5-3.6-2-10.6-1.3-14.7-.4-2.4 3.6-4.7 8.5-7.5 11.9-.9 1-1.8 2.7-2.9 2.2 2-4.2 3.4-11.4 1.6-16.6 7.3-3.6 22.5-3.9 29.7 0z"/><path d="m181.5 77c5.8 11.9-9.1 15.4-18.1 11.6a50 50 0 0 0 5.3-10.6 12.2 12.2 0 0 1 .3 7.8c7.3 2.4 12.5-1.9 12.5-8.8z"/><path d="m156.8 28.8a10.1 10.1 0 0 1 -2.8 2.2 119.2 119.2 0 0 0 -38.2-2.2c-.5-.1 0-.3.3-.3 12.2-2.7 28.8-2.2 40.7.3z"/><path d="m151.5 33.5c-.1 1.2-1.2 1.4-1.3 2.5-9.9-1.8-25.6-.7-33.8 0 9.9-2.5 22.7-3.4 35.1-2.5z"/><path d="m149 40.7c-9.7.1-22.2 1.7-31.9 2.9.8-.1-1.9.8 0 0 6.8-2.7 17.9-4.1 26.6-4.4 1.7-.1 5.4-1.6 5.3 1.5z"/><path d="m108.3 50.7c3.2 16.5 14.3 25.6 28.5 31.6.5.2 1.8.1 1.5 1-18-2.7-32.7-10.2-30-32.6z"/></g><path d="m156.5 62.9c-5.6 16.4-.8 40.2 18.1 38.2 6.4-.7 10.5-4.6 12.5-10.3-.9 10-6.5 18-19.3 17.2 4.1 5.7 9.6 12.9 12.8 20.6-45.1 1.3-68.4-21.9-106.7-28.4 4-15.9 12.9-26.9 23.5-36.3-15.7 8-27.5 19.9-36.3 34.7a217.8 217.8 0 0 0 -38.8.6c18.7-32.7 48.2-54.5 81.6-72.5-6.4 2-8.9-1.3-12.2-5.7-2-2.7-4.3-5.3-4-7.8 10.9.7 28.7 3.1 34.7-4.7 14.1-6.4 39.5-5.4 46 7.2.4-7.2-8.2-8.1-12.2-11.9 13.9 1.9 28.9 2.8 34.7 12.8 8.3-2.5 16.1 1.6 19.1 7.2-.9-4-2.7-7.1-5.6-9 3.7-.6 8.5-1.7 12.2-1.3.2 4.9-3.4 8.6-6.3 11.3-6.6-1.3-15.8-1.4-19.1 3.1 7.5 1.3 11.1 13.1 4.7 18.5 5.7-1.2 8.3-11.6 4.1-15.4 12.7 5.2 3.2 21.7-1.6 30.4a131.1 131.1 0 0 1 -10.9 16.9c.8 2.3.6 5.6.6 8.7-.3-12.2-11.7-21.4-5.3-33.4-11.1 9 3.8 20.4 1.8 31.6-1.3 7.4-14.1 11.1-21.9 6.8s-8.1-18.7-6.2-29.1z"/><path d="m139.9 16.6a42.5 42.5 0 0 1 7.5.7c0 1-1.2 2-.6 2.8 6.7-.4 13.3 1.1 18.4 1.2-4.7-5-16.4-8.5-25.3-4.7z" fill="#cfd1d4"/><path d="m190.3 23.2c2.4-2.3 8.1-2.1 11.9-2.2-2.7-3-13-3.3-11.9 2.2z" fill="#cfd1d4"/><path d="m170.3 27c4.8 2.2 9.1 5 10.9 10.3 1.8-4.4 5.7-6.8 9.4-9.4-5.3-2.1-14.3-3.2-20.3-.9z" fill="#2296cf"/><path d="m116.1 28.5c-.3 0-.8.2-.3.3a119.2 119.2 0 0 1 38.2 2.2 10.1 10.1 0 0 0 2.8-2.2c-11.9-2.5-28.5-3-40.7-.3z" fill="#2296cf"/><path d="m116.4 36c8.2-.7 23.9-1.8 33.8 0 .1-1.1 1.2-1.3 1.3-2.5-12.4-.9-25.2 0-35.1 2.5z" fill="#2296cf"/><path d="m143.7 39.2c-8.7.3-19.8 1.7-26.6 4.4-1.9.8.8-.1 0 0 9.7-1.2 22.2-2.8 31.9-2.9.1-3.1-3.6-1.6-5.3-1.5z" fill="#2296cf"/><path d="m161.8 48.2c1.8 5.2.4 12.4-1.6 16.6 1.1.5 2-1.2 2.9-2.2 2.8-3.4 5.1-8.3 7.5-11.9 4.1-.9 11.1-1.6 14.7.4 1 4.4-.7 9.4-1 12.5 3.7-3.9 5.6-9.5 7.2-15.4-7.2-3.9-22.4-3.6-29.7 0z" fill="#cfd1d4"/><path d="m138.3 83.3c.3-.9-1-.8-1.5-1-14.2-6-25.3-15.1-28.5-31.6-2.7 22.4 12 29.9 30 32.6z" fill="#2296cf"/><path d="m169 85.8a12.2 12.2 0 0 0 -.3-7.8 50 50 0 0 1 -5.3 10.6c9 3.8 23.9.3 18.1-11.6 0 6.9-5.2 11.2-12.5 8.8z" fill="#cfd1d4"/><path d="m151.5 15.2s-6.7-1.1-12.2 1.6c0 0 6.4.1 8.1.6 0 0 .9-2.1 4.1-2.2z" fill="#2296cf"/></g></svg>