<svg viewBox="0 0 404 209" xmlns="http://www.w3.org/2000/svg"><path d="m400.1 30.5c-51.3 11.4-53-18.9-129.7-25.9-103.3-9.4-191.1 35-260.6 39.6-15.1 1-13.4 13.8-2.6 16.2 26.1 6.7 53.1 6.4 77.9 3.5-.9 2-1.8 5.2.9 7.6 9.7 8.7 49 10.1 66.3 9.5l18.4-1.2c-3.5.2-9.3 11.2 2.4 14.6 72.6 22.2 106.3 56.5 144.7 110.3 16.1-1.8 31.5-21.2 25.3-36.3l3.4-8 11.9-5.4-2.9-26.9 18.1-8.3s29.4-76.3 31.2-81.8-1.7-8.1-4.7-7.5" fill="#fff"/><path d="m197.5 37.3c-50.6 2.1-111.8 30.1-188.8 15.6 68.6-8.1 121.2-30.2 185.1-38.2z" fill="#da2128"/><path d="m205.4 67.3c20.6-1.9 38.6-.9 58.1 11.8-41-5.3-61.3 6-87 8.1 90.1 26 122.3 78.4 144.2 107.5 15.8-6.5 16.9-20.4 13-25.4l4.2-8.8.3-5.7 10.9-4.9-2.9-27.6 20.4-8.1 28.2-74.4c-45.7 8.7-59.9-21.5-124.5-26.8a358.5 358.5 0 0 0 -72.3 1.2l3.2 23c14.9-.3 28.8 1.9 42 8.3a158.6 158.6 0 0 0 -40.6 2z" fill="#0a2240"/><path d="m202.4 67.5c-28 2.9-60.6 10.2-107.2.3 40.3-.3 70.8-13.5 104.2-19.7z" fill="#da2128"/><path d="m274.1 131.8c24.2 18 36.4 37.6 48.8 54.8 6.5-2.7 8.7-10.3 6.6-13.1l-6-7.8 7 .5 3.3-5.6-8.7-.7-9.8 1.6 10.1-6.8 7.5.6.4-4.4-7.7-3.9 2.7-2.9 14.4 1.1-3.6-32.7c-5.6-.8-10.4 2.2-12.7 10.5l-25.4-2c3.8-8.2 9.4-11.8 20-10.2-5.8-8.6-34.7-10-39.1 3.3l22.2 19.2 2.5 17.2-8.9-13.9c-8.2-7.4-16.8-12.8-23.6-4.8" fill="#d1d3d4"/><path d="m350.9 49.2 1.5 16.4 17.9 7.2-17 4 1.3 22.1-14.3-18.9-22 4.9 13.8-15.9-10.9-15.3 18.6 6.9z" fill="#fff"/></svg>