<svg viewBox="0 0 382.6 272.7" xmlns="http://www.w3.org/2000/svg"><path d="m280.8 271.3 9.2-2.4c11.3-2.8 18.6-4.7 22.8-6.7l3.7-1.8 2.1-3.5a205.5 205.5 0 0 0 21.8-58.2l9.4-8.5.2-2.2.3-3a75.6 75.6 0 0 0 .4-8.3 102.8 102.8 0 0 0 -1.2-15.4c16.4-9.1 23.4-22.3 27.8-33a77.1 77.1 0 0 0 5.3-28.7 93.6 93.6 0 0 0 -5.2-30.5c-5.6-16.3-18.2-39.3-46.9-56.2-17.9-10.5-43-15-67.3-12-28.2 3.5-52.5 16.9-68.5 37.6-1.2 1.6-2.4 3.3-3.5 5.1h-.5c-90.2 14.1-161.7 72.9-164.7 75.4l-26 21.5 33.5 2.7c59.1 4.8 100.9 25.4 125.6 41.9 27 18.1 40 35.3 40.2 35.4l8.7 11.9 11.2-9.6a34.9 34.9 0 0 0 5.2-5.6c0 .1.4.3.4.3l2.5 2.1a32.6 32.6 0 0 1 4.8 4.5 8.3 8.3 0 0 1 .7 3.2 11.7 11.7 0 0 1 -1.2 5.8l-.4.9c-1 2.3-2.8 5.6-2.8 5.7l-2.7 5 49.9 28" fill="#fff"/><path d="m230.1 203.9.6.5v-.2c-.1.1-.3-.1-.6-.3z" fill="#13264b"/><path d="m314.6 121.6-.8.8.5-.5z" fill="#13264b"/><path d="m327.5 17.9c-32-18.9-95-19-128.2 24.1a62.4 62.4 0 0 0 -4.6 6.8l-3.2.6c-88.5 13.8-158.9 71.5-161.9 74l-14.9 12.4 19.3 1.6c117 9.4 169.4 79 170 79.7l5.1 6.9 6.5-5.5a31.3 31.3 0 0 0 7.7-10.1l5.5 4.9c2.9 2.6 5.2 3.9 8.4 7.8a13.6 13.6 0 0 1 1.5 6.4 17.7 17.7 0 0 1 -2 8.9c-1.1 2.6-3.1 6.2-3.1 6.2l42.8 24 2.9-.8 9.3-2.4c10.7-2.7 18-4.5 21.7-6.3l2.1-1 1.2-2a201 201 0 0 0 21.4-58.2l9.1-8.3.3-3c.2-2.6.3-5.2.3-7.7a102 102 0 0 0 -1.8-18.6c17-8 24.2-20.5 28.8-31.9 12.5-30.7 2.7-80.8-44.2-108.5z" fill="#c9af74"/><path d="m360.8 66.6c-27.1-65.4-101.5-52.4-101.5-52.4h.6c3.8-.3 25.9-1.6 47.9 7.5 19.4 8 41.1 27.9 46.3 54.3a92.6 92.6 0 0 1 1.7 17.3v1.3a73 73 0 0 1 -6.7 30.4c-2.2 4.6-7.6 11.3-11.3 14s-5.9 3.2-8.1 3.2h-1.2l-1-.3c-2.1-.9-2.8-3.4-7.4-10a87.9 87.9 0 0 0 -7.1-8.6l1.1-1.1.5-.6 1.2-1.5a27.7 27.7 0 0 0 2.9-5.4c0-.1.1-.1.1-.2s.5-1.3.7-2c3.8-13.6-.4-34.6-17.5-48.2s-37.8-15.7-53.7-9.4c-26.8 10.7-42.9 42.9-23.8 69.3 9.3 12.8 24.3 13.6 33.7 6.4s14.6-27.3-6.9-38.3c17.3-1.5 38.3 19.2 28 45.9-.8 1.9-1.7 3.8-2.6 5.5-15 25.3-55.9 22.5-75.6-1s-22.4-53.6-13.2-79.2c.7-1.9 1.4-3.7 2.2-5.5-79.1 16.9-130.2 64.7-130.2 64.7 110.4 23 150.5 89.7 150.5 89.7a26.7 26.7 0 0 0 7.6-12.1c-7.7-12.6-4.3-24.3-4.3-24.3a49.6 49.6 0 0 0 7.9 19.1 123.1 123.1 0 0 0 8.6 8.9l.6.3v.2c5.5 4.9 12.1 10.4 13.3 12.5 6 10.7-.3 22.8-.3 22.8l33.5 18.3c7.5-2.1 24.9-5.9 29.7-8.2a194.9 194.9 0 0 0 21-58.3l8.8-8c3.2-9.2-2.5-29.3-2.5-29.3l2.2-.6a39.3 39.3 0 0 0 5.2-2.3c18.8-10.5 36.2-43.3 19.1-84.8z" fill="#13264b"/><g fill="#fff"><path d="m355.9 93.3a92.6 92.6 0 0 0 -1.7-17.3c-5.2-26.4-26.9-46.3-46.3-54.3-22.1-9.1-44.1-7.8-47.9-7.5l-2.7.3c-30.1 4.3-48.4 25.8-48.4 25.8 27.2-21.3 68.1-23.8 95.2-12.7s46.7 33.6 51.9 67.1v-.3a4.1 4.1 0 0 1 -.1-1.1z"/><path d="m268 224.7c.3-1.3 4.2-1.6 4.2-1.6a22 22 0 0 1 -1.8 17c-.2-4.5.6-12.7-2.4-15.4z"/><path d="m200.9 142.5c-19.2-22.9-22.4-53.6-13.2-79.2-5.5 8.5-18.1 33.6-2.5 68.2 18.9 42 70.8 43.6 88.3 17.4a60.3 60.3 0 0 0 3.1-5.3c-15 25.3-56 22.5-75.7-1.1z"/><path d="m300.5 180.7a6.3 6.3 0 0 1 6.3-6.3h.3a26.2 26.2 0 0 0 -5.2-11 27.1 27.1 0 0 1 -.6 6.9 10 10 0 0 0 4.7 18.9 19.3 19.3 0 0 0 .8-2.3 6.1 6.1 0 0 1 -6.3-6.2z"/></g><path d="m307.4 183.5-.2.5a3.3 3.3 0 0 1 -4.2-1.9 3.8 3.8 0 0 0 4.6-.5h.1a5 5 0 0 1 -.3 1.9z" fill="#13264b"/><path d="m307.7 181.3h-.1a3.8 3.8 0 0 1 -4.6.5 3.2 3.2 0 0 0 4.2 1.9l.2-.5a4.7 4.7 0 0 0 .3-1.9z" fill="#fff"/><path d="m327.1 179.7c.8-31.8-25.8-52.9-25.8-52.9s19.5 24.3 17.2 52.8l-5.3 4.9a89.5 89.5 0 0 1 -7.8 38.9c-7.8-14-24.9-23.3-32-25-4.8 2.7-15.5 8.6-21.7 15.5a23.9 23.9 0 0 1 2.8 6.8 36.9 36.9 0 0 1 -.9 17.6s11.9 6.6 11.7 6.3c3.2-11.2-1.1-16.3-4.4-22.1 3.2-1.9 10.6-6.1 14.1-7.6 3.5 4.8 5.3 12.8 1.5 24.2-1.1 3.4-2.8 6.9-3.8 9.3a33.8 33.8 0 0 0 4.6 2.4c6-1.2 11.5-5.3 13.6-11.1a7.4 7.4 0 0 0 .1-4.4 11.6 11.6 0 0 1 -2.4 2.6c-1.5-3.6-1.6-6.4.4-8.5a4.8 4.8 0 0 1 3.5-1.6 4.3 4.3 0 0 1 4.2 2.7c3 7.3-3.9 15-3.9 15s6.6-.3 8.5-1.2c3.9-7.9 15.9-33.5 19.3-59.3z" fill="#fff"/></svg>