<svg viewBox="0 0 286.2 152" xmlns="http://www.w3.org/2000/svg"><path d="m210.7 33.3a17.4 17.4 0 0 1 -2.2 8.8c-2.4-8.9-14.8-20.5-14.8-20.5 2.2 2.7 1.5 8.3 1.5 8.3s-7-4.8-7-4.8c-12.1-8.6-32.1-17.6-62.6-17.6-77.3 0-110 49.7-111.4 51.8 0 0-7.5 10.8-9.5 16.9l16.4-9.9c.2 0 13.7-8.3 34.8-8.3 1.6 0 5.5.2 6.3 2 2.1 4.2-4.3 17.2-11.7 26.6l-15.7 20.2 22.2-12.8c.1 0 9-5 23.8-5a11.5 11.5 0 0 1 4.7.7 9.8 9.8 0 0 1 -1.7 3.7l-10.9 14.7 16.9-7c.1-.1 10.5-4.3 25.3-4.3 8.8 0 14.7 1.7 16.4 4.6s-.4 7.2-1.2 8.6l-3.4 5.8 6.5 1.7c.8.2 1.7.4 5.5-.4 0 .6-.1 1.1-.1 1.6a31.4 31.4 0 0 0 4.4 15.5l6.7 10.3 2.5-12c2.2-10.7 10.8-15.3 16.1-17.1l1.5 5.7 5.3-2.1c4.7-1.9 12.5-7.7 15.4-9.8a95.3 95.3 0 0 1 15.7-1.3c4.4 0 9.5.4 14.9.8s14.5 1.2 22.8 1.2a142.2 142.2 0 0 0 27.3-3l9.7 6.4.4-8.9c0-.8.1-1.5.1-2.2 0-18.7-11.6-30.5-24.1-37.3h.8l-13.5-8.5c-1.9-1.1-5.5-2-9.2-2.7a11.1 11.1 0 0 1 .7-1.3l-6-1.6a43.9 43.9 0 0 0 -14.8-1.5 18.7 18.7 0 0 0 -4.8-16z" fill="#d1b336"/><path d="m18.5 62.1s31.6-49.5 107.1-49.5c55.5 0 74.1 30.9 74.1 30.9s1-4.7-.4-7c0 0 6.4 6.7 6.8 14.8 0 0 3.7-3.7 3.7-5.1s1.7 5.8 0 9.1c0 0 7.7-2.7 19.2.4l-1 2s11.4 1.3 14.1 3c0 0-6.4.4-6.4 2 0 0 42.4 6.4 40.8 41.5l-4.1-2.7a134.7 134.7 0 0 1 -28.3 3.3c-14.8 0-27.6-2-37.7-2a91.5 91.5 0 0 0 -17.8 1.7s-10.1 7.7-15.2 9.8l-1.3-5.1s-20.6 3-24.6 22.2c0 0-6.8-10.4-1.7-21.2 0 0-9.8 2.7-11.1 2.4s12.8-20.9-19.6-20.9c-16.1 0-27.2 4.7-27.2 4.7s9.4-12.4-7.1-12.4-26.3 5.7-26.3 5.7 28.7-36.7 1.4-36.7c-22.9 0-37.4 9.1-37.4 9.1z"/><path d="m187.5 66.1s-22.2-4-31.8 1.5c0 0 24.8 0 34.4 5.6 0 0-44-6.1-62.2 8.6 0 0 26.8-6.6 47.5-4.6 0 0-7.6 3 .5 8.1s13.2 6.1 11.1 14.7l4.2-6.3 4.8 4.7s12.1-1 20.5 0 19.9 2.1 26.3 2.1 23.9-2.4 23.9-2.4-36.7-14.5-69.7-14.5c-3.7 0-7.8.7-5.4 4.7 0 0-11.5-5.6-11.5-8.6s8.8-1.5 8.8-1.5c4 0 76.8 7.4 84.2 20.6 0 0 0-30-60.3-36.1l6.7 5.8-10.7-1 6.4 5.7s-16.9-5.7-27.7-7.1z" fill="#fff"/><path d="m35.5 50.9s33.3-33.3 89.9-33.3c49.5 0 70.7 27.8 70.7 27.8s9.1 13.6 4.1 18.7-6.1-12.6-18.7-16.7l10.6 3.5s-11.6-15.1-31.3-11.6c0 0 11.1 2.6 14.1 6.1 0 0-24.7 2.5-25.8 4.5 0 0 19.2 4.1 20.3 7.1 0 0-18.2.5-23.3 5.1 0 0 33.9 1.5 41.4 4 0 0-22.2-4-31.8 1.5 0 0 24.8 0 34.4 5.6 0 0-44-6.1-62.2 8.6 0 0 26.8-6.6 47.5-4.6 0 0-7.6 3 .5 8.1s13.2 6.1 11.1 14.7c0 0-4 6-10.1 8.5l-.5-7s-19.2 1.5-27.8 19.2c0 0 1.6-14.7 5.6-18.2l-11.1 3.5s11.1-18.2-16.7-19.7-29.3 3-29.3 3 3.6-13.6-27.8-8c0 0 29.8-49-33.8-30.4z" fill="#2d2062"/><path d="m149 29.8c-3.1-4.5-10.6-6.6-23.1-6.6-35.2 0-55.1 10-55.9 10.4l-13.6 7.5 15.6-1.8c.3-.1 22.1-4.9 39.5-5.4-23.4 3-31.6 41.5-32 43.2l-.8 3.8 36.2-1.7.8-1.2c1.5-1.7 12-6.5 20.9-10.1l1.2-.4 3.2-7.1v-.5a3.7 3.7 0 0 0 .1-1.1 8.3 8.3 0 0 0 -1.9-5.1 15.9 15.9 0 0 0 -6.9-4.1c13.6-3.4 17.5-12.8 17.6-13.2a7 7 0 0 0 -.9-6.6zm-45.5 41.1c1.9-5 5.8-13.8 6.7-16.4 2 0 11.8-.5 11.8 5.2 0 2.7-4.5 11.3-18.5 11.2zm9.9-23.8c1.7-3.5 5-11.9 5.7-13.3 2.4.3 11.2 1.2 10.7 5s-5.5 8.4-6.8 8.9z" fill="#fff"/><path d="m118.3 50.4-9-.5 5.5-13.1c-23.7-.5-32.3 40.9-32.3 40.9l30.8-1.5c2-3 22.2-11.1 22.2-11.1l2.5-5.6c1.2-8.7-19.7-9.1-19.7-9.1zm6.6 10.7c-4.8 13.1-22.7 13.1-25.8 13.1l9.7-22.7s19.9-.9 16.1 9.6zm1-34.9c-34.8 0-54.5 10.1-54.5 10.1s31.8-7.1 50-5.1c23.7 2.7 6 16.2 6 16.2 15.7-2 19.7-12.1 19.7-12.1s3.6-9.1-21.2-9.1z" fill="#d1b336"/><path d="m179.5 50.5a5.3 5.3 0 1 1 -5.8 5.3 5.6 5.6 0 0 1 5.8-5.3z" fill="#c6332c"/><path d="m180.6 51.3a5.4 5.4 0 0 1 5.3 5.4 5.3 5.3 0 1 1 -10.5 0 5.3 5.3 0 0 1 5.2-5.4z" fill="#fff"/><path d="m181.7 53a4.1 4.1 0 0 1 4.2 4 4.3 4.3 0 0 1 -8.5 0 4.1 4.1 0 0 1 4.3-4z" fill="#c6332c"/><path d="m182.7 53a3.9 3.9 0 0 1 0 7.7 3.9 3.9 0 0 1 0-7.7z"/></svg>