<svg xmlns="http://www.w3.org/2000/svg" viewBox="0 0 247.1 246.8"><defs><style>.a{fill:#fff;}.b{fill:none;stroke:#fff;stroke-width:2.58px;}.c{fill:#f1c817;}.d{fill:#010101;}.e{fill:#57211b;}.f{fill:#0c130f;}</style></defs><path class="a" d="M77.8,186.3a6.1,6.1,0,0,1-2.6-.2,28.9,28.9,0,0,0,1.2,5.8l-1,1.1,1.2.9c-1.3,8.4,2.6,14.2,4.4,19.9a6,6,0,0,1-4.2-.2c.4,4.7,0,14-4.2,18-.8-.5-1.4-.6-1.7-1.1a55.8,55.8,0,0,0-2.4,5.3,47.3,47.3,0,0,0-1.6,9c-3.5-1.6-7.2-3.3-10.6-8.6a15.6,15.6,0,0,0-3.2-3.9,4.1,4.1,0,0,1-1.3,1.7,11.2,11.2,0,0,1-3.3,1.7,19.3,19.3,0,0,0-2.4-6.5c-1.3-2.6-5.8-6.2-9.5-14.8a37.5,37.5,0,0,1-2.8-9.6l-.7.2c-1.4.4-2.4.3-2.8-.7a11.4,11.4,0,0,1-3.8,5.3c-.6,1.6-.5,2.1-1.7,3.4a9.7,9.7,0,0,0-2.3,5c-1.3,3-3.2,4.4-3.5,5.2-.5-.9-.7-.8-1.1-1.5-4.7,5.7-5.2,7.2-15.7,9.2,2.6-4.8,4.4-12.8,4.2-14.5-1.3-11.2-2.5-13.5-3.2-22.3a163.9,163.9,0,0,1-.4-29.3c1.1-17.2,6.4-32.1,10.9-43.3,5.9-15.7,19.3-40.9,29-56.3v-14h3.7l4-8.4L52.3,44l6.8-16.7,4.8,12.6,8.2-4.7c3.3-2.8,26.7-34,76.3-33.9,48-.1,97.4,34.6,97.4,89.9,0,50.3-44.5,89.1-95.9,89.1-39.9,0-65.5-18.7-79.1-35.8C71.6,153.1,69.8,170.2,77.8,186.3Z"/><path class="b" d="M77.8,186.3H75.2l.4,2.7.4,1.8.3,1v.3l-1,1.1,1.2.9v5.9l1.2,5.1,1.7,4.6,1.6,4.3-2.2.3-2-.5v4.2l-.5,5.1-1.3,4.8-2.5,3.9-1-.6-.7-.5-.5.9-.4,1-.6,1.3-.9,2.1-.9,4.1-.7,4.9-2.7-1.3-2.6-1.6-2.7-2.3-2.6-3.4-.6-.9-.6-.9-.8-1-1.2-1.1-.5.9-.8.8-.9.6-1.1.6-.9.4h-.4l-.8-3.1-1.6-3.4L44.6,227l-2.3-2.9L39.5,220l-2.9-5.6-1.7-4.8-1.1-4.8-.7.2-1.8.2-1-.9-1.9,3.5-1.9,1.8-.4,1-.3.8-.3.8-.7.8-.8,1-.5,1-.5,1.2-.5,1.8-1.1,1.9-1,1.5-.9,1.1-.5.7-.6-.8-.5-.7-1.6,2-1.4,1.6-1.3,1.3-1.4,1.1-1.7.9-2.1.8-2.7.7-3.5.8L4,226.8l1.4-4.3.8-3.8.3-2.3-1-7-.9-5.1-.8-4.6-.6-5.6-.4-4.4-.3-6.5-.2-8.4.5-10,1.5-12.4L7,140.9l3.3-10.3,3.4-9.1,2.5-6.3,3.1-6.9,3.6-7.4,3.9-7.7,4-7.6,4.1-7.3,4-6.9,3.8-6.2v-14h3.8l3.9-8.4L52.3,44l6.8-16.7L63.9,40l8.2-4.8.9-.9,1.3-1.4L76.1,31l2.4-2.3,2.8-2.6,3.3-2.9,3.9-3,4.4-3,4.9-3.1,5.5-2.9,6.1-2.6L116,6.2l7.2-2L131,2.6l8.4-1,9-.3,9,.4,8.9,1.2,8.9,1.9,8.6,2.7,8.4,3.5,8.1,4.1,7.6,4.9,7.2,5.5,6.6,6.1,5.9,6.8,5.3,7.4,4.4,8,3.6,8.6,2.7,9,1.6,9.7.6,10.1-.5,9.3-1.5,9-2.4,8.6-3.3,8.2-4.2,7.9-4.9,7.3-5.6,6.8-6.3,6.3-6.9,5.7-7.4,5.1-7.9,4.4-8.4,3.7-8.7,2.9-9,2.1-9.4,1.4-9.5.4-14.3-.8-13-2.4-11.7-3.6-10.4-4.7-9.2-5.5-8-6-6.9-6.4-5.6-6.4.2,3.6v4.3l.2,4.8.3,5.4.7,5.7,1.2,5.9,1.8,6.1,2.5,6"/><path class="c" d="M148.5,176.2c51.1,0,92.5-38.3,92.5-85.4S199.6,5.4,148.5,5.4,55.9,43.6,55.9,90.8,97.4,176.2,148.5,176.2Z"/><path class="a" d="M148.5,164.2c44,0,79.6-32.8,79.6-73.4s-35.6-73.5-79.6-73.5S68.9,50.2,68.9,90.8,104.5,164.2,148.5,164.2Z"/><path class="d" d="M98.4,83.8s-6.6,14.6-6.3,26.1c0,0,2-4.4,2.8-3.6s-5.9,18.1-1.5,28.4a16.4,16.4,0,0,1,2.6-4.6,33.2,33.2,0,0,0,3.4-6.4,12.6,12.6,0,0,1,.7,3.4,15.1,15.1,0,0,0,2.7-4.3,40.2,40.2,0,0,1,2-4.6l.7.4s4.5-5,6.2-9.5c0,0,1.3-.2.6,3.4a12.6,12.6,0,0,0,3.8-8.5l.7.8c3.2,3.6,3.2,9.1,3.1,12.4-.8,10.9-6.8,16.8-14.4,23.1l.7.5c11.2-1.9,18.6-3,30,0a117.3,117.3,0,0,1,19.9,8.6s11.3,4.5,19.2,4.5c0,0,.4.2.4-.2s-.8-2.7-.1-12.9l1.5-7.9a20.3,20.3,0,0,0,1-6.6c0-.4-.4-3,1.6-2.8,4.3.6,6.7-.3,10-.9a43.9,43.9,0,0,1,4.9-1,17.4,17.4,0,0,0,4.3.2,12.5,12.5,0,0,0,3.9-2.6s1.7-1.6.6-5.3c0,0-1.2-3.4-.5-4.5a12.7,12.7,0,0,1,2.4-3.6s1.1-1.6-.3-2.4-.8-.8.5-1.1a3.2,3.2,0,0,0,1.5-.2s.4-.1.4-.8a9.2,9.2,0,0,0-2.1-7l1.3.3s3,.3,4.5-.4,3.4-1.6,3.1-5.8-2.3-5.5-3.8-9.4-2-6.3-5.8-9.2c-2.3-.9-3.3-2.5-1.6-4.1s.8-5.1-1.5-7.4a24.8,24.8,0,0,1-4.8-6.9,35.3,35.3,0,0,0-3.5-4.8c-1.2-1.3-2.9-2.1-5.9-5.4a6.7,6.7,0,0,1-2.1-3.1c-2.5-3.6-9.6-8.7-17.7-9.3l-4.1-.4c-2.8-1-11.7-1.2-17.7.3l-5.8,1.1a32.6,32.6,0,0,0-8.2,2.9c-2.4,1.2-5.9,3.9-8.5,5.6s-9.2,6.5-12.7,8.6a87.5,87.5,0,0,0-16,14.6s-8.6,9.9-12.8,27c-.3,2.6-1.1,5.2-.6,8,0,0,3.8-7.5,7.3-9.9a19.6,19.6,0,0,0-.8,3.7,21.7,21.7,0,0,1,2.5-3.6s1.4-1.3,3.3-3.4c0,0,3.9-4.8,5-5.3a14.3,14.3,0,0,0-1.9,6.8,6.6,6.6,0,0,0,1.2-1.2s.4-.7.7-.6A.9.9,0,0,1,98.4,83.8Z"/><path class="e" d="M212.2,91.4c1-1.9.8-3.7-.6-6a21.9,21.9,0,0,1-2.1-4.6c-.3-.8-.9-2.3-1.5-3.6a16,16,0,0,0-2-3.9c-1.9-2.5-3.4-2.7-4.5-3.8h-.4c-1.1.7-1.1,2.2-2,3.3s-.4.3-.6.2a3,3,0,0,1-.8-.8c-.3-.5-.6-.2-.9.2a.5.5,0,0,0-.5.3c-.3.3-.1.4.1.8s0,.3.2.5l-.2.2c-.1.2-.4.1-.6.1l-1.1-.3c-.6-.3-1-1.1-1.5-1.4a1.1,1.1,0,0,0-1.1.1.6.6,0,0,0-.2.8,12.7,12.7,0,0,0,1.3,1.1c.6.5,1.3.8,1.4,1.4s-1.1,1.1-1.7.7l-1-.8c-.1,0-.2-.3-.2-.3l-.8-.6a2.2,2.2,0,0,0-1.1-1c-.1,0-.2-.2-.3-.3s.1-.8-.1-1.1-.2-.7-.6-.6-.3.4-.8.4-.1-1-.1-.9l.2-.3c-.4-.1-1-.4-.5-.9s.7.2.8-.1l.5-.7c.5-.2.6.1.6.1s.4.8.9.6.1-.4.1-.5a5.5,5.5,0,0,1,2-1.7c.1-.1.3-.1.3-.2s.5-1,0-1.2-1.2,0-1-.6.5-.5.7-.6l2.8-1.1a2.5,2.5,0,0,1,.9-.4,4.8,4.8,0,0,1,2.3.2l1,.3a1.9,1.9,0,0,0,2.3-.6,2.8,2.8,0,0,0-.1-2.8,10.3,10.3,0,0,0-2.3-2.7c-1-1-2.3-1.5-2.6-2.8a18.6,18.6,0,0,0-2.4-4.9,35.9,35.9,0,0,0-2.5-3.3c-.2-.3-1.7-1.6-1.9-1.9a8.9,8.9,0,0,0-4.2-2.5c-.9-.3-4.4-.1-6.3-.4s-2.3-.1-2.8-.9a5.8,5.8,0,0,0-1.9-2.5l-1.2-.5c-1.6-.8-3.4-2.1-5.1-2s-.1.6.1.7a4.3,4.3,0,0,1,1.6,1.3c.5.5,1.5.5,2.4.9s1.5.8,2.2,1.1,1.7,1.6.9,2-1.5-.1-2.4.2h-1.6c-1.5.2-2-.4-3.2-1.2s-1.8-1.9-2.9-2.6a19,19,0,0,0-4.3-2.1h-1.1c-.6-.3-1-.9-1.6-.9a5.9,5.9,0,0,0-2.3,0c-.2,0-.6.4-.8.4s-1.4-.2-1.8.2.2.5.8.8a8.4,8.4,0,0,0,1.7.5,9.7,9.7,0,0,1,4.6.7,7.6,7.6,0,0,1,.9.9c-1.5,0-3.7-.5-5.3-.4,2.7-.2-2.9.1-4.1,0s-.3.7.2,1.1,1,0,1.1.2a6.5,6.5,0,0,1,2.4,0l.9.5c.4.1.7.4,1.2.4s.6-.9,1.2-.6l.7.3c3.3-.1,3.3.9,4.9.9s1-.2,1.2,0a2.4,2.4,0,0,0,2.2.1s2.1,5.4,1.6,15.2a43.6,43.6,0,0,1-1.9,8.4s-1.5,5.4-1,9.1a50.9,50.9,0,0,1-8.1,30c-1.7,1.9-2.6,3-.9,4.4,3.6,3,6.5,3.7,11.6,4.8a14.9,14.9,0,0,0,4.6.6,19.1,19.1,0,0,1,8.7,2.4c1.8.9,6.6,2.5,9.5,2.1a13.6,13.6,0,0,1,4.6.8,4.6,4.6,0,0,0,2.6.1l1.5-1c.1-.5,1.5-1,1.2-2.8a27.4,27.4,0,0,0-.9-3.9,3,3,0,0,1-.5-3c.9-1.5,1.9-2.3,2.4-3.1s.4-2-1.1-2.4a17.7,17.7,0,0,0-3.7-.3,10.6,10.6,0,0,0-2.6-.1,8.7,8.7,0,0,0-1.2.9l-.6-.4a6,6,0,0,1,1.6-2.2,10.5,10.5,0,0,0,3.5.1l2.9-.9a24.7,24.7,0,0,1,3.8.1,6.2,6.2,0,0,0-2.1-6c-.7-.6-1.3-1.4-2.3-1.4a9.5,9.5,0,0,1-6.2-1.3c-.8-.1-1.1.3-1.6.8a7.2,7.2,0,0,1-2.7,2.6h-.8s.7-1,2.2-2.8a17.1,17.1,0,0,1,2.5-4c.5-.8.6-2.7,1.9-3.2s.7-.1,1.2.1-3.6,3.8-.9,5.6,2.9.9,3.3,0a3,3,0,0,1,.9-1,4.3,4.3,0,0,1,3.1.7,9.4,9.4,0,0,0,2.3,2.1,4.7,4.7,0,0,0,2.3.3C210.9,93,211.9,92.1,212.2,91.4Z"/><path class="e" d="M192.5,71c.5.3.8.2,1.9.4a3.2,3.2,0,0,0,2-.6c.1-.1.9-.5.8-.8s.2.9-.1-1.1c-.1-.4-.1-.8-.2-1.3a.9.9,0,0,0-1.1-.4l-1.1.8c-.5.9-1.3,1-1.6,1.6l-.7,1C192.3,70.8,192.2,70.9,192.5,71Z"/><path class="f" d="M201.2,84.1c1.6-.4,2.4.3,4.1,1.4s.6.7.2,1a.6.6,0,0,1-.6-.1,5.6,5.6,0,0,0-3.8-1.6A.4.4,0,0,1,201.2,84.1Z"/><path class="f" d="M191.5,99.4a16.7,16.7,0,0,1-.8,2c-.3.7-.2,1.5-.7,2.1a.6.6,0,0,1-.9-.1,5,5,0,0,1,.5-3.6,1.7,1.7,0,0,1,1.8-.6c0,.1.2.2.1.3Z"/><path class="f" d="M175.3,91.4a1.1,1.1,0,0,1-.8-1.1c.2.1.1-.2.2-.2s2.2.5,3.3.5a8.3,8.3,0,0,0,3.8-.7,27.3,27.3,0,0,0,4.1-2.2,7.8,7.8,0,0,1,2.3-.7c1.2-.3,1.1-.9,2-1.4s1.3-1.2,2-1-.2.5-.4.7a6.1,6.1,0,0,0-1.6,1.6l-1,.9c-1.5,1.1-1.8,2-3,3.3a14.6,14.6,0,0,0-1.3,2.5,10.1,10.1,0,0,1-.7,1.5c-.1.2-.7.1-.8.2a16.4,16.4,0,0,0-2.6,2.7c-.1.2-.5.2-.5.1a3.2,3.2,0,0,0-2.9-1.9c-.3,0-.6-.5-.5-1a.5.5,0,0,0-.3-.3c-.2-.1-.3-.3-.5-.3a.5.5,0,0,1-.5-.5,21.9,21.9,0,0,1-.4-2.7Z"/><path class="a" d="M154.4,115.6c-.3-.9-1.8-.8-2.9-.7a13.6,13.6,0,0,0-4.7,1.2c1-1.5,2.3-1.5,4.8-2.4.5-.2.4-1.1.1-1.7a2.2,2.2,0,0,0-1.2-.7,6.8,6.8,0,0,0-3.8.4,18.7,18.7,0,0,0-9.4,6,1.5,1.5,0,0,0-.3,1.6c.4.5,1,1.8,1.1,1.6s3.4-2.9,5.4-2.4c-.9.2-3.9,1.6-4.8,3.6-.1.2.4.9.9,1.3a7.4,7.4,0,0,0,1.5,1.9,3.9,3.9,0,0,0,1-.8c2.1-2.6,4.1-4.1,9.9-4.8,1.6-.3,2.6-.7,2.7-2.1a2.9,2.9,0,0,0-.3-2.1"/><path class="a" d="M147.5,123.7c.1,1.3-.1,1.9.3,2.7a19.4,19.4,0,0,1,1.5,2.4c.2.6,1,1.4,1,1.9a1.4,1.4,0,0,1,.5.6c.5.6,2,1.3,1.4,1.7s-2.4.1-3.5,0-.6.9-.3,1.1,4.5.7,5.4,1.2a3.9,3.9,0,0,1,1.7,1.3,4.4,4.4,0,0,0,.8,1.1,14.2,14.2,0,0,0,2.3,2.5c.5.4,1.1,1,.9,1.6s-.7.8-1.4.7a5,5,0,0,1-1.5-.5c-1.4-.4-1.6-.8-2.6-.4s.3,1.1.8,1.3c2.4,1.2,5.3,1.2,7.6,2.5a4.9,4.9,0,0,1,3,5l.8.4c.6-1,2.3.2,3.2,0a.6.6,0,0,0,0-.6c-.4-.6-1.3-.6-1.6-1.1s.1-1.2-.1-1.7-1.1.4-1.4,0-2.5-3.1-4.5-4a13.6,13.6,0,0,0,1-5.7c-.6-.4-.8.3-.9.3s-.3,1.4-.9,2a1.3,1.3,0,0,1-1-.2,8.9,8.9,0,0,1-3.3-3.9l-.4-.4a3.5,3.5,0,0,1,.2-4.5,1.5,1.5,0,0,0,.2-1.1c-.2-.1-.7.2-.9.4s-1.2,1.8-2.2,1.7-1.8-1.3-2.5-2-.7-1.3-.6-1.4-1.1-2.5-2.1-4.2A1.3,1.3,0,0,0,147.5,123.7Z"/><path class="e" d="M154.7,147.2c1.2.6-.2-.8-.2-.8a9.2,9.2,0,0,1-1.8-2.2c-.5-.9-.9-1.5-1.2-2.2a11.2,11.2,0,0,0-2.9-3.1,13.2,13.2,0,0,1-2.5-2.8c-.7-1.4-1.1-3.8-2.9-4.9s-1.1-1.9-2.3-3.7-1.4-.7-2-1.3-.7-2.3-2.2-3.7a6.8,6.8,0,0,1-1.5-1.8c-.8-1.3-.2-2.9-1.5-3.5a16.8,16.8,0,0,0-2.7-.9,18.3,18.3,0,0,1-4.2-2.1l-5.9-4.5c1.5,10.7-.6,19.8-12.1,29.4C130.2,135.4,139.5,140,154.7,147.2Z"/><path class="e" d="M162.7,133.5c.1.9.4.7,1,1.9a7.7,7.7,0,0,0,1.3,2,8.7,8.7,0,0,1,3.6,7c.1,1.3.2,1.2,1.6,2.1l1.1.9,2.6,2.4c-.1-.8.1-2.1,0-2.5-.1-4.1.8-8.4-.7-12s-3.7-5.7-4.7-8.5l-.5-1.5a29,29,0,0,1-.6-4.5l-3.1-1.4-7.8-2.6c0,1.2.2,2.1-.8,3.3.6,1.5,1.2,4.8,2,5.5a11.8,11.8,0,0,1,4,6.1C162,132.5,162.7,132.9,162.7,133.5Z"/><path class="a" d="M124.4,40.8s-1.9-.1-6.3,3-11.4,6.8-16.2,12.1c-3.4,3.2-8.3,8-10.1,11.4A41.5,41.5,0,0,0,87,78.5s.7,2.3,2.6-.7c3.3-5.1,15.8-22.6,33.8-35.3h.8c-8.9,7-20.4,16.5-31.6,32.7l-1,1.7c-.5.9.8,1,.2.9,1,.2,1.4-1.1,2-1.4s.6,1,1.2.7a12.7,12.7,0,0,0,4.9-4.5,15.1,15.1,0,0,0,.6,1.5c1.1.2,4.3-3.8,6-6.6.4.5-.1,1.8.5,1.2a30.8,30.8,0,0,0,4.7-5.1c1.2-2,2.5-2.8,3-6.2a2.4,2.4,0,0,1,.9.8c.5-.6.5-1.1,1.3-1.9s1-1.5,2-2.1a5.5,5.5,0,0,0,1.2-2.3c.2-.7,1.8-2.8,1.9-3.6s3.6-3.5,5.2-5.2S127.6,39.7,124.4,40.8Z"/><path class="a" d="M107.8,108.8c.6.7,1.2-.2,1.2-.2a12.5,12.5,0,0,0,2.1-4c.5-1.3,1-1.8,1.5-7.5,1.3,1.9,1.5,5.4,1.5,5.4h.4s1.2-3.3,3.3-4.3a7.7,7.7,0,0,1,2.3-4.3c-.3-1.4-.5-2.4-.8-4.5a36.8,36.8,0,0,1-.5-13.3c1.7,8.4,2.7,9.6,2.7,9.6h.4a10.4,10.4,0,0,0,1.1-4.3c.8-3.3,2.3-3,2.3-3.7-.4-2.7-1.2-6.9-.7-10.6.9,4,1.4,3.8,2.1,5.3s.9-.5.9-.5c-.2-2.3,1.6-4.7-.1-10.2-.7-3.7-2.5-11.7-1.8-13.5s-.4-1.5-.4-1.5-2.4.5-6.1,10.1c-5.4,15.9-10,32.9-15,46.6,1.5-7.2,9.5-32.7,11.9-41.9,0,0-.3-.7-.9.1a8.7,8.7,0,0,0-1.5,2l-.7.2-1.2,1.7a94.7,94.7,0,0,1-8.8,9.2,28.3,28.3,0,0,0-2.7,4.8c-.4.9.2,1,.9.5a34.1,34.1,0,0,1,4.3-3.3l2-.7a3.8,3.8,0,0,1-.8.7,26.2,26.2,0,0,0-2.8,3L100,86.3a62.3,62.3,0,0,0-3.4,7.1c-1.1,2.7-.8,3-.8,3s.6,1.1.6,1.1-.9,2,.2,1.6a2.4,2.4,0,0,0,1.4-.8l1.4-1.5c.6-.7.5-1,1.2-1.7s1.4-1.7,2.3-2.1a7.2,7.2,0,0,0-1.6,3.4l.4.4.2.2s-1.6,1.8-2.3,5.9c-.4,2-.3,2.3-.6,3.3a3.9,3.9,0,0,0,1.9-.7,13.5,13.5,0,0,0-.5,1.8,12.1,12.1,0,0,0-.1,2c0,1,0,.6.4,1.8a6.6,6.6,0,0,0,3.6-2.4c.8-.6,1.4-2.2,1.6-2.1s.1,1.1-.1,1.4a7.3,7.3,0,0,0-.6,1.4c-.1.2-.3.5.1.8h.5a1.6,1.6,0,0,0,.6-.5l.3-.3a1.2,1.2,0,0,1,.5-.5S107.5,108.7,107.8,108.8Z"/><path class="f" d="M64.1,55.2h-2l6.5-13.7-8,5.8-1.8-8.6L54.6,50.5,52.5,49l-3,6.4H47.2v6.8H61.1Z"/><path class="f" d="M52.3,61.9l7.4,4.5.7-2-4.3-2.6Z"/><path class="f" d="M54.4,60.9l3.9,3.8s-3.1,12.1-2.5,18.7c5.8,5.1,10,10.1,9.3,21.2,0,0,.4.3-2-.4,1.2,1.2,1.6,2.2,2.6,4.3a38.6,38.6,0,0,1,.5,9.5s.3,7.8.5,10.2c1.2.4.5,3.1.6,6.8a26.1,26.1,0,0,1-.5,4c-2.3-1.7-2.1-1.6-2.8-1.5.6,1.8,1,1.8,2.1,3.2,0,10.3.4,21,1.1,25.7s1.1,7.3,1.3,8.5.6,3,2.3,6.3a4.1,4.1,0,0,1-3.2-1.2c1.5,2.6,1.5,2.1,2.4,2.9l1.4,9.1-1.5,1.6,2,1.2a39.2,39.2,0,0,0,.1,7.8,18.1,18.1,0,0,0,2.2,5.9,2.9,2.9,0,0,1-3.2-2c-.8-.8-2.1-2.5-2.5-2.5-.1,2.5,1.4,3.5,2,5,1.9,4.2,2.2,8.3.5,16.2-1.9-1.6-2-3.1-3.4-3.9-.2,4.5-.4,5.9-1.3,7.9-2,3.6-2.6,5.4-2.7,8.9-3.3-2.5-4.1-6-6.4-8s-4.8-4.3-5.9-6.1c-.2,2.2,0,3-1,5.1-.7-2.5-.8-3.2-2.6-5.2s-7.7-9.8-8.9-17c-.3-1.2-1-4.8-1.9-9.7-.6,1.7-1.8,3-2.9,3.2s-.6-.4-.6-.4a10.8,10.8,0,0,0,.5-4.6c-.3-1.9-.8-6.2-1.9-7.2h-.4a7.6,7.6,0,0,1-1.9,5.1c-.1-2.3,0-4-.6-5.1s-.9-1.5-1.1-.7a16.4,16.4,0,0,0-.7,4.8,61.7,61.7,0,0,1-.6,6.7,11.6,11.6,0,0,1-2.7,6.7,9.6,9.6,0,0,0-1.8-3.8c0,2.5.6,6.3-1.1,8.3a13.9,13.9,0,0,0-3,5.8c-.3-2.3-1.1-1.6-1.5-2.8a21.7,21.7,0,0,1-7.9,11.5,23.7,23.7,0,0,0,2.3-7,59.5,59.5,0,0,0-1.3-10C7.1,196.3,5.8,170,7.8,160c4.7-35.9,24.9-68.8,41.9-98.4Z"/><path class="a" d="M56.4,64.5s-3,11.6-2.4,19.7c4,3.1,8.2,7.4,8.4,16.2-.3.1-.4,0-.7-.2s-4.1-1.8-6.4-5.2c.4,2.2,7,10.7,7.5,12.3.1,5.3.9,13,.5,14.6-1.7-.8-2.5-2.5-2.3-1.4a44.9,44.9,0,0,0,3.7,7.6s.2,7.5-.1,6.5h-.4c-1.3-.9-2.6-2-3.6-2.8s-.7-1.1-1.9-2.1-2.6-2.6-3.3-2.9a12.1,12.1,0,0,0-4.1-1.8h-1a32.6,32.6,0,0,1,5.6,5.6,29.5,29.5,0,0,1,4.6,6.3,48.9,48.9,0,0,0,3.5,5c0,2.4-.2,10.3,0,11.7l-.8-.5c-1.6-.9-3.5-3.1-5-5.9-.9,4,3.7,8.7,5.9,10.3.7,7.4.7,10.9,2,18.8v.6a26.4,26.4,0,0,1-6.2-6.3c-.2,3,3.1,7,6.6,10.9.4.5.3,1.2.6,1.7a12.2,12.2,0,0,0,1.3,2.8,19.5,19.5,0,0,1,.5,5l-1.4,2.5,1.9,2.1c.2,2.2-.3,2.8,0,5.4a3.9,3.9,0,0,1-3.1-2.5c-1.7,4.4.2,9.3,1.7,11.8s1.8,4.8,1.6,8l-.4.9a14.8,14.8,0,0,0-4.3-4.9l-.7-.2c1.6,9.2,1,12.2-2,18l-.5-.4c-1.7-3.1-4.9-5.4-7.1-7.6-.4-.1-4.4-4.7-4.6-8.4h-.5c-.2,1.3-.8,4.1-.4,4.6l-.4-.2c-2.2-1-6.3-8.3-7-12.6,0,0-.2-.8-.5-2.5s-1.1-6.7-1.3-7.4-1.2-4.3-1.5-5.5-.3-.6-.6-.2-.9,1.3-1.2.9,0-1.1.2-2.1-1.3.4-1.4-.3a64.4,64.4,0,0,1-1.6-13.9c.5-1.1,1.8-3.2,2.9-5.5v-.5a8.1,8.1,0,0,0-3.4,3.2l-.5-.6a43.4,43.4,0,0,1-.8-8.7,2.4,2.4,0,0,1,.4-1.6c.8-1.6,1.6-3.5,2.3-5.3a61.4,61.4,0,0,1,4.7-8.8l-.7.6c-1.7.5-6.2,5.5-6.8,5.9h-.4c.3-5,1.8-16.1,2.8-22.9,1-2.6,9.2-10.4,7.3-9a27.1,27.1,0,0,0-5.7,2.7l-1.1.4c1.1-4.9,3.4-22.4,5.9-27.2,1.8-2.8,3.6-3.6,4.9-6.8l-.9.5a32.8,32.8,0,0,0-5.4,4.9h-.6c.9-2.2,1.2-4.7,2.9-7.8.4-1.3,1.2-1.8,1.8-2.9s1.9-2.3,3.3-2.9l1.8-.7c-3.7,14.2-5,25.8-6.2,41.7-1.1,25.2,1.2,55.7,10.4,74.6-7.4-22.1-10.2-46.1-9.2-70.5.7-20.8,4.1-37.5,11.5-65.7Z"/><path class="a" d="M51.4,62.3c-2.4,3-18.6,31.2-20.2,36.3-14.4,26.6-22.9,53-22.3,79a141.6,141.6,0,0,0,2.8,27.6c.7,3.2,1.6,7.6,1.5,10.4l.4-.3a25.9,25.9,0,0,0,3-7.6c.2-1.2.9,0,.9,0s.8,1.1.9,1.9.4.6.6.1a6.7,6.7,0,0,0,.9-5.1c-.3-1.6-.6-8.5.2-11,0-.7.7,0,.7,0a13.7,13.7,0,0,0,2.9,4.5s.7.4.8,0-.4-13.8,2.6-15.1c1.1.3,1.2,1,2.1,1.8.9-1,1.3-5.1,1-8.2a71.7,71.7,0,0,0-1.1-12.8c-.4-1,0-1.1.6-1.3s2.2-2.5,2.2-3.8L28,161.1c-.2-3.7-2-9.7-4-14.3a15.4,15.4,0,0,1,4.1,5.4,64.2,64.2,0,0,0,1.1-7.9c-1-3.4-3-10.8-2.8-16.3,1.2,4,2.3,8.4,3.6,11,.5-1.9,1-5.3,1.7-8.2a11,11,0,0,0,2.7-2c-.4-.6-2,.5-2.3.6A48.5,48.5,0,0,0,30.8,113l.3-.3a5.5,5.5,0,0,1,2.2,3.6c1.7-1.8,2.9-10.9,3.3-14.5-1.7,0-2.6,1.9-3.8,1.7s.3-.6.7-1.7,1.6-2.4,2.1-4,1-3.1,1.1-4.7a9.2,9.2,0,0,1,1.2-5.5c.3.7.1,1.3.7,2.9,0,0,2.7-5.3,4.1-6.5A66.5,66.5,0,0,1,53.3,62.3"/><path class="a" d="M52.2,67.1c-3.1,4.1-5.4,10.6-6.5,15.2a20.2,20.2,0,0,1,2.8-1.1C49,79,52.7,66.5,52.2,67.1Z"/><path class="c" d="M21,166.5c.1.3.5.1.3.3h1.6a.9.9,0,0,0,.5-.7c.2-.7.6-1.6-.1-2.1s-.5-1.2-1-1.6l-.9-.5c-.2-.2-.6.2-.6.4s.4,1.2.4,1.8S20.7,165.3,21,166.5Z"/><path class="c" d="M14.2,158.5c-.1-1-.4-2.4,1.2-2s.6.8.6,1.1a7.2,7.2,0,0,0,.7,2.5c.3.4-.2.8-.4,1.1a1.7,1.7,0,0,1-2.7.5c-.4-.5-1-1.3-.6-2l1.1-1.3"/><path class="c" d="M15.8,168.9a1.9,1.9,0,0,1,.6-2.9,1.1,1.1,0,0,1,1.6.4c.3,1,.7,1.9,1.1,2.9s-1.1,2.1-2.1,1.6S16.3,169.5,15.8,168.9Z"/><path class="c" d="M16.7,173c-.4-.1-.4.2-.6.4s-.5,1-.8,1.5a3.3,3.3,0,0,0-.3,2.9,2.5,2.5,0,0,0,1.9,1.3c1.2-.1,2.1-2.2,1.2-2.7s-.8-2.4-1.2-3.3h-.5"/><path class="c" d="M24.5,170.8a.8.8,0,0,1,0-1.1,1.5,1.5,0,0,1,1.3.1l.5.4a2.3,2.3,0,0,1,1.1,2.9.9.9,0,0,1-1.2.3c-.3-.2-.8-.2-1-.6S25,171.4,24.5,170.8Z"/><path class="c" d="M13.3,163.8c-.1-.5-.7-.3-.9.1a5.9,5.9,0,0,0-1.1,3.3c.2.8,1.4.9,2,.6s.4-3.8.3-3.4S13.3,163.7,13.3,163.8Z"/><path class="c" d="M39.6,172.4a.6.6,0,0,0-.8.3c-.1.9-.1,2.6,1.4,2.3s.8-.5.7-1.1A2.7,2.7,0,0,0,39.6,172.4Z"/><path class="c" d="M43.1,175.6a1.1,1.1,0,0,0-1.2-.1,1.6,1.6,0,0,0-.6,1.8,4.4,4.4,0,0,0,1,1.9c.3.3,1.1.7,1.3.5a2.8,2.8,0,0,0,.6-2.2A3.7,3.7,0,0,0,43.1,175.6Z"/><path class="c" d="M56.6,174.5c-.3.1-.6.1-.7.3a1.3,1.3,0,0,0,.8,1.9c.7.4,1.6-.8,1.1-1.4a2.3,2.3,0,0,0-1.6-.8"/><path class="c" d="M50.1,182.6c-.2-.2-.7-1-.5-1.5a1.1,1.1,0,0,1,1.3-.6,2.1,2.1,0,0,1,1.3.9,2.4,2.4,0,0,1,0,3.5,1.2,1.2,0,0,1-1.6-.3c-.4-.6-.1-1.1-.4-1.8S50.1,182.6,50.1,182.6Z"/><path class="c" d="M58,183.1c-.8-.5-.5-1.7-1.3-2.2a1.8,1.8,0,0,0-1.6,0c-.4.4-.4.9-.6,1.5a1.9,1.9,0,0,0,.3.8c.7,1.2,2.2,1.2,3.3,1.9s.5-.2.6-.4S58.5,183.5,58,183.1Z"/><path class="c" d="M45.5,182a1.2,1.2,0,0,0-1.5,0,.5.5,0,0,0-.3.5c0,1.1-.4,2.3,0,3.3s.9,1.5,1.7,1.1a1.2,1.2,0,0,0,.8-1.5C45.8,184.3,46.4,183,45.5,182Z"/><path class="c" d="M66.8,182.4c-.2-.8-1.8,0-2.3-.5s-1.1-.9-1.2-1.6a2.3,2.3,0,0,0,.4,2.4c.2.5.7.7,1.1,1a7.1,7.1,0,0,1,.8,1.5c.3.7-.4,1-.9,1.1s-1.4-1.6-1.8-2.5-1.2-.8-1.7-1.4l-.4-.5c-.4-.6-1.2-1.1-1.5-1.7a1.1,1.1,0,0,0,.1.8,53.6,53.6,0,0,0,2.6,5.4,4.6,4.6,0,0,1,.7,1.6,1.2,1.2,0,0,1-.2,1.3c-.3.3-1-.3-1.1-.1s.2,1.8.7,2.6.9,1.1.6,1.7-.2.3-.4.4a1.5,1.5,0,0,1-1.6-.6A25.4,25.4,0,0,1,57,189c-.5-.6-.2-1.4-.7-2s-.8-.9-1.3-.6l-.3.5a4.3,4.3,0,0,1-.9,2.2l-.5.5a13.2,13.2,0,0,0-1.1,4,1,1,0,0,1-.5,1c-.4.2-.7-.2-.9-.5a8.8,8.8,0,0,1-1.2-2.1,9.8,9.8,0,0,0-.5-1.6h-.2a.5.5,0,0,1-.2.4c-.3.6-.9.8-1.6,1.1a.8.8,0,0,1-.9-.4c-.5-1.7-1.7-2.9-2.2-4.6-.8,0-1.6.2-2.1-.5s-.9-3.2-1-4.9a2.4,2.4,0,0,0-.8.6c-1.8,2.6-2.5,5.4-3.2,8.4l-.5,1.4c-.4,1.2.3,1.4.9.6s.9-.3,1.1.1c.3,2,1.4,4,1.8,7.4a69.9,69.9,0,0,0,1.6,8.2c1,5.5,4.9,11,7.2,12.4-.3-2.3.6-3.2.4-4.9h.5c.1,3.1,2.5,7,5.3,9.2s3.5,2.9,5.4,5.4c.6.9,1.1,1.3,1.5,2,1.1-2,3-5.4,3-9.3h0a29.3,29.3,0,0,0-1-8.9c1.7.7,3.6,3.3,5,5.4.9-1.6.4-6.2-.9-8.5s-3.5-6.6-2-12.3c.9,2,1.6,2,3.1,2.3a45.9,45.9,0,0,0,0-5.4,15.5,15.5,0,0,0-1.9-2.1l1.4-2.5c.7-2.5-.6-4.5-.5-4.9A36,36,0,0,1,66.8,182.4Z"/><path class="c" d="M50.5,168.4c-.2-.6-.8-1-.5-1.5h.7a2.1,2.1,0,0,1,1.9.3l.9,1.2c.2.5.3,1,.5,1.5a1.1,1.1,0,0,1-.5,1.4,1.3,1.3,0,0,1-1.5.2c-.3-.1-.5-.7-.6-.9s-.2-1.2-.4-1.5S50.6,168.7,50.5,168.4Z"/><path class="c" d="M50,171.3a1.1,1.1,0,0,0-.8-.2c-.1,0-.4,0-.4.2s-1.2,1.6-1.6,2.4.4,1.7,1.1,2.3,1.4.1,2-.1,1.3-1.7,1-2.6A4.4,4.4,0,0,0,50,171.3Z"/><path class="a" d="M62.5,57.4H49.6v2.8H61.4Z"/><path class="a" d="M61.1,49.6l.5,2L64,47.2Z"/><path class="a" d="M52.1,55.2l1.3-3,3.8,3Z"/><path class="a" d="M56.5,51.9l1.7-5.7,1.2,8.1Z"/><path class="c" d="M9.2,167.3c.1.8.1.3.5,1s.2,1.4.4,2,.7-.4.8-.8c.3,1.3-.7,2.6-.2,4,.6-.5,1.4-.6,1.9-1.3a7.6,7.6,0,0,1-.3,1.6,14.5,14.5,0,0,0,.4,2.8c.1,1.2,1.7,2.1,1.3,3.3a7.6,7.6,0,0,0-.5,5.7,1.6,1.6,0,0,0,.8,1.2,1.5,1.5,0,0,0,1.3,0c.2-.1.3-.4.4-.6s-.3-1.7-.1-2.5a6.5,6.5,0,0,1,1.1-2.9c.1-.1.7-.1.8.2s.3,2.1.9,3a1.2,1.2,0,0,0,1.4.2c.9-.8.5-1.9.7-2.9s-.7-2.5-.9-4.2.1-1.8.6-2.4c.6,1.4.6,3,1.7,4.3a.8.8,0,0,0,.9.2,2.5,2.5,0,0,0,.1-3.1c-1-1.4-1.7-3.6,0-4.9a3,3,0,0,0,.3,2.1,9.3,9.3,0,0,1,1.7,3.6c0,.6.8.8,1.3.4s0-.5.2-.5,1.2.8,1.2,1.4.7.1.9-.1.5-2.4.6-3.4.6-1.2.9-1.3a21,21,0,0,1-.1,3.4c.3,3.1-.1,7.2-1,8.1-.9-.7-1-1.4-2.1-1.7-3,1.3-2.8,13.2-2.6,15.1-.1.4-.8,0-.8,0a13,13,0,0,1-2.9-4.6s-.7-.7-.7,0c-.8,2.6-.5,9.4-.2,11.1a6.4,6.4,0,0,1-.9,5c-.2.6-.6.7-.6,0s-.6-1.2-.9-2-.7-1.1-.8,0a28.1,28.1,0,0,1-3.1,7.7l-.4.3c.1-2.8-.8-7.2-1.5-10.4-1.5-8.4-3-16.2-3-27.6,0-5.1.3-10.6.3-10.6Z"/><path class="c" d="M48.3,188.6c1.4,3.9,3.1,9.2,4.2,11.2-.3-2.2-3.6-11.2-3.5-11.8S48.3,188.6,48.3,188.6Z"/><path class="a" d="M152.4,41.2c-.3-.2-1.3-.1-1.5-.5a1.3,1.3,0,0,0-.5-.7c-.3-.2-.7.1-1.2.1a3.3,3.3,0,0,1-1.7-.2c-1.1,1.1-3.8.4-5,.5s.8.5.9.6,2.4.7,3.5.7l.7-.2a14.5,14.5,0,0,1,3.5.4C151.5,42,152.7,41.6,152.4,41.2Z"/><path class="a" d="M170.7,42.8l-2.8-1.5a2.7,2.7,0,0,0-.7-.8c-.6-.5-.9-1.2-1.6-1.6a16.9,16.9,0,0,0-2.9-1.7h-.3c-.1,0-.2-.1-.1-.1H162l-.5-.2c-.6-.2-1.2.1-1.7-.3l-.9-.5a3.9,3.9,0,0,0-2.6-.1c-.2,0-.5.3-.7.4s-.9-.2-1.3-.1-.9.6-.5.9a4.4,4.4,0,0,0,1.5.8c1.6.4,3.3,0,4.9.6s1,.4,1.1.9-.3.2-.4.1a1.8,1.8,0,0,0-1.2-.3,39.6,39.6,0,0,0-7.7-.1c0,.7.2,1.3.8,1.4s1.7-.2,2.5-.1a7.7,7.7,0,0,1,2.6,1h.4c.4-.2.7-.7,1.1-.5l.8.3h1.6c1.2.1,2.2.9,3.4.7a1.8,1.8,0,0,1,1.7.5c-.2-.2,1.6,1,1.8.7S170.7,43,170.7,42.8Z"/><path class="a" d="M177.5,42.2c-.7-.4-.8-1.3-1.2-1.9a3.7,3.7,0,0,0-1.3-1.2c-2.2-1-4.8-2.9-6.4-2.7a.5.5,0,0,0-.4.8c.5.5,1.5.7,1.6,1.5,2.2,1,6.1,1.7,5.9,3.9C175.7,42.9,177.1,42.2,177.5,42.2Z"/><path class="c" d="M49.6,57.4H63.5a14.3,14.3,0,0,0-1.2,2.8H49.6V57.4Z"/></svg>