<svg viewBox="0 0 126.9 154.9" xmlns="http://www.w3.org/2000/svg"><path d="m113.7 61.4c-11.4-6.7-22.6-5.1-31.1-1.3a47.2 47.2 0 0 0 -2.4-9.5c-1.8-5.3-3.7-10.5-5.5-15s-4-11-5-14.3l-6.2-21.3-6.4 21.3c-1 3.3-2.7 8.4-5 14.4s-3.7 9.6-5.5 14.9a53.9 53.9 0 0 0 -2.3 9.5c-8.5-3.8-19.7-5.3-31.1 1.4-9.3 5.4-14.3 14.9-13 24.7a21.5 21.5 0 0 0 15.9 18.2l6.4 1.8 1.6-6.5c.2-.9 2.5-9 9.8-8.8 5.1.1 9.3 4.6 11.4 7.5a14.7 14.7 0 0 0 -.7 7.1l-2.9-3.8-5.1 3.8c-4.7 3.5-11.5 12.1-7.3 22.2 1.8 4.4 5.8 7.4 11 8.4a26.1 26.1 0 0 0 10.4-.2 34.2 34.2 0 0 0 8.2 14.1l4.7 4.9 4.6-4.9a33.8 33.8 0 0 0 8.2-14.2 25.7 25.7 0 0 0 10.3.3c5.3-1.1 9.2-4.1 11-8.5 4.2-10.1-2.6-18.7-7.3-22.1l-5.1-3.9-2.9 3.8a14.9 14.9 0 0 0 -.7-7.1c2.1-2.9 6.3-7.4 11.4-7.5 7.3-.1 9.6 7.9 9.8 8.9l1.6 6.4 6.4-1.8a21.7 21.7 0 0 0 15.9-18.3c1.2-9.8-3.8-19.2-13.1-24.6"/><path d="m61.4 22.2c-.8 3.7-2.8 9-5.2 15.1-1.7 4.4-3.6 9.5-5.4 14.7a38.2 38.2 0 0 0 -2.4 12.3 18.7 18.7 0 0 0 .3 3.4c-6.5-4.5-19.3-10.6-33.3-2.4-7.7 4.5-11.9 12.3-10.8 20.3a17.2 17.2 0 0 0 12.6 14.6l2.1.5.5-2c.1-.5 3.2-12.4 14.2-12.2 8.9.2 14.6 8.8 16.2 11.4a12.3 12.3 0 0 0 -1.4 5.5 12.1 12.1 0 0 0 2.9 7.6c-.8 1.1-2.2 2.5-3.7 2.6s-4.4-2.1-5.9-4.1l-1.3-1.7-1.6 1.3c-3.4 2.5-9 9.3-5.8 16.9 1.2 3 3.9 5.1 7.8 5.8a22.5 22.5 0 0 0 12.6-1.5 31.8 31.8 0 0 0 8.3 16.7l1.4 1.6 1.5-1.6a31.7 31.7 0 0 0 8.3-16.8 21.7 21.7 0 0 0 12.6 1.6c3.8-.8 6.5-2.8 7.8-5.9 3.1-7.6-2.5-14.4-5.9-16.9l-1.6-1.2-1.3 1.6c-1.4 2-3.7 4.3-5.9 4.2s-2.8-1.5-3.7-2.6a11.4 11.4 0 0 0 1.5-13.1c1.5-2.7 7.3-11.3 16.2-11.5 11-.2 14.1 11.7 14.2 12.2l.5 2 2-.5a17.2 17.2 0 0 0 12.7-14.7c1-8-3.2-15.7-10.9-20.2-14-8.2-26.8-2-33.3 2.4a31.6 31.6 0 0 0 .3-3.2 38.2 38.2 0 0 0 -2.4-12.4c-1.8-5.2-3.8-10.3-5.5-14.8-2.3-6.1-4.4-11.3-5.2-15l-2-9.5z" fill="#fff"/><path d="m63.6 145.6a30.6 30.6 0 0 0 8-18.9c3.5 3.5 17.1 5.9 20.2-1.6s-5.2-14.4-5.2-14.4c-8.3 11-13.8.2-13.8.2 6.3-6.8 1.6-12.9 1.6-12.9s7.4-13.4 18.5-13.7c12.9-.2 16.3 13.8 16.3 13.8 13.5-3.7 16.1-22.5 1.2-31.2-18.8-10.9-35.2 5.8-35.2 5.8 1.6-6.3 2-10.9-1.1-20-4.2-12.4-9.3-23.4-10.7-30.1-1.4 6.7-6.5 17.7-10.6 30.1-3.1 9.1-2.6 13.8-1.1 20 0 0-16.4-16.6-35.2-5.6-14.8 8.6-12.2 27.4 1.3 31.1 0 0 3.4-14 16.2-13.8 11.2.2 18.2 12.4 18.6 13.6s-4.7 6.1 1.6 12.9c0 0-5.5 10.8-13.8-.2 0 0-8.5 6.4-5.1 14.5s16.7 5.1 20.2 1.6a30.3 30.3 0 0 0 8 18.8"/><path d="m97.3 66.4c-15.3 0-27.9 17.4-27.9 17.4.5-2.9 7.1-15.7 1.2-31s-7.2-21.4-7.2-21.4-1.2 6.1-7.1 21.4.7 28.1 1.3 31c0 0-12.6-17.4-28-17.4s-28 17.5-13.9 27.8c0 0 4.2-12.9 18.4-12.9 10.5 0 21.1 11.2 21.5 16.8 0 0-4.8 6.8 1.9 12.5 0 0-7.2 15.2-17.2 4.2 0 0-7.7 9.6 2.3 12 8 1.8 15.9-6.3 15.9-6.3s-.9 12.8 5 19.8h.1c5.9-7 5-19.8 5-19.8s7.8 8.1 15.8 6.2c10.1-2.3 2.4-11.9 2.4-11.9-10 10.9-17.3-4.2-17.3-4.2 6.7-5.7 1.9-12.5 1.9-12.5.4-5.6 10.9-16.9 21.4-16.9 14.3 0 18.4 12.9 18.4 12.9 14.2-10.4 1.4-27.8-13.9-27.7" fill="#c6a876"/></svg>