<svg viewBox="0 0 155.5 62.4" xmlns="http://www.w3.org/2000/svg"><path d="m59.7 48.7 8.2-.1 51.8-29.3-5.5-6.3-39.5-5.7-49.4 4.6-17.5 12.3-2.3 4.4z" fill="#fff"/><path d="m20.8 0s.8 3.5 9.1 3.7h68.3s14.9-.6 22.1 8.6c0 0 36.1 2.4 35.2 20.5 0 0 .1 13.9-19.3 29.5 0 0 8.5-10.5-6.7-11.8 0 0-8-1.2-62.1-1.3 0 0-6.9 0-4.7-5.4l5.3-8.4-11.2-9.3s10.6-12.8 24.7-12.9c0 0 5.8-.3 15 3.8 0 0 13.4 7.6 19.4 1.9 0 0-4.1 2.9-15.3-2.8 0 0-10.8-5.9-21.4-5.6 0 0-10-.7-22.2 9.4a16.1 16.1 0 0 1 -12.3 4.4h-36.9z" fill="#00143f"/><path d="m140.9 50.5s-13.6-9.5-44.4-11.3c0 0-12.3-.5-15.9 7.5h4.3s1.4-5.5 16.2-4.6c0 0 24.6 1.6 39.8 8.4" fill="#fdffff"/><path d="m75.2 46.8h-5.6s6-13.6 18-12.8h14.9s7 1 10.4-5.2c0 0 3.9-11.1 12.2-12.2 0 0-3 2.2-.8 3.7 0 0 1.6.8 6.8 1.3 0 0 25.9 2.9 11.4 27 0 0-16-10.5-46.5-11.7 0 0-15.3-1.8-20.8 9.9" fill="#fff"/><path d="m84.9 18s-5.7-1.8-15.3 6.1c0 0 6.4 7.3 13.7 7.1h16.6s9.5 0 11.2-6.7h-5s-2.3 5.3-13.2 4.4c0 0-11 .2-10.9-4.4 0 0-.3-2.3 2.9-6.5" fill="#fefefd"/><path d="m90.4 19 3.6 1.4s-2.6 3.3 2.6 4.4a4.3 4.3 0 0 0 3.9-1.6l1.6.5s-.9 4-9.7 2c0 0-6.7-.6-2-6.7" fill="#52b845"/><path d="m5.5 28.6h39.6s6.9-.2 10.1 3.3l6.9 5.4-4.1 7.6a3.8 3.8 0 0 0 1.3 4.4h-46s-13 1.5-13.3-7.4c0 0-.3-5.2 5.5-13.3" fill="#2d597f"/></svg>