<svg viewBox="0 0 235 235" xmlns="http://www.w3.org/2000/svg"><path d="m117.5 0a117.5 117.5 0 1 0 117.5 117.5 117.5 117.5 0 0 0 -117.5-117.5zm0 217a99.6 99.6 0 1 1 99.6-99.6 99.5 99.5 0 0 1 -99.6 99.6z" fill="#9babb6"/><path d="m66.2 115.2c0-1.6-.4-2-1.6-2s-1.4 1.3-1.4 2.7v.6h3z" fill="#fff"/><path d="m53.2 113.2c-1.5 0-1.5 1.3-1.5 2.7v.6h3v-1.3c0-1.6-.3-2-1.5-2z" fill="#fff"/><path d="m84.1 115.2c-.1-1.6-.4-2-1.6-2s-1.4 1.3-1.4 2.7v.6h3z" fill="#fff"/><path d="m117.5 17.9a99.6 99.6 0 1 0 99.6 99.5 99.5 99.5 0 0 0 -99.6-99.5zm-82.7 108.7c-3.9 0-5.3-2.5-5.3-6.2v-1.5h3.3v1.2c-.1 2 .4 3.4 2 3.4s2-.8 2-2.3a3.4 3.4 0 0 0 -1.3-2.7c-1.7-1.6-3.8-2.7-5.1-4.7a6.5 6.5 0 0 1 -.8-3.1c0-3.5 1.6-5.4 5-5.4 5.2 0 5 4.7 5 6.7h-3.1c.1-1.8-.1-3.6-1.8-3.6s-1.8.5-1.8 1.9.8 2.1 1.8 2.9a30.9 30.9 0 0 1 3.9 3.3 6 6 0 0 1 1.5 4.3c0 3.8-2.2 5.8-5.3 5.8zm12.2-13.2h-1.3v9.5c.1.6.9.6 1.3.5v2.8c-1.8.2-4.3.4-4.3-2.4v-10.4h-1.2v-2.5h1.2v-1.3l3-2.9v4.2h1.3zm10.7 5.8h-6v2.2c.1 2 .7 2.4 1.6 2.4s1.4-.9 1.4-2.9h3c.1 3.5-1.1 5.6-4.2 5.6s-4.8-1.9-4.7-6.4v-4c-.2-3.6 1.4-5.6 4.3-5.6s4.6 2.5 4.6 6.7zm2.5.9v-4c-.1-3.6 1.5-5.6 4.4-5.6s4.6 2.5 4.6 6.7v2h-6v2.2c0 2 .7 2.4 1.6 2.4s1.4-.9 1.4-2.9h2.9c.2 3.5-1 5.6-4.1 5.6s-4.8-1.9-4.8-6.4zm56.2 96.7c-5.2-28.1-15-43.7-50.2-49.7 35.2-6 45-21.6 50.2-49.7-5.2-28-15-43.7-50.2-49.6 35.2-6 45-21.6 50.2-49.7 5.3 28.1 15.1 43.7 50.3 49.7-35.2 5.9-45 21.6-50.3 49.6 5.3 28.1 15.1 43.7 50.3 49.7-35.2 6-45 21.6-50.3 49.7zm-44.2-90.7v-20.3h3v20.3zm10.4-2.3c1.1 0 1.5-.9 1.4-2.9h3c.1 3.5-1.1 5.6-4.1 5.6s-4.9-1.9-4.8-6.4v-4c-.1-3.6 1.4-5.6 4.4-5.6s4.6 2.5 4.6 6.7v2h-6v2.2c0 2 .7 2.4 1.5 2.4zm10.1-10.2a4.9 4.9 0 0 1 1.2-2.2 2.2 2.2 0 0 1 1.8-.8v4.2c-1.6-.2-2.9.3-3 2.5v8.8h-2.9v-15.2h2.8v2.7zm8.3 10.2a1.3 1.3 0 0 0 1.3-1.7c-.1-.9-.9-1.3-1.5-1.8l-1.6-1.3a5.8 5.8 0 0 1 -2.5-4.8c0-2.4 1.6-3.7 4.5-3.7s4.2 1.7 4.1 5h-3c.1-1.7-.3-2.3-1.3-2.3s-1.3.3-1.3 1.2.6 1.3 1.1 1.8l2.5 1.9a5.7 5.7 0 0 1 2 3c.3 2.7-.3 5.4-4.4 5.4-1.6 0-4.6-.8-4.2-5.4h3c-.3 2.8.7 2.7 1.3 2.7zm65.8 43.2c-5.3-28.1-15.1-43.7-50.3-49.7 35.2-6 45-21.6 50.3-49.7 5.3 28.1 15 43.7 50.3 49.7-35.3 6-45 21.6-50.3 49.7z" fill="#fff"/><g fill="#231f20"><path d="m34.7 113.2c-1-.8-1.8-1.4-1.8-2.9s.7-1.9 1.8-1.9 1.9 1.8 1.8 3.6h3.1c0-2 .2-6.7-5-6.7-3.4 0-5 1.9-5 5.4a6.5 6.5 0 0 0 .8 3.1c1.3 2 3.4 3.1 5.1 4.7a3.4 3.4 0 0 1 1.3 2.7c0 1.5-.7 2.3-2 2.3s-2.1-1.4-2-3.4v-1.2h-3.3v1.5c0 3.7 1.4 6.2 5.3 6.2s5.3-2 5.3-5.8a6 6 0 0 0 -1.5-4.3 30.9 30.9 0 0 0 -3.9-3.3z"/><path d="m45.7 106.7-3 2.9v1.3h-1.2v2.5h1.2v10.4c0 2.8 2.5 2.6 4.3 2.4v-2.8c-.4.1-1.2.1-1.3-.5v-9.5h1.3v-2.5h-1.3z"/><path d="m53.1 110.5c-2.9 0-4.5 2-4.3 5.6v4c-.1 4.5 1.3 6.4 4.7 6.4s4.3-2.1 4.2-5.6h-3c0 2-.3 2.9-1.4 2.9s-1.5-.4-1.6-2.4v-2.2h6v-2c0-4.2-.4-6.7-4.6-6.7zm1.6 6h-3v-.6c0-1.4 0-2.7 1.5-2.7s1.5.4 1.5 2z"/><path d="m69.1 120.9h-2.9c0 2-.3 2.9-1.4 2.9s-1.6-.4-1.6-2.4v-2.2h6v-2c0-4.2-.4-6.7-4.6-6.7s-4.5 2-4.4 5.6v4c0 4.5 1.4 6.4 4.8 6.4s4.3-2.1 4.1-5.6zm-5.9-5c0-1.4 0-2.7 1.4-2.7s1.6.4 1.6 2v1.3h-3z"/><path d="m72.2 105.8h3v20.28h-3z"/><path d="m87.1 119.2v-2c0-4.2-.5-6.7-4.6-6.7s-4.5 2-4.4 5.6v4c-.1 4.5 1.3 6.4 4.8 6.4s4.2-2.1 4.1-5.6h-3c.1 2-.3 2.9-1.4 2.9s-1.5-.4-1.5-2.4v-2.2zm-6-3.3c0-1.4-.1-2.7 1.4-2.7s1.5.4 1.6 2v1.3h-3z"/><path d="m89.8 110.9v15.2h3v-8.8c0-2.2 1.3-2.7 2.9-2.5v-4.2a2.2 2.2 0 0 0 -1.8.8 4.9 4.9 0 0 0 -1.2 2.2h-.1v-2.7z"/><path d="m96.7 121.1c-.4 4.6 2.6 5.4 4.2 5.4 4.1 0 4.7-2.7 4.4-5.4a5.7 5.7 0 0 0 -2-3l-2.5-1.9c-.5-.5-1.1-.9-1.1-1.8s.6-1.2 1.3-1.2 1.4.6 1.3 2.3h3c.1-3.3-1.2-5-4.1-5s-4.5 1.3-4.5 3.7a5.8 5.8 0 0 0 2.5 4.8l1.6 1.3c.6.5 1.4.9 1.5 1.8a1.3 1.3 0 0 1 -1.3 1.7c-.6 0-1.6.1-1.3-2.7z"/></g><path d="m116.4 117.4c5.3-28 15.1-43.7 50.3-49.6-35.2-6-45-21.6-50.3-49.7-5.2 28.1-15 43.7-50.2 49.7 35.2 5.9 45 21.6 50.2 49.6z" fill="#f1c817"/><path d="m116.4 117.4c-5.2 28.1-15 43.7-50.2 49.7 35.2 6 45 21.6 50.2 49.7 5.3-28.1 15.1-43.7 50.3-49.7-35.2-6-45-21.6-50.3-49.7z" fill="#204182"/><path d="m166.8 67.6c-5.3 28.1-15.1 43.7-50.3 49.7 35.2 6 45 21.6 50.3 49.7 5.3-28.1 15-43.7 50.3-49.7-35.3-6-45-21.6-50.3-49.7z" fill="#bf2026"/></svg>