<svg viewBox="0 0 221.9 213.3" xmlns="http://www.w3.org/2000/svg"><path d="m163.1 40.7c46.9 35.7 11.2 41.1-25.4 46.3 0 0-15.5-4.3-42.3-17.6-60.7-30.2-41.6-44.4 6.1-53-76.4-33.3-140.1 24.7-69.8 81l-19.3 13.8c15.9 9.7 48.7 30.1 43.9 61.3l-16.3 11.6 49.7 22.5 39.3-17.7c.3-17.3 31.1-26.3 44.4-61.4 73.1-16.8 54.5-81.1-10.3-86.8z" fill="#fff"/><path d="m176.2 46.3c31.5 24.7 9.7 40.4-28.7 44.7 9.7 40.9-20.1 78.4-51.6 107.5l28.9-13.1c2.1-16.6 31.5-25.3 45.3-62.2 65.3-14.6 54.7-61.5 6.1-76.9z" fill="#b21e35"/><path d="m129.6 90.3c-91.7-35.5-97.8-64.6-40.5-74.6-71.7-19.5-113.4 32.4-42.6 82l-19 13.5c20.2 13.5 41.6 33.5 34.4 65l-9.6 6.8 36.8 16.7c34.2-37.5 52.2-74 40.5-109.4zm-23.1 57-14.1-16-16.2 2.4 7.5-12.3-14.1-16.1 18.7 8.5 7.5-12.4 4.1 17.6 18.7 8.4-16.2 2.4z" fill="#06192e"/><path d="m129.6 90.3c-91.7-35.5-97.8-64.6-40.5-74.6-71.7-19.5-113.4 32.4-42.6 82l-19 13.5c20.2 13.5 41.6 33.5 34.4 65l-9.6 6.8 36.8 16.7c34.2-37.5 52.2-74 40.5-109.4zm-23.1 57-14.1-16-16.2 2.4 7.5-12.3-14.1-16.1 18.7 8.5 7.5-12.4 4.1 17.6 18.7 8.4-16.2 2.4z" fill="#06192e"/><path d="m176.2 46.3c31.5 24.7 9.7 40.4-28.7 44.7 9.7 40.9-20.1 78.4-51.6 107.5l28.9-13.1c2.1-16.6 31.5-25.3 45.3-62.2 65.3-14.6 54.7-61.5 6.1-76.9z" fill="#b21e35"/><path d="m129 198.8 1.5-4h1.5v5.4h-1v-4.4l-1.7 4.4h-.6l-1.7-4.4v4.4h-1v-5.4h1.5zm-3.9-3.2h-1.7v4.6h-.9v-4.6h-1.7v-.8h4.3z" fill="#fff"/></svg>