<svg viewBox="0 0 389.4 275.8" xmlns="http://www.w3.org/2000/svg"><path d="m125.7 160.9a65.1 65.1 0 0 0 7.3 23.8c6.5 12.5 20.1 29.3 48.2 38.7a121.3 121.3 0 0 0 15.6 19.5 112.9 112.9 0 0 0 192.6-80.2 113 113 0 0 0 -94.7-111.2c-31.6-28.6-68.5-18.3-70-17.8l-2.3.7c-11.3 3.8-17.2-.5-21-3.5a112.1 112.1 0 0 0 -13.2-9.2c-15.1-8.5-36.5-8.8-54.5-1.5-11.9 4.1-17.9-1.2-21.4-3.6-23.7-16.3-52.6-20.2-83.3-13.4-20.7 4.5-29 8.7-29 8.7a130.5 130.5 0 0 1 28.9 8.2c12.2 5.1 21.8 11.6 29.1 23.3 0 0 4.6 6.8 1.6 8.8s-6.8-3.2-6.8-3.2a93.1 93.1 0 0 0 .2 10.8c1.7 31.2 8.1 50 23.1 64.3 6.8 6.5 18.4 12.9 36.3 19.9 8.1 3.2 12.5 7.4 13.3 16.9z" fill="#fff"/><path d="m351.1 88.1a105.4 105.4 0 0 0 -59.7-29.8c-29.3-28.1-64.8-17.8-64.8-17.8 7.5 1.1 12.5 5.6 10.6 10.5-1.3 3.3-6.7 3.5-9.2 3.5-7.9.1-14.8-4.8-20.2-9.2s-14.9-12.8-23.2-17.5c-15.4-8.7-40-7.6-57.7 3.7 10.6.7 23.4 3.8 31 10.1 4.3 3.5 9.7 10.6 5.3 13.9s-13.5 1.4-18.3-1.4c-7.8-4.5-14.7-11.3-18.9-16.2-28.3-33-68.1-34.8-101-26.7 21.6 6.1 35.9 18.3 44.8 39.5s15.9 30.2 30.5 35.9c9.2 3.6 11.6 4.3 10.9 8.3-1.1 6-11.9 3.1-20.2-.1-10.1-4-23.3-14.8-31.3-35.2 1.4 26.4 6.5 45.1 21.4 59.3 6.3 6 17.9 12.2 36.1 19.2 11.6 4.5 20.8 7.2 29.4 14.9 10.1 9 5.8 15-.9 13.9s-13-9-13-9 0 43 53.2 59.6a107.3 107.3 0 0 0 16 20.4 105.7 105.7 0 0 0 149.2-149.8z" fill="#002d65"/><path d="m345.5 93.5a96.7 96.7 0 0 0 -58.2-28c-18.9-18.8-37.8-18-37.8-18 8.3 5.2 4 16.7-14.4 19.3s-41.4-3.7-52.7-16.8-20.3-14.1-20.3-14.1c10.1 6.3 10.8 13.9 16.9 25.4s18.7 15.7 29.7 16.4 11.8 6 2.5 11.5-19.2.3-25.7-6.1c-10.3-10.2-20.6-12.2-34.8-12s-33 2-48.9-3.9-26.3-26.8-26.3-26.8c7.9 27.7 25.3 40.9 41.5 44 21.4 4.2 36.1 9.3 45.2 16.6s13.5 14.3 16.8 24.2c2.6 7.6 3 17.7.5 18.3s-3.6-3.4-7-10.4-8.4-13.9-17.6-18.9c-12.5-6.7-24.8-6.3-37.3-6.1a88.3 88.3 0 0 1 -15.7-1s.4 1.3 16.5 4.9c18 4 35.3 14.2 46.9 38.8 9.8 21 4.7 35.8-17.1 29.1 0 0 10.2 22.6 43.4 30.7a102.2 102.2 0 0 0 15.9 20.9 97.6 97.6 0 1 0 138-138z" fill="#648fcc"/><path d="m276.5 69.7a92.9 92.9 0 1 1 -65.6 27.2 92.2 92.2 0 0 1 65.6-27.2z" fill="#fff"/><path d="m276.6 247.3a84.8 84.8 0 1 1 84.7-84.9 84.8 84.8 0 0 1 -84.7 84.9z" fill="#002d65"/><path d="m255.8 145.3h-25.1l-8.3 14.8-11.1-31.6h130.3l-11.1 31.6-8.2-14.8h-24.7l-20.9 91.5z" fill="#fff"/><path d="m341.6 128.5h-130.4l2.2 6h62.1l-19.7 10.8 20.8 91.5v-102.3h62.8z" fill="#c5c9d1"/><g fill="#c0001d"><path d="m212.5 55.3c-18.9-.5-26.6-8-38.3-17.5a39.7 39.7 0 0 0 -30.3-8.3c9.5-5.5 28.3-5.7 41.8 6.2s18 16.3 26.8 19.6z"/><path d="m51.2 13.7s17.7-.4 33.1 27.3c13 23.3 37.8 28 55.9 22.8a46.7 46.7 0 0 1 -37-23.8c-13.2-23.7-30.9-30.2-52-26.3z"/><path d="m151.3 147.9s-2.5-25.8-39.2-33.2-41.7-26.8-41.7-26.8.2 27.8 32.1 36.3c22.2 5.9 38.5 9.4 48.8 23.7z"/><path d="m289.3 120.4-5-14.9 12.6-9.3-15.7.2-4.9-14.9-4.7 14.9-15.7.1 12.8 9.1-4.8 15 12.6-9.4z"/><path d="m233.3 172.9-10.4 11.8-14.3-6.3 7.9 13.5-10.4 11.7 15.3-3.4 7.9 13.5 1.5-15.6 15.3-3.4-14.3-6.2z"/><path d="m306.8 195.1 15.4 3.1 1.7 15.6 7.7-13.7 15.3 3.2-10.6-11.5 7.8-13.7-14.3 6.5-10.5-11.6 1.8 15.6z"/></g></svg>