<svg viewBox="0 0 118.5 154.6" xmlns="http://www.w3.org/2000/svg"><path d="m108.5 86.8c.3-1.6 1.2-3.4.4-5.1l2.7-1.4a7.4 7.4 0 0 0 -3.8-6.5s1.6-.6.8-3.7c-4.3.3-3.2-4.5-4.3-7a7.4 7.4 0 0 0 3.4-8.9c-1.1 1.9-2.6 3.5-4.6 3.8-9.8-25.6-35-32.1-50-31.2a22.1 22.1 0 0 1 -1.3 5.2c-10.9-2.9-10.6-14.8-15.7-22.2-1.2-1.7-4.5-5.8-8.2-6.5-.7-.1-1 .4-.9.7 7.7 5.2 8.5 14 9.2 22.5s5.1 11.2 9.8 14.7a5.4 5.4 0 0 0 -.9 1.5 23.3 23.3 0 0 1 -18.3-2.6c-10.1-6.7-7.6-19.4-10.4-29.4-.9-2.6-2.2-6.2-4.9-7.6-.8-.4-1.6.1-1.2.6a18.6 18.6 0 0 1 3.5 9.4c.1 8.9-2.1 18.5 1.3 26.9 5.2 11.5 14.7 19.7 26.2 22.1a39.2 39.2 0 0 0 .7 11.4c-12.4 6.7-22 13.7-37.8 38.3-.5 1-.1 1.9 1.3.7 15.5-14.5 41.2-21.7 57.3 2.4 7.8 12.3 7.1 20.9 6.6 28.9 0 2.8-1.7 6.7.8 7.7s5.4-5.6 5.4-6.6a4.2 4.2 0 0 0 .9-2.7c.6-.4.9-2.4.8-3.4 1.6-1.9 3-6.7 1.2-9.5a13.8 13.8 0 0 0 -.3-8c.6-2.5 1.1-8-.9-10.5a29.8 29.8 0 0 1 10.5-7.6c1 7.2 2.4 16.3-3.9 21.2-.4.2-.3.7.4.5 10.1-3.4 12.2-22.5 12.9-24.9 3.4-1.8 12.9-4.4 15.8-5.4s.9-5.2-.2-6.6-2.3-1.1-4.3-1.2zm-1.5-16v1.1c-2.1.5-5.2 2.5-5.8 1.1s2.1-1.3 2.6-1.9a.7.7 0 0 0 -.6-1 10.3 10.3 0 0 0 -2.9.2c-1.3 1-1.2 3.6-.6 4.5-2.8 1.2-5.5 3.9-7 5.6-.7-3.5 1.9-6.1 4.5-7.9.6-.6.2-4.2-.2-6-.5-.2-1.4 0-1.4-.4s3.2-.5 4.6-.5a1.7 1.7 0 0 1 3.1-1.4c1.1 2.2.4 6.2 3.7 6.6zm-.2-13.5a5.7 5.7 0 0 1 -2.8 4.1c-4.3 1.9-10.1-.9-14 1.9 0-1.5.8-3.6 3-3.7 5.7-.3 9.7 1.6 13.8-2.3zm-6 .7a71.4 71.4 0 0 0 -23.2 2.9c-1.1 10.9-13.9 15-21.4 6.6 0 0-2.9.6-11.5 4.6-1-1.5-1.9-4.9-.3-5.7a26.3 26.3 0 0 1 6.2-2.8c2-.4 5.1.6 6.6 1 8.5 5.1 17.3 5.3 19.4-9.9 0 0 11.1-2.8 21.5-2.1a20.9 20.9 0 0 1 2.7 5.4zm-57.1 6.6v-1.9l3.3.4a18.9 18.9 0 0 0 -3.3 1.5zm10.8-36.4c33 .9 42.6 22.7 42.6 22.7-6.4-.5-14.5.7-20.9 2-3.4-8.6-8.6-12.2-28.4-10.5 2.8-4.9 6-8.2 6.7-14.2zm-13.7 5.3a30.7 30.7 0 0 1 -3.3-11c0-.2.1-.2.2-.1a15.7 15.7 0 0 0 1.6 5.3.3.3 0 0 0 .5-.2 37.2 37.2 0 0 1 -1.8-6.8c.1-.1.2-.2.3 0s1.6 4.3 2.3 5.1a.2.2 0 0 0 .4-.2c-.3-.8-.9-2.5-1.1-3.3s.1-.2.2-.1a18.2 18.2 0 0 0 8 9.8c1.3.8.9 4.3-2 4.9s-4.2-1.6-5.3-3.4zm3.5 23.1c-.7-.9-3.8 1.6-4.2 1.1s1.4-.8 1-1.1-2.9.7-3.2.4.7-.4.4-.8-3.4.7-3.6.3 1.9-.7 1.5-1.3-2.9.7-6.1-.7c-11.8-6.3-15-18.7-15.4-23.9.1-.2.1-.2.2-.1.9 4.6 2.7 10.9 6.8 14a.2.2 0 1 0 .3-.3c-4.3-3.4-6-11.2-6.2-17.9 0-.2.1-.2.1 0 .3 5.1 1.8 11.1 5.8 15 .2.1.5-.1.3-.3-3.9-4.7-5.1-10.7-5-16.5 0-.3.2-.2.1-.1a22.4 22.4 0 0 0 9.1 17.2c10.5 7.9 28.2-.5 38.2 2.9 15 4.4 10.3 17.6 5.8 19.9-1-1.1-1.7.4-2.1.2s.5-.8-.1-1.1-1.2.6-1.7.4.5-.8.1-1-2 1.2-2.4 1 1.5-1.2.7-1.8-2.3 1.2-2.7.9 2.7-2 1.4-2.6-2.9 2-3.4 1.6 2.8-1.7 1.9-2.3-4.6 2.3-5.1 1.9 3.3-2.2 2.4-2.9-4.7 3.1-5.4 2.4 3.1-1.8 2.2-2.7-4.5 2.9-5.5 2.1 3.7-1.9 2.6-2.7-5.4 2.9-5.8 2.3 3.6-1.9 3.1-2.6-5.2 2.4-5.7 1.9 3.2-1.7 2.5-2.2-4.8 2.1-5.2 1.5 3.1-1 2.3-2.1zm-27.4 45.4a55.6 55.6 0 0 0 -8.7 7c-.3.3-.5-.1-.2-.4 18.8-28.1 41.2-37.1 46.7-38.5 1.1-.2.9.4.5.7-10.3 3.9-27.4 14.1-34.7 26.5-1.1 1.9-2 3.7-3.6 4.7zm14.2-4.2c-4 1.1-7.3 2-10.7 3.2-.3.1-.8.1-.6-.3 8-14.6 22.8-23.3 37.1-29.5.4-.2.7.3.3.4-10.5 5.1-18.1 15.4-24.5 25a5.5 5.5 0 0 1 -1.6 1.2zm3.8-.4a.8.8 0 0 1 -.4-1.1c6.8-8.3 12.1-18.9 22.4-23.2.9-.2 1.9-.8 2.8-.4a14.2 14.2 0 0 0 9.6.9 13.5 13.5 0 0 0 9.4-10.6 34.8 34.8 0 0 1 6.4-1.4c-2.4 14-21.9 19.7-22.7 34.4-5.7 1.1-13-3.4-14.1-10.2a26.9 26.9 0 0 1 -6.7 9.2c-1.9 1.6-4.8 3.1-6.7 2.4zm37.9 17.5c-1.3-1-2.4-2.2-4-2.7-.2-5.5 3.6-11.6 4.8-13.5s1-.3 1.3.7c2.7 8.3-1.5 11.8-2.1 15.5zm3.5-3.1c1.4.8.7 7.6-.8 11.1a30.4 30.4 0 0 0 -2.9-3.4c.9-2.2 3.1-8 3.7-7.7zm-2.2-27.1c-.2.1-.8-.7-1.2-.6s1 2.1 1 2.1c0 11.3-5.9 13.7-5.9 20.6a18 18 0 0 0 -4.3-2.9c-2.8-10.7 10.4-24.8 11.1-24.2s-.5 4.7-.7 5zm-33.1 12.5c3.1-1.9 5.4-5.3 6.7-7.8.3.9.9 1.8 1.2 2.7-1.6 2-3.9 4.6-6.3 5.5-.8.2-2.2.2-1.6-.4zm15.4 7.5a31 31 0 0 0 -12-6.4 37.1 37.1 0 0 0 5.4-5.1 4.6 4.6 0 0 1 .7.7 10.7 10.7 0 0 0 6.1 10.1c.6.2.2 1.1-.2.7zm-4.3-9.4a15.5 15.5 0 0 0 10 2.8v5.2c-9.8-1.2-10-8-10-8zm10.2 15.3c-1-.6-5.2-4.6-3.7-5.8s8.9 3.1 8.9 3.1-.3 2.3-.2 3.6-3.9-.1-5-.9zm3.1 5.4c-.5-1-1.6-2.2-1-3s5.4.7 7.7 3.1c-.3 1.1-.6 1.9-.9 3-2.2-.3-4.6-.7-5.8-3.1zm3.8 7.6c-.4-.8-1.1-2.7-.4-3.3s4.8 1.4 6.1 3.7c.3.6-.8 2.6-1.2 2.7s-3.8-1.5-4.5-3.1zm6.1 8.1c0 .9-.7 1.9-1 1.9s-3.6-1.7-3.8-3.6-.3-2.6.2-2.8 3.9 2.6 4.6 4.5zm-4.8 18.8c-.9-.6-.4-2.8.3-4a13.6 13.6 0 0 1 1.7 1.7c-.3.6-1 2.6-2 2.3zm2.5-3.5c-.8-.8-1.1-1.6-2.2-2.2s0-1.2.3-1.1a5.4 5.4 0 0 1 2.4 2.9c.1.3-.2.7-.5.4zm.9-2.1a25.4 25.4 0 0 0 -2.8-2.9c-.4-.2.1-1.1.6-1s2.1 2.1 2.6 3.4-.2.7-.4.5zm.8-2.2c-.4-1-2.5-3.1-3.6-4.1s.4-1.5.9-1.2 3.9 4.3 2.7 5.3zm.7-2.5a11.9 11.9 0 0 0 -4-4.9c-.7-.4-.6-1.9 0-1.7a8.4 8.4 0 0 1 4.6 5.3c.2.7-.2 1.9-.6 1.3zm2.4-9.2c.7.5.2 4.2-1.1 5.9l-1.5-2.2c.8-1.3 2.1-4 2.6-3.7zm-1.8-.3a27.5 27.5 0 0 0 -1.4-3c.3-.4 2.3-4.7 2.7-4.6s0 5.6-1.3 7.6zm1.2-21.8c1.1-4.6-.7-8.8-2.4-12.6.6-3 .7-5.6 1.1-8.6a.7.7 0 0 1 1.3-.3c.8 6.7 3.6 9.1 9.6 8.8l.5 4.5c-3.9 1.6-7.1 4.9-10.1 8.2zm9.7-14.8c-5.6 1.6-8.8-1.8-8.3-9.4-.6-1.1-2.5 1.3-2.7.5 0-8 3.5-8.4 4.8-10.4a5.7 5.7 0 0 1 3.5 1.6c2.2 3.4 1.6 7.5 2.9 11.3.3.6 1 0 1 0-1.4-5.2.1-12.6-6.2-14.8 2.5-3.5 3.5-7.3 4.6-11.4a2.3 2.3 0 0 1 1.8-.4c-.2 1.6-.9 3.1-.6 4.9s2.2-1.3 3.4-1.9 4.4-.7 6.8-.3c.5.1.4.5-.1.6-2.3.2-5.8.7-6 1.7s2.7 1.5 4.3 1.5a9.9 9.9 0 0 1 .3 3c-3 1.4-6.7 5.1-4.6 11.3a41.1 41.1 0 0 0 -4.9 12.2zm10.2 1.9c-2.6 7.7-3.7 18-7 22.5-.1.1-.3.1-.2-.1 3.9-7.7 3.2-14.7 5.4-22.1.2-.3-.1-.7-.4-.2-2.6 3.4-3 16.9-5.2 21.1-.1.2-.3.2-.2-.1 2.5-9.8.5-19.3 4.5-26.8.2-.2-.3-.7-.7-.2a33.7 33.7 0 0 0 -3.2 17.5c0 .4-.4.5-.4 0-1.1-9.1-2-18.1 4.3-25.9 2.7-3.3 6.7-6.3 9.4-7 6.4-1.4 7.2 4.6 7.2 4.6-7.4 2.1-11.4 10.1-13.5 16.7zm2 .6c-.3-.2-.3-1 .1-1.1 2.2-.6 8.4-2 8.7-1.3s-8.3 2.7-8.8 2.4zm13.7-3.9a50.7 50.7 0 0 0 -13.2 1.2c.8-4.6 6.9-11.6 8.1-10.9s-1.4 3.9.1 4.9 2.3.2 3.2.5 2.4 4.1 1.8 4.3z"/><path d="m76.6 54.7c-2.1 15.2-10.9 15-19.4 9.9-1.5-.4-4.6-1.4-6.6-1a26.3 26.3 0 0 0 -6.2 2.8c-1.6.8-.7 4.2.3 5.7 8.6-4 11.5-4.6 11.5-4.6 7.5 8.4 20.3 4.3 21.4-6.6a71.4 71.4 0 0 1 23.2-2.9 20.9 20.9 0 0 0 -2.7-5.4c-10.4-.7-21.5 2.1-21.5 2.1z" fill="#3c1e5e"/><path d="m114 86.9a5.2 5.2 0 0 0 -3.4-1.6 8 8 0 0 0 .3-2.7l1.5-.8a1.7 1.7 0 0 0 .9-1.4 9.1 9.1 0 0 0 -3.1-6.9 6.7 6.7 0 0 0 .1-3.8 1.7 1.7 0 0 0 -1.8-1.3c-1.2.1-1.5-.1-1.9-2.9l-.3-1.7a8.9 8.9 0 0 0 2.9-10.3c-.5-1.5-2.4-1.1-3-.2a8.4 8.4 0 0 1 -2.1 2.6 48.4 48.4 0 0 0 -23.3-24.9 56.5 56.5 0 0 0 -27.8-5.9 1.7 1.7 0 0 0 -1.6 1.5 23.3 23.3 0 0 1 -.6 3.3c-5.4-2.1-7.3-7.1-9.3-12.4a37.5 37.5 0 0 0 -4-8.6c-1.7-2.4-5.2-6.5-9.3-7.2s-3.3 3-2.1 3.7c7 4.8 7.7 13.2 8.4 21.3s4.8 11.4 9 14.7c-5.4 1.1-11.5.1-15.7-2.7h-.1c-6.4-4.3-7.4-11.2-8.1-18.8a85.9 85.9 0 0 0 -1.6-9.7c-1.1-3.3-2.6-6.9-5.7-8.5a2.6 2.6 0 0 0 -3.3.4 2.1 2.1 0 0 0 -.1 2.6c3.3 4.5 3.5 8.5 3.2 12.9-1.4 12.2-.7 18.3 2.3 24.9 6.9 13.3 17.3 19 25.1 20.9a44.5 44.5 0 0 0 .6 9.2c-11.1 6.1-21.2 13.3-37.3 38.3-1.4 1.7.3 5.7 3.8 2.8 9.9-9.1 22.1-13.9 32.6-12.6 8.9 1 16.3 6 22.2 14.8 7.3 11.5 7 20.7 6.1 30.2-.3 2.4-.9 5.7 2.1 7a3.6 3.6 0 0 0 3.3-.4c2.2-1.4 3.8-5.2 4.3-7.1a6.8 6.8 0 0 0 1-2.8 7.4 7.4 0 0 0 .8-3.5c1.7-2.4 2.8-7 1.3-10.2a15.7 15.7 0 0 0 -.4-8c.4-1.6 1.1-6.7-.5-10.1a28.6 28.6 0 0 1 7.1-5.3c.5 6.4 1.7 12.8-3.6 17.3-1.3 1.1-1.2 4.3 2 3.5 9.7-3.1 12.8-19.5 13.8-25.4 2.4-1 13.9-4.6 14.9-4.9a4.3 4.3 0 0 0 2.5-2.7c.6-2.4-1.1-5.4-2.1-6.6zm-1 7.7c-2.9 1-12.4 3.6-15.8 5.4-.7 2.4-2.8 21.5-12.9 24.9-.7.2-.8-.3-.4-.5 6.3-4.9 4.9-14 3.9-21.2a29.8 29.8 0 0 0 -10.5 7.6c2 2.5 1.5 8 .9 10.5a13.8 13.8 0 0 1 .3 8c1.8 2.8.4 7.6-1.2 9.5.1 1-.2 3-.8 3.4a4.2 4.2 0 0 1 -.9 2.7c0 1-2.7 7.8-5.4 6.6s-.8-4.9-.8-7.7c.5-8 1.2-16.6-6.6-28.9-16.1-24.1-41.8-16.9-57.3-2.4-1.4 1.2-1.8.3-1.3-.7 15.8-24.6 25.4-31.6 37.8-38.3a39.2 39.2 0 0 1 -.7-11.4c-11.5-2.4-21-10.6-26.2-22.1-3.4-8.4-1.2-18-1.3-26.9a18.6 18.6 0 0 0 -3.5-9.4c-.4-.5.4-1 1.2-.6 2.7 1.4 4 5 4.9 7.6 2.8 10 .3 22.7 10.4 29.4a23.3 23.3 0 0 0 18.3 2.6 5.4 5.4 0 0 1 .9-1.5c-4.7-3.5-9.2-7.5-9.8-14.7s-1.5-17.3-9.2-22.5c-.1-.3.2-.8.9-.7 3.7.7 7 4.8 8.2 6.5 5.1 7.4 4.8 19.3 15.7 22.2a22.1 22.1 0 0 0 1.3-5.2c15-.9 40.2 5.6 50 31.2 2.1-.3 3.5-1.9 4.6-3.8a7.4 7.4 0 0 1 -3.4 8.9c1.1 2.5 0 7.3 4.3 7 .8 3.1-.8 3.7-.8 3.7a7.4 7.4 0 0 1 3.8 6.5l-2.7 1.4c.8 1.7-.1 3.5-.4 5.1 2 .1 3.7.4 4.3 1.2s3.2 5.5.2 6.6z" fill="#fff"/><path d="m48.1 32a18.2 18.2 0 0 1 -8-9.8c-.1-.1-.3-.2-.2.1s.8 2.5 1.1 3.3a.2.2 0 0 1 -.4.2c-.7-.8-1.7-3.5-2.3-5.1s-.2-.1-.3 0a37.2 37.2 0 0 0 1.8 6.8.3.3 0 0 1 -.5.2 15.7 15.7 0 0 1 -1.6-5.3c-.1-.1-.2-.1-.2.1a30.7 30.7 0 0 0 3.3 11c1.1 1.8 2.9 3.8 5.3 3.4s3.3-4.1 2-4.9z" fill="#fff"/><path d="m47.2 57.2c.7.5-3 1.7-2.5 2.2s4.6-3 5.7-1.9-3.5 2.2-3.1 2.6 4.7-3 5.8-2.4-3.1 2.5-2.6 2.8 4.7-2.9 5.5-2.1-2.7 2.3-2.2 2.7 4.3-3.2 5.4-2.4-2.9 2.5-2.4 2.9 4.3-2.3 5.1-1.9-2.3 1.9-1.9 2.3 2.7-1.9 3.4-1.6-2 2.1-1.4 2.6 1.8-1.7 2.7-.9-1.1 1.5-.7 1.8 1.5-1.6 2.4-1-.4.8-.1 1 1.2-.7 1.7-.4-.3.8.1 1.1 1.1-1.3 2.1-.2c4.5-2.3 9.2-15.5-5.8-19.9-10-3.4-27.7 5-38.2-2.9a22.4 22.4 0 0 1 -9.1-17.2c.1-.1-.1-.2-.1.1-.1 5.8 1.1 11.8 5 16.5.2.2-.1.4-.3.3-4-3.9-5.5-9.9-5.8-15 0-.2-.1-.2-.1 0 .2 6.7 1.9 14.5 6.2 17.9a.2.2 0 1 1 -.3.3c-4.1-3.1-5.9-9.4-6.8-14-.1-.1-.1-.1-.2.1.4 5.2 3.6 17.6 15.4 23.9 3.2 1.4 5.4 0 6.1.7s-1.7.9-1.5 1.3 2.9-1.1 3.6-.3-.6.5-.4.8 2.1-1.1 3.2-.4-1.3.9-1.1 1.1 3.6-2 4.3-1.1-2.6 1.6-2.3 2.1 4.1-2.3 5.2-1.5z" fill="#fff"/><path d="m96.4 70.6a9.9 9.9 0 0 0 -.3-3c-1.6 0-4.3-.8-4.3-1.5s3.7-1.5 6-1.7c.5-.1.6-.5.1-.6-2.4-.4-5.1-.6-6.8.3s-3.3 3-3.4 1.9.4-3.3.6-4.9a2.3 2.3 0 0 0 -1.8.4c-1.1 4.1-2.1 7.9-4.6 11.4 6.3 2.2 4.8 9.6 6.2 14.8 0 0-.7.6-1 0-1.3-3.8-.7-7.9-2.9-11.3a5.7 5.7 0 0 0 -3.5-1.6c-1.3 2-4.8 2.4-4.8 10.4.2.8 2.1-1.6 2.7-.6-.5 7.7 2.7 11.1 8.3 9.5a41.1 41.1 0 0 1 4.9-12.2c-2.1-6.2 1.6-9.9 4.6-11.3z" fill="#eec6a5"/><path d="m100.3 65.6c-1.4 0-4.6.1-4.6.5s.9.2 1.4.4c.4 1.8.8 5.4.2 6-2.6 1.8-5.2 4.4-4.5 7.9 1.5-1.7 4.2-4.4 7-5.6-.6-.9-.7-3.5.6-4.5a10.3 10.3 0 0 1 2.9-.2.7.7 0 0 1 .6 1c-.5.6-3.2.8-2.6 1.9s3.7-.6 5.8-1.1v-1.1c-3.3-.4-2.6-4.4-3.6-6.6a1.7 1.7 0 0 0 -3.2 1.4z" fill="#eec6a5"/><path d="m111 88.4c-.9-.3-2.2.1-3.2-.5s1-4.3-.1-4.9-7.3 6.3-8.1 10.9a50.7 50.7 0 0 1 13.2-1.2c.6-.2.2-3.4-1.8-4.3z" fill="#eec6a5"/><path d="m77.2 87.4a.7.7 0 0 0 -1.3.3c-.4 3-.5 5.6-1.1 8.6 1.7 3.8 3.5 8 2.4 12.6 3-3.3 6.2-6.6 10.1-8.2l-.5-4.5c-6 .3-8.8-2.1-9.6-8.8z" fill="#eec6a5"/><path d="m99.2 95.5c-.4.1-.4.9-.1 1.1s8.9-2.2 8.8-2.4-6.5.7-8.7 1.3z" fill="#eec6a5"/><g fill="#eebf1b"><path d="m43.7 62.7v1.9a18.9 18.9 0 0 1 3.3-1.5z"/><path d="m76.2 52.9c6.4-1.3 14.5-2.5 20.9-2 0 0-9.6-21.8-42.6-22.7-.7 6-3.9 9.3-6.7 14.2 19.8-1.7 25 1.9 28.4 10.5z"/><path d="m93 59.6c-2.2.1-3 2.2-3 3.7 3.9-2.8 9.7 0 14-1.9a5.7 5.7 0 0 0 2.8-4.1c-4.1 3.9-8.1 2-13.8 2.3z"/><path d="m48.3 85.8c1.1 6.8 8.4 11.3 14.1 10.2.8-14.7 20.3-20.4 22.7-34.4a34.8 34.8 0 0 0 -6.4 1.4 13.5 13.5 0 0 1 -9.4 10.6 14.2 14.2 0 0 1 -9.6-.9c-.9-.4-1.9.2-2.8.4-10.3 4.3-15.6 14.9-22.4 23.2a.8.8 0 0 0 .4 1.1c1.9.7 4.8-.8 6.7-2.4a26.9 26.9 0 0 0 6.7-9.2z"/><path d="m55.2 70.8c.4-.3.6-.9-.5-.7-5.5 1.4-27.9 10.4-46.7 38.5-.3.3-.1.7.2.4a55.6 55.6 0 0 1 8.7-7c1.6-1 2.5-2.8 3.6-4.7 7.3-12.4 24.4-22.6 34.7-26.5z"/><path d="m57.2 71.6c.4-.1.1-.6-.3-.4-14.3 6.2-29.1 14.9-37.1 29.5-.2.4.3.4.6.3 3.4-1.2 6.7-2.1 10.7-3.2a5.5 5.5 0 0 0 1.6-1.2c6.4-9.6 14-19.9 24.5-25z"/><path d="m110.6 79.3s-.8-6-7.2-4.6c-2.7.7-6.7 3.7-9.4 7-6.3 7.8-5.4 16.8-4.3 25.9 0 .4.4.4.4 0a33.7 33.7 0 0 1 3.2-17.5c.4-.5.9-.1.7.2-4 7.5-2 17-4.5 26.8-.1.3.1.3.2.1 2.2-4.2 2.6-17.7 5.2-21.1.3-.5.6-.1.4.2-2.2 7.4-1.5 14.4-5.4 22.1-.1.2.1.2.2.1 3.2-4.5 4.4-14.8 7-22.5s6.1-14.6 13.5-16.7z"/><path d="m74.8 79.7c-.7-.6-13.9 13.5-11.1 24.2a18 18 0 0 1 4.3 2.9c0-6.9 5.9-9.3 5.9-20.6 0 0-1.3-1.9-1-2.1s1 .7 1.2.5 1.1-4.6.7-4.9z"/><path d="m48.9 92.1c-.3-.9-.9-1.8-1.2-2.7-1.3 2.5-3.6 5.9-6.7 7.8-.6.6.8.6 1.6.4 2.4-.9 4.7-3.5 6.3-5.5z"/><path d="m56.6 104a10.7 10.7 0 0 1 -6.1-10.1 4.6 4.6 0 0 0 -.7-.7 37.1 37.1 0 0 1 -5.4 5.1 31 31 0 0 1 12 6.4c.4.4.8-.5.2-.7z"/><path d="m62.1 98.1a15.5 15.5 0 0 1 -10-2.8s.2 6.8 10 8z"/><path d="m73.6 98.7c-1.2 1.9-5 8-4.8 13.5 1.6.5 2.7 1.7 4 2.7.7-3.7 4.8-7.2 2.1-15.5-.3-1-.8-1.5-1.3-.7z"/><path d="m67.5 107.9s-7.3-4.8-8.9-3.1 2.7 5.2 3.7 5.8 5 .9 5 .9.2-2.4.2-3.6z"/><path d="m75.5 122.9c1.5-3.5 2.2-10.3.8-11.1s-2.8 5.5-3.7 7.7a30.4 30.4 0 0 1 2.9 3.4z"/><path d="m72.1 116.1c-2.3-2.4-6.7-3.9-7.7-3.1s.5 2 1 3 3.6 2.8 5.8 3.2c.3-1.2.6-2 .9-3.1z"/><path d="m73.7 126.7c.4-.1 1.5-2.1 1.2-2.7-1.3-2.3-5.2-4.2-6.1-3.7s0 2.5.4 3.3 4.1 3.3 4.5 3.1z"/><path d="m74.6 127.7a27.5 27.5 0 0 1 1.4 3c1.3-2 2.1-7.2 1.3-7.6s-2.4 4.2-2.7 4.6z"/><path d="m70.7 127.2c-.5.2-.4 1.9-.2 2.8s3.4 3.7 3.8 3.6 1-1 1-1.9-3.8-4.8-4.6-4.5z"/><path d="m75.2 134.7 1.5 2.2c1.3-1.7 1.8-5.4 1.1-5.9s-1.8 2.4-2.6 3.7z"/><path d="m71.4 133.6c-.6-.2-.7 1.3 0 1.7a11.9 11.9 0 0 1 4 4.9c.4.6.8-.6.6-1.3a8.4 8.4 0 0 0 -4.6-5.3z"/><path d="m72 137.4c-.5-.3-1.5.7-.9 1.2s3.2 3.1 3.6 4.1c1.2-1-1-3.9-2.7-5.3z"/><path d="m71.7 141c-.5-.1-1 .8-.6 1a25.4 25.4 0 0 1 2.8 2.9c.2.2.5-.1.4-.5a6.5 6.5 0 0 0 -2.6-3.4z"/><path d="m71.1 143.7c-.3-.1-.6.7-.3 1.1s1.4 1.4 2.2 2.2.6-.1.5-.4a5.4 5.4 0 0 0 -2.4-2.9z"/><path d="m70.8 146.5c-.7 1.2-1.2 3.4-.3 4s1.7-1.7 2-2.3a13.6 13.6 0 0 0 -1.7-1.7z"/></g></svg>